<svg width="511" height="511" viewBox="0 0 511 511" fill="none" xmlns="http://www.w3.org/2000/svg">
<g clip-path="url(#clip0_16_2)">
<circle cx="255.5" cy="255.5" r="255.5" fill="#E55E26"/>
<path d="M165.685 195.104H233.485L222.995 235.304C221.553 240.668 218.391 245.41 213.995 248.804C209.624 252.195 204.227 253.994 198.695 253.904H167.185C160.324 253.809 153.63 256.029 148.185 260.204C142.606 264.523 138.558 270.516 136.635 277.304C135.246 282.292 135.092 287.543 136.185 292.604C137.19 297.22 139.171 301.568 141.995 305.354C144.857 309.105 148.555 312.136 152.795 314.204C157.269 316.422 162.202 317.552 167.195 317.504H186.395C188.11 317.475 189.807 317.854 191.346 318.61C192.885 319.367 194.221 320.479 195.245 321.854C196.367 323.183 197.138 324.771 197.487 326.474C197.837 328.178 197.753 329.941 197.245 331.604L185.245 376.004H164.245C150.423 376.142 136.776 372.898 124.495 366.554C112.701 360.534 102.385 351.98 94.2851 341.504C86.2547 331.039 80.6681 318.909 77.9351 306.004C75.0356 292.447 75.3989 278.394 78.9951 265.004L80.1951 260.504C85.2698 241.708 96.3882 225.105 111.835 213.254C119.41 207.511 127.848 203.005 136.835 199.904C146.112 196.688 155.866 195.065 165.685 195.104Z" fill="white"/>
<path d="M199.885 376.004L258.995 154.604C260.437 149.241 263.599 144.498 267.995 141.104C272.364 137.716 277.757 135.917 283.285 136.004H345.995C359.817 135.866 373.464 139.11 385.745 145.454C397.527 151.465 407.825 160.021 415.893 170.502C423.961 180.983 429.598 193.127 432.395 206.054C435.398 219.609 434.985 233.698 431.195 247.054L429.995 251.554C427.466 260.998 423.412 269.966 417.995 278.104C409.979 290.171 399.098 300.062 386.324 306.894C373.55 313.726 359.281 317.286 344.795 317.254H290.495L301.295 276.754C302.796 271.5 305.952 266.871 310.295 263.554C314.667 260.163 320.064 258.365 325.595 258.454H342.995C350.003 258.462 356.814 256.137 362.355 251.846C367.895 247.555 371.85 241.541 373.595 234.754C374.981 229.952 375.118 224.875 373.995 220.004C372.978 215.385 370.984 211.037 368.145 207.254C365.263 203.485 361.572 200.41 357.345 198.254C352.915 195.951 347.988 194.767 342.995 194.804H309.395L265.595 357.704C264.094 362.958 260.938 367.588 256.595 370.904C252.321 374.262 247.03 376.061 241.595 376.004H199.885Z" fill="white"/>
</g>
<defs>
<clipPath id="clip0_16_2">
<rect width="511" height="511" fill="white"/>
</clipPath>
</defs>
</svg>
