<?xml version="1.0" encoding="UTF-8"?> <svg xmlns="http://www.w3.org/2000/svg" id="Calque_2" viewBox="0 0 593.16 123.21"><defs><style>.cls-1{fill:#fff;}.cls-2{fill:#7c68ac;}</style></defs><g id="Calque_1-2"><g><path class="cls-2" d="M251.56,94.75c-.16-.82,1.14-1.02,1.71-2.48,1.41-3.59-4.42-7.61-3.09-10.4,.66-1.39,2.23-.66,3.81-2.39,2.12-2.32,1.64-6.67,.02-9.48-.93-1.61-2.08-2.46-3.82-3.74-4.72-3.47-7.77-3.23-7.91-4.7-.22-2.36,7.43-5.21,9.29-5.63,.07-.02,.69-.15,1.5-.38,.72-.21,1.58-.49,2.58-.9,.36-.15,.74-.34,1.19-.62,.7-.43,4.3-2.64,5.35-6.65,1.29-4.91-1.98-9.78-3.82-12.54-.61-.9-1.11-1.51-2.11-3.11-1.67-2.66-2.7-4.36-3.16-6.68-.39-1.94-.64-3.21,0-4.28,1.38-2.32,5.7-1.69,14.56-1.57,4.25,.06,7.72-.03,9.98-.11,4.3,7.49,10.24,17.26,17.81,29.32,7.57,12.06,13.68,22.04,18.33,29.95l2.09-52.93c.04-1.25,.06-3.37,.06-6.33,3.58,.08,6.28,.11,8.11,.11,.72,0,3.39-.04,8-.11l-1.42,20.93-1.76,35.82-.68,21.11c-3.96-.08-7.32-.11-10.1-.11-2.21,0-5.78,.04-10.72,.11-1.9-3.38-3.35-5.89-4.34-7.53-1.56-2.51-4.89-7.68-9.99-15.52-3.35-5.17-7.53-11.79-12.55-19.85-3.69-5.93-6.85-11.1-9.47-15.52-.3,6.16-.77,17.59-1.41,34.28-.26,6.81-.47,14.85-.62,24.13-1.95,.05-4.61,.07-7.77-.11-4.53-.26-9.33-.56-9.62-2.07Z"></path><path class="cls-2" d="M395.45,83.99c-.49,2.24-1.2,6.27-2.11,12.09-4.11,.87-7.57,1.46-10.38,1.77-2.81,.3-5.65,.46-8.5,.46-4.98,0-9.44-.49-13.38-1.48-3.94-.99-7.39-2.8-10.35-5.44-2.97-2.64-5.15-5.88-6.56-9.72-1.41-3.84-2.11-7.86-2.11-12.08,0-4.67,.82-9.2,2.45-13.59,1.63-4.39,3.93-7.98,6.87-10.77,2.95-2.79,6.3-4.77,10.07-5.93s7.7-1.74,11.81-1.74c3.88,0,7.57,.48,11.07,1.45,3.5,.97,6.44,2.55,8.81,4.75,2.38,2.2,4.2,4.85,5.48,7.94,1.27,3.09,1.91,6.54,1.91,10.33,0,1.78-.19,3.62-.57,5.52l-41.81,.06c-.08,1.41-.11,2.53-.11,3.37,0,2.55,.44,4.89,1.31,7.02,.87,2.13,2.15,3.94,3.82,5.42,1.67,1.48,3.67,2.58,5.99,3.28,2.32,.7,4.6,1.06,6.84,1.06,2.62,0,5.47-.29,8.53-.86,3.06-.57,6.7-1.54,10.92-2.91Zm-36.85-23.04l26.7,.06c0-1.82-.06-3.16-.17-4.03-.11-.87-.37-1.86-.77-2.98-.4-1.12-.94-2.1-1.63-2.95-.68-.85-1.48-1.56-2.4-2.13-.91-.57-1.97-1-3.17-1.31-1.2-.3-2.48-.45-3.85-.45-1.6,0-3.15,.25-4.65,.74-1.5,.49-2.88,1.21-4.14,2.16-1.25,.95-2.27,2.01-3.05,3.18-.78,1.17-1.36,2.3-1.74,3.38-.38,1.08-.76,2.53-1.14,4.35Z"></path><path class="cls-2" d="M402.12,96.94c7.99-9.68,16.11-19.74,24.35-30.2l-5.21-7.89c-1.7-2.57-3.95-5.86-6.76-9.87l-7.01-10.05c4.18,.08,7.52,.11,10.03,.11,3.3,0,6.25-.04,8.83-.11,1.76,2.71,3.78,5.69,6.06,8.92l4.29,6.31,12.25-15.23c2.7,.08,5.59,.11,8.67,.11,2.89,0,5.88-.04,8.96-.11l-9.53,11.8c-2.16,2.72-6.19,7.86-12.09,15.42l8.94,13.42,12.06,17.38c-3.28-.08-6.3-.11-9.08-.11-3.35,0-6.61,.04-9.77,.11-2.37-3.84-4.73-7.36-7.08-10.58s-4.09-5.73-5.21-7.52c-1.53,2.01-3.57,4.56-6.12,7.66-2.55,3.09-5.3,6.58-8.24,10.44-3.2-.08-6.09-.11-8.68-.11-2.89,0-6.11,.04-9.65,.11Z"></path><path class="cls-2" d="M532.98,96.94c-3.35-.08-5.92-.11-7.71-.11-2.25,0-4.79,.04-7.65,.11l.1-9.47c-1.06,1.6-2,2.88-2.79,3.85s-1.84,1.92-3.14,2.85c-1.29,.93-2.7,1.67-4.22,2.22s-3.26,1.01-5.22,1.37c-1.96,.36-4.04,.54-6.24,.54-4.26,0-7.96-.62-11.12-1.85-3.16-1.24-5.66-3.11-7.5-5.62-1.84-2.51-2.77-6.1-2.77-10.78v-1.2l.92-14.72,.87-19.39c.04-1.56,.06-3.5,.06-5.82,3.61,.08,6.44,.11,8.49,.11,2.16,0,4.78-.04,7.86-.11l-1.9,26.01c-.12,2.02-.2,3.72-.26,5.11-.06,1.39-.09,2.39-.09,2.99,0,2.74,.41,5.01,1.22,6.82,.82,1.81,2.24,3.19,4.27,4.14,2.03,.95,4.21,1.43,6.53,1.43s4.29-.42,6.27-1.25c1.79-.76,3.31-1.83,4.59-3.19,1.27-1.37,2.35-3.21,3.22-5.53,.65-1.67,1.14-3.99,1.48-6.96,.27-2.09,.51-5.68,.74-10.78,.32-6.16,.53-12.42,.65-18.77,3.77,.08,6.64,.11,8.62,.11,2.25,0,4.78-.04,7.6-.11-.46,5.44-.93,12.24-1.42,20.39-.49,8.16-.83,14.89-1.02,20.19s-.34,11.11-.45,17.43Z"></path><path class="cls-2" d="M545.58,95.85l-1.25-12.55c3.73,1.52,6.88,2.58,9.47,3.17,2.59,.59,4.96,.88,7.13,.88s3.99-.26,5.48-.77,2.59-1.27,3.31-2.28c.72-1.01,1.08-2.06,1.08-3.17,0-.49-.05-.95-.14-1.37-.1-.42-.27-.86-.51-1.31-.25-.46-.53-.88-.86-1.28-.32-.4-.77-.86-1.34-1.37-.57-.51-1.39-1.17-2.45-1.97l-3.08-2.45c-2.97-2.32-5.23-4.14-6.79-5.48-1.56-1.33-2.87-2.69-3.94-4.08-1.07-1.39-1.87-2.85-2.42-4.39-.55-1.54-.83-3.11-.83-4.71,0-2.78,.85-5.42,2.54-7.93,1.69-2.51,4.15-4.34,7.39-5.5,3.23-1.16,7.04-1.74,11.41-1.74,4.98,0,10.72,.59,17.23,1.77l.74,11.92c-4.41-1.79-8.65-2.68-12.72-2.68-2.21,0-4.14,.22-5.79,.66-1.65,.44-2.84,1.1-3.56,2-.72,.89-1.08,1.89-1.08,2.99,0,.65,.11,1.28,.34,1.91,.23,.63,.63,1.28,1.2,1.97,.57,.68,1.23,1.33,1.97,1.94,.74,.61,2.29,1.81,4.65,3.59,2.36,1.79,4.42,3.4,6.19,4.85,1.77,1.45,3.22,2.9,4.36,4.36,1.14,1.46,2.02,3.03,2.62,4.71,.61,1.67,.91,3.37,.91,5.08,0,2.85-.88,5.5-2.62,7.93-1.75,2.43-4.39,4.33-7.93,5.7s-7.49,2.05-11.86,2.05c-2.28,0-5.06-.18-8.33-.54-3.27-.36-6.77-1-10.5-1.91Z"></path></g><path class="cls-2" d="M231.4,59.11c-1.76-.83-3.58-1.68-6.1-1.95-.33-.03-6.44-.64-7.21,1.57-.41,1.17,.75,2.98,2.23,3.74,2.02,1.03,3.56-.42,7.23-.86,5.05-.61,8.51,1.38,8.74,.75,.23-.61-3.05-2.39-4.89-3.25Z"></path><path class="cls-2" d="M244.92,81.71c-.15,.18-1.32-1.53-3.8-2.13-2.82-.68-4.76,.67-5.62-.42-.45-.56-.4-1.53,0-2.04,.73-.92,2.64-.39,3.43-.17,3.82,1.06,6.2,4.51,5.99,4.76Z"></path><g><path class="cls-1" d="M256.98,94.75c-.16-.82,1.14-1.02,1.71-2.48,1.41-3.59-4.42-7.61-3.09-10.4,.66-1.39,2.23-.66,3.81-2.39,2.12-2.32,1.64-6.67,.02-9.48-.93-1.61-2.08-2.46-3.82-3.74-4.72-3.47-7.77-3.23-7.91-4.7-.22-2.36,7.43-5.21,9.29-5.63,.07-.02,.69-.15,1.5-.38,.72-.21,1.58-.49,2.58-.9,.36-.15,.74-.34,1.19-.62,.7-.43,4.3-2.64,5.35-6.65,1.29-4.91-1.98-9.78-3.82-12.54-.61-.9-1.11-1.51-2.11-3.11-1.67-2.66-2.7-4.36-3.16-6.68-.39-1.94-.64-3.21,0-4.28,1.38-2.32,5.7-1.69,14.56-1.57,4.25,.06,7.72-.03,9.98-.11,4.3,7.49,10.24,17.26,17.81,29.32,7.57,12.06,13.68,22.04,18.33,29.95l2.09-52.93c.04-1.25,.06-3.37,.06-6.33,3.58,.08,6.28,.11,8.11,.11,.72,0,3.39-.04,8-.11l-1.42,20.93-1.76,35.82-.68,21.11c-3.96-.08-7.32-.11-10.1-.11-2.21,0-5.78,.04-10.72,.11-1.9-3.38-3.35-5.89-4.34-7.53-1.56-2.51-4.89-7.68-9.99-15.52-3.35-5.17-7.53-11.79-12.55-19.85-3.69-5.93-6.85-11.1-9.47-15.52-.3,6.16-.77,17.59-1.41,34.28-.26,6.81-.47,14.85-.62,24.13-1.95,.05-4.61,.07-7.77-.11-4.53-.26-9.33-.56-9.62-2.07Z"></path><path class="cls-1" d="M400.87,83.99c-.49,2.24-1.2,6.27-2.11,12.09-4.11,.87-7.57,1.46-10.38,1.77-2.81,.3-5.65,.46-8.5,.46-4.98,0-9.44-.49-13.38-1.48-3.94-.99-7.39-2.8-10.35-5.44-2.97-2.64-5.15-5.88-6.56-9.72-1.41-3.84-2.11-7.86-2.11-12.08,0-4.67,.82-9.2,2.45-13.59,1.63-4.39,3.93-7.98,6.87-10.77,2.95-2.79,6.3-4.77,10.07-5.93s7.7-1.74,11.81-1.74c3.88,0,7.57,.48,11.07,1.45,3.5,.97,6.44,2.55,8.81,4.75,2.38,2.2,4.2,4.85,5.48,7.94,1.27,3.09,1.91,6.54,1.91,10.33,0,1.78-.19,3.62-.57,5.52l-41.81,.06c-.08,1.41-.11,2.53-.11,3.37,0,2.55,.44,4.89,1.31,7.02,.87,2.13,2.15,3.94,3.82,5.42,1.67,1.48,3.67,2.58,5.99,3.28,2.32,.7,4.6,1.06,6.84,1.06,2.62,0,5.47-.29,8.53-.86,3.06-.57,6.7-1.54,10.92-2.91Zm-36.85-23.04l26.7,.06c0-1.82-.06-3.16-.17-4.03-.11-.87-.37-1.86-.77-2.98-.4-1.12-.94-2.1-1.63-2.95-.68-.85-1.48-1.56-2.4-2.13-.91-.57-1.97-1-3.17-1.31-1.2-.3-2.48-.45-3.85-.45-1.6,0-3.15,.25-4.65,.74-1.5,.49-2.88,1.21-4.14,2.16-1.25,.95-2.27,2.01-3.05,3.18-.78,1.17-1.36,2.3-1.74,3.38-.38,1.08-.76,2.53-1.14,4.35Z"></path><path class="cls-1" d="M407.54,96.94c7.99-9.68,16.11-19.74,24.35-30.2l-5.21-7.89c-1.7-2.57-3.95-5.86-6.76-9.87l-7.01-10.05c4.18,.08,7.52,.11,10.03,.11,3.3,0,6.25-.04,8.83-.11,1.76,2.71,3.78,5.69,6.06,8.92l4.29,6.31,12.25-15.23c2.7,.08,5.59,.11,8.67,.11,2.89,0,5.88-.04,8.96-.11l-9.53,11.8c-2.16,2.72-6.19,7.86-12.09,15.42l8.94,13.42,12.06,17.38c-3.28-.08-6.3-.11-9.08-.11-3.35,0-6.61,.04-9.77,.11-2.37-3.84-4.73-7.36-7.08-10.58s-4.09-5.73-5.21-7.52c-1.53,2.01-3.57,4.56-6.12,7.66-2.55,3.09-5.3,6.58-8.24,10.44-3.2-.08-6.09-.11-8.68-.11-2.89,0-6.11,.04-9.65,.11Z"></path><path class="cls-1" d="M538.4,96.94c-3.35-.08-5.92-.11-7.71-.11-2.25,0-4.79,.04-7.65,.11l.1-9.47c-1.06,1.6-2,2.88-2.79,3.85s-1.84,1.92-3.14,2.85c-1.29,.93-2.7,1.67-4.22,2.22s-3.26,1.01-5.22,1.37c-1.96,.36-4.04,.54-6.24,.54-4.26,0-7.96-.62-11.12-1.85-3.16-1.24-5.66-3.11-7.5-5.62-1.84-2.51-2.77-6.1-2.77-10.78v-1.2l.92-14.72,.87-19.39c.04-1.56,.06-3.5,.06-5.82,3.61,.08,6.44,.11,8.49,.11,2.16,0,4.78-.04,7.86-.11l-1.9,26.01c-.12,2.02-.2,3.72-.26,5.11-.06,1.39-.09,2.39-.09,2.99,0,2.74,.41,5.01,1.22,6.82,.82,1.81,2.24,3.19,4.27,4.14,2.03,.95,4.21,1.43,6.53,1.43s4.29-.42,6.27-1.25c1.79-.76,3.31-1.83,4.59-3.19,1.27-1.37,2.35-3.21,3.22-5.53,.65-1.67,1.14-3.99,1.48-6.96,.27-2.09,.51-5.68,.74-10.78,.32-6.16,.53-12.42,.65-18.77,3.77,.08,6.64,.11,8.62,.11,2.25,0,4.78-.04,7.6-.11-.46,5.44-.93,12.24-1.42,20.39-.49,8.16-.83,14.89-1.02,20.19s-.34,11.11-.45,17.43Z"></path><path class="cls-1" d="M551,95.86l-1.25-12.55c3.73,1.52,6.88,2.58,9.47,3.17,2.59,.59,4.96,.88,7.13,.88s3.99-.26,5.48-.77,2.59-1.27,3.31-2.28c.72-1.01,1.08-2.06,1.08-3.17,0-.49-.05-.95-.14-1.37-.1-.42-.27-.86-.51-1.31-.25-.46-.53-.88-.86-1.28-.32-.4-.77-.86-1.34-1.37-.57-.51-1.39-1.17-2.45-1.97l-3.08-2.45c-2.97-2.32-5.23-4.14-6.79-5.48-1.56-1.33-2.87-2.69-3.94-4.08-1.07-1.39-1.87-2.85-2.42-4.39-.55-1.54-.83-3.11-.83-4.71,0-2.78,.85-5.42,2.54-7.93,1.69-2.51,4.15-4.34,7.39-5.5,3.23-1.16,7.04-1.74,11.41-1.74,4.98,0,10.72,.59,17.23,1.77l.74,11.92c-4.41-1.79-8.65-2.68-12.72-2.68-2.21,0-4.14,.22-5.79,.66-1.65,.44-2.84,1.1-3.56,2-.72,.89-1.08,1.89-1.08,2.99,0,.65,.11,1.28,.34,1.91,.23,.63,.63,1.28,1.2,1.97,.57,.68,1.23,1.33,1.97,1.94,.74,.61,2.29,1.81,4.65,3.59,2.36,1.79,4.42,3.4,6.19,4.85,1.77,1.45,3.22,2.9,4.36,4.36,1.14,1.46,2.02,3.03,2.62,4.71,.61,1.67,.91,3.37,.91,5.08,0,2.85-.88,5.5-2.62,7.93-1.75,2.43-4.39,4.33-7.93,5.7s-7.49,2.05-11.86,2.05c-2.28,0-5.06-.18-8.33-.54-3.27-.36-6.77-1-10.5-1.91Z"></path></g><path class="cls-1" d="M237.37,57.37c-1.76-.83-3.58-1.68-6.1-1.95-.33-.03-6.44-.64-7.21,1.57-.41,1.17,.75,2.98,2.23,3.74,2.02,1.03,3.56-.42,7.23-.86,5.05-.61,8.51,1.38,8.74,.75,.23-.61-3.05-2.39-4.89-3.25Z"></path><path class="cls-1" d="M250.88,79.97c-.15,.18-1.32-1.53-3.8-2.13-2.82-.68-4.76,.67-5.62-.42-.45-.56-.4-1.53,0-2.04,.73-.92,2.64-.39,3.43-.17,3.82,1.06,6.2,4.51,5.99,4.76Z"></path></g><g id="Calque_2-2"><path class="cls-1" d="M218.53,24.52s-2.8,11.28-14.59,24.4c-.05,.04-.07,.07-.09,.09s-.02,.02-.04,.02v.02c-6.85,5.99-16.21,11.48-27.46,11.48-4.17,0-8.61-.76-13.27-2.53,0,0-4.38-1.8-7.68-4.52-3.49-22.55-22.99-39.84-46.53-39.84-7.92,0-15.37,1.95-21.92,5.4-1.21-.02-2.69-.04-4.33,.02l-.77,.04-.92,.04-1.53,.12s-2.2,.19-3.29,.39c-1.02,.14-2.06,.3-3.15,.49h-.02s-.04,.02-.05,.02c-14.66,2.64-36.83,10.72-54.91,34.8v.02c-3.75,4.68-6.72,9.31-9.08,13.7,0,0-.56,1.02-1.41,2.76-.11,.21-.21,.44-.33,.69-.99,2.04-1.83,4.01-2.55,5.9-.28,.72-.56,1.48-.84,2.25-.92,2.5-1.78,5.25-2.45,8.12-.51,2.15-.92,4.35-1.13,6.55,0,.04-.02,.07-.02,.11-.16,1.32-.18,2.04-.18,2.04,0-.02,.02-.04,.04-.07-.05,1.06-.05,2.11,0,3.15,0,0,2.68-11.32,14.31-24.57,.04-.04,.07-.07,.09-.11l.02-.02v-.02c6.87-6.13,16.3-11.79,27.71-11.79,1.87,0,3.78,.14,5.76,.48,2.32,.39,4.72,1,7.16,1.9,0,0,3.5,1.39,6.62,3.61h.04c.63,.35,1.02,.58,1.02,.58,.02,.07,.04,.14,.05,.21,4.45,21.35,23.4,37.39,46.07,37.39,6.35,0,12.41-1.27,17.94-3.54l.19,.02c.05,.02,.11,.02,.18,.04,1,.11,3.93,.37,7.78,.3l.77-.04,.92-.02,1.53-.11s2.2-.18,3.29-.35c14.51-1.83,38.78-8.92,58.53-34.61l.02-.02c3.82-4.65,6.83-9.22,9.24-13.59,0,0,.58-1,1.44-2.75,.12-.21,.23-.44,.35-.67,1-2.04,1.88-4,2.62-5.88,.3-.72,.58-1.46,.88-2.24,1.64-4.37,3.17-9.52,3.75-14.63v-.11c.18-1.32,.21-2.04,.21-2.04-.02,.04-.02,.05-.04,.07,.05-1.04,.07-2.09,.04-3.13Zm-88.09,15.63c-11.62-14.42-30.12-9.49-31.12-9.22,22.29-13.7,30.74,8.17,31.12,9.22Zm5.6,48.52c-.77,.46-1.53,.88-2.29,1.27-.77,.4-1.57,.76-2.32,1.07-.32,.14-.63,.26-.95,.39-2.43,.93-4.79,1.53-7.09,1.85-.65,.09-1.3,.16-1.94,.21-4.63,.32-8.96-.44-12.78-1.71-9.38-3.13-15.83-9.42-16.83-10.42l-.14-.14c-5.6-4.65-9.17-11.65-9.17-19.49,0-13.63,10.81-24.73,24.31-25.23,.32-.02,.62-.02,.93-.02,6.3,0,12.08,2.31,16.49,6.13,.02,.04,.05,.05,.07,.09,5.32,4.61,8.68,11.42,8.68,19.03,0,12.46-9.03,22.81-20.91,24.87-.9,.16-1.8,.26-2.75,.32-.05,.02-.09,.02-.09,.02,.05,.02,.11,.05,.16,.07,7.62,4.19,15.47,3.96,20.88,2.97,.76-.14,1.48-.3,2.13-.48,.65-.14,1.27-.32,1.8-.49,.18-.05,.35-.11,.51-.16,.33-.11,.65-.21,.92-.3,.44-.16,.81-.3,1.07-.39,.14-.07,.26-.12,.35-.16,.05-.02,.11-.04,.14-.05-.4,.26-.79,.51-1.18,.74Z"></path><path class="cls-1" d="M192.63,37.75c-1.66,3.18-3.41,6.14-5.24,8.9-2.36,.98-4.61,1.61-6.74,1.97-7.16,1.23-12.84-.51-15.96-1.92-.81-4.13-2.11-8.09-3.82-11.82h-.02c-.2-.48-.4-.94-.6-1.38C189.84,34.65,202.8,0,202.8,0c.79,11.52-10.18,37.75-10.18,37.75Z"></path><path class="cls-1" d="M58.37,89.67c-28.58,.02-41.12,33.54-41.12,33.54-.79-11.52,10.17-37.74,10.17-37.74l4.46-9.04h0c.22-.15,4.01-2.62,10.24-2.31,0,0,.06,0,.17,0,.12,0,.25,0,.36,.02,.24,.02,.56,.04,.95,.09,1.99,.21,5.66,.85,9.11,2.69l.05,.18c1.12,3.74,2.62,7.3,4.47,10.65,.36,.68,.7,1.3,1,1.73,0,.02,.02,.03,.03,.05,.03,.05,.07,.09,.1,.14Z"></path><path class="cls-1" d="M62.81,70.42v.02c-.36-.28-.71-.55-1.08-.81,.63,.35,1.03,.58,1.03,.58,.02,.07,.03,.14,.05,.21Z"></path><path class="cls-1" d="M109.43,86.99c-.06-.02-.1-.06-.16-.08h0c.06,.02,.1,.05,.16,.08Z"></path><path class="cls-1" d="M112.11,86.57c-.9,.16-1.81,.27-2.75,.32,.29-.04,1.28-.15,2.75-.32Z"></path></g></svg> 