<svg width="43" height="26" viewBox="0 0 43 26" fill="none" xmlns="http://www.w3.org/2000/svg">
<g clip-path="url(#clip0_11_18)">
<path d="M37.4 12.8C37.4 13.6 37 13.7 36 13.7C34.9 13.7 34.7 13.5 34.6 12.7C34.4 10.6 33 8.8 30.6 8.7C29.9 8.6 29.7 8.4 29.7 7.4C29.7 6.5 29.8 6.1 30.5 6.1C34.5 6.2 37.4 9.5 37.4 12.8ZM43.3 12.8C43.3 6.6 39.1 0 29.3 0H10C9.6 0 9.3 0.2 9.3 0.6C9.3 0.8 9.4 1 9.6 1.1C10.3 1.7 11.3 2.3 12.7 3C14 3.7 15.1 4.1 16.1 4.5C16.5 4.7 16.7 4.9 16.7 5.1C16.7 5.4 16.5 5.7 16 5.7H0.7C0.2 5.6 0 5.9 0 6.2C0 6.5 0.1 6.7 0.3 6.9C1.5 8.2 3.5 9.8 6.4 11.6C8.9 13.2 12.1 14.9 14.6 16.1C15 16.3 15.2 16.5 15.2 16.8C15.2 17.1 15 17.3 14.5 17.3H7.4C7 17.3 6.8 17.5 6.8 17.8C6.8 18 6.9 18.2 7.1 18.4C8.7 19.9 11.3 21.4 14.7 22.9C19.3 24.8 23.9 26 29.1 26C39 26 43.3 18.6 43.3 12.8ZM30.4 21.7C25.6 21.7 21.5 17.8 21.5 12.8C21.5 8 25.5 4.1 30.4 4.1C35.4 4.1 39.3 8 39.3 12.8C39.3 17.7 35.4 21.7 30.4 21.7Z" fill="#FF642D"/>
</g>
<defs>
<clipPath id="clip0_11_18">
<rect width="43" height="26" fill="white"/>
</clipPath>
</defs>
</svg>
