<svg width="19" height="19" viewBox="0 0 19 19" fill="none" xmlns="http://www.w3.org/2000/svg">
<path d="M18.2552 11.5194H17.5069V1.18698C17.5066 0.955674 17.4166 0.733925 17.2564 0.570373C17.0963 0.406821 16.8792 0.314831 16.6528 0.314575H2.96026C2.73382 0.314831 2.51672 0.406821 2.35661 0.570373C2.19648 0.733925 2.10641 0.955674 2.10615 1.18698V11.5194H1.35783C1.18818 11.5195 1.02553 11.5885 0.905574 11.711C0.785617 11.8335 0.718144 11.9997 0.717957 12.173V12.8802C0.71819 13.0535 0.785684 13.2196 0.905642 13.3421C1.02559 13.4646 1.18822 13.5335 1.35783 13.5336H7.15196L3.88831 18.5299C3.86604 18.564 3.85325 18.6036 3.8513 18.6446C3.84935 18.6855 3.85832 18.7262 3.87725 18.7623C3.89617 18.7985 3.92435 18.8287 3.95877 18.8498C3.9932 18.8709 4.03257 18.882 4.0727 18.882H5.60154C5.63801 18.882 5.67391 18.8728 5.70607 18.8552C5.73823 18.8376 5.76566 18.8122 5.78592 18.7812L8.82043 14.136V18.6556C8.82043 18.7156 8.84381 18.7732 8.88537 18.8157C8.92694 18.8581 8.98331 18.882 9.04212 18.882H10.5709C10.6297 18.882 10.6861 18.8581 10.7277 18.8157C10.7692 18.7732 10.7926 18.7156 10.7926 18.6556V14.136L13.8271 18.7812C13.8474 18.8122 13.8748 18.8376 13.907 18.8552C13.9391 18.8728 13.975 18.882 14.0115 18.882H15.5403C15.5805 18.882 15.6199 18.8709 15.6543 18.8498C15.6887 18.8287 15.7169 18.7985 15.7358 18.7623C15.7547 18.7262 15.7637 18.6855 15.7618 18.6446C15.7598 18.6036 15.747 18.564 15.7247 18.5299L12.4611 13.5336H18.2552C18.4248 13.5335 18.5875 13.4646 18.7074 13.3421C18.8274 13.2196 18.8949 13.0535 18.8951 12.8802V12.173C18.8949 11.9997 18.8274 11.8335 18.7075 11.711C18.5875 11.5885 18.4249 11.5195 18.2552 11.5194Z" fill="#6971C4"/>
<path d="M13.2671 11.5194C13.2024 9.81039 12.5538 8.21343 11.4264 7.00154C11.2666 6.82991 11.0979 6.66709 10.921 6.51386C11.5765 4.10463 13.2035 2.49551 15.0032 2.49551C15.7219 2.49551 16.4319 2.75279 17.0634 3.23941V11.5194H13.2671Z" fill="#F060B9"/>
<path d="M2.96026 0.767441H16.6528C16.7617 0.767563 16.8661 0.811803 16.9431 0.890449C17.0201 0.969099 17.0634 1.07574 17.0635 1.18698V2.68757C16.423 2.26506 15.7186 2.04288 15.0034 2.04288C13.0479 2.04288 11.287 3.70437 10.5447 6.21194C9.51989 5.44592 8.2829 5.03317 7.01298 5.03344C5.31911 5.03344 3.72317 5.76405 2.5495 7.05685V1.18698C2.54963 1.07574 2.59295 0.969099 2.66995 0.890449C2.74696 0.811803 2.85136 0.767563 2.96026 0.767441Z" fill="#CBBEFC"/>
<path d="M2.5495 7.75344C3.65959 6.31179 5.28201 5.4863 7.01298 5.4863C10.1229 5.4863 12.6862 8.17227 12.8232 11.5195H2.5495V7.75344Z" fill="#01C899"/>
<path d="M5.48298 18.4291H4.48712L7.68497 13.5339H8.68078L5.48298 18.4291Z" fill="#01C899"/>
<path d="M9.26373 13.5339H10.3492V18.4291H9.26373V13.5339Z" fill="#01C899"/>
<path d="M15.1259 18.4291H14.13L10.9323 13.5339H11.9281L15.1259 18.4291Z" fill="#01C899"/>
<path d="M18.4518 12.8802C18.4517 12.9334 18.431 12.9845 18.3941 13.0221C18.3573 13.0598 18.3073 13.0809 18.2552 13.081H1.35785C1.30574 13.0809 1.25579 13.0598 1.21894 13.0221C1.1821 12.9845 1.16137 12.9334 1.16132 12.8802V12.173C1.16137 12.1198 1.1821 12.0687 1.21894 12.0311C1.25578 11.9934 1.30574 11.9723 1.35785 11.9722H18.2552C18.3073 11.9723 18.3573 11.9934 18.3941 12.0311C18.431 12.0687 18.4517 12.1198 18.4518 12.173V12.8802Z" fill="#01C899"/>
<path d="M8.01948 4.20891C8.30061 4.20897 8.57539 4.12379 8.80914 3.96427C9.04283 3.80475 9.22503 3.57803 9.33258 3.31275C9.44018 3.04747 9.46834 2.75558 9.41347 2.47393C9.35866 2.19232 9.22327 1.9336 9.02454 1.73056C8.82576 1.52752 8.57248 1.38928 8.29681 1.33325C8.02109 1.27724 7.73529 1.30599 7.47562 1.4159C7.2159 1.52576 6.99395 1.71184 6.83778 1.95062C6.6816 2.18934 6.59827 2.47003 6.59827 2.75718C6.59868 3.14209 6.74857 3.5111 7.01499 3.78326C7.28142 4.05542 7.64266 4.20849 8.01948 4.20891Z" fill="#6971C4"/>
<path d="M8.01945 1.7583C8.21288 1.75825 8.40194 1.81686 8.56279 1.92662C8.72359 2.03638 8.84896 2.19238 8.92299 2.37489C8.99698 2.55745 9.01635 2.7583 8.97864 2.95206C8.94092 3.14582 8.84776 3.32385 8.71102 3.46353C8.57422 3.60326 8.40002 3.69841 8.21028 3.73691C8.02059 3.77547 7.82395 3.75569 7.64528 3.68011C7.46655 3.60449 7.31386 3.47643 7.20636 3.31217C7.09892 3.1479 7.04156 2.95478 7.04156 2.75718C7.04188 2.49238 7.14495 2.23846 7.3283 2.05121C7.51165 1.86395 7.7602 1.75857 8.01945 1.7583Z" fill="#01C899"/>
</svg>
