<?xml version="1.0" encoding="UTF-8"?> <svg xmlns="http://www.w3.org/2000/svg" width="100" height="100" viewBox="0 0 100 100" fill="none"><circle cx="50" cy="50" r="50" fill="#152647"></circle><path d="M24.088 63V37.62H34.852C37.924 37.62 40.504 38.136 42.592 39.168C44.704 40.2 46.3 41.664 47.38 43.56C48.46 45.432 49 47.676 49 50.292C49 52.884 48.46 55.128 47.38 57.024C46.3 58.92 44.704 60.396 42.592 61.452C40.504 62.484 37.924 63 34.852 63H24.088ZM31.864 56.736H34.384C36.736 56.736 38.476 56.208 39.604 55.152C40.732 54.096 41.296 52.476 41.296 50.292C41.296 48.084 40.732 46.464 39.604 45.432C38.476 44.4 36.736 43.884 34.384 43.884H31.864V56.736ZM64.6966 63.324C62.1526 63.324 59.9926 62.796 58.2166 61.74C56.4406 60.684 55.0726 59.184 54.1126 57.24C53.1766 55.296 52.7086 52.98 52.7086 50.292C52.7086 47.604 53.1766 45.3 54.1126 43.38C55.0726 41.436 56.4406 39.936 58.2166 38.88C59.9926 37.824 62.1526 37.296 64.6966 37.296C66.4966 37.296 68.1046 37.572 69.5206 38.124C70.9366 38.676 72.1726 39.48 73.2286 40.536L72.1126 42.912C70.9606 41.904 69.8206 41.172 68.6926 40.716C67.5646 40.236 66.2446 39.996 64.7326 39.996C61.8286 39.996 59.6206 40.896 58.1086 42.696C56.5966 44.496 55.8406 47.028 55.8406 50.292C55.8406 53.556 56.5966 56.1 58.1086 57.924C59.6206 59.724 61.8286 60.624 64.7326 60.624C66.2446 60.624 67.5646 60.396 68.6926 59.94C69.8206 59.46 70.9606 58.704 72.1126 57.672L73.2286 60.084C72.1726 61.116 70.9366 61.92 69.5206 62.496C68.1046 63.048 66.4966 63.324 64.6966 63.324Z" fill="#F2E5D7"></path></svg> 