<svg width="592" height="563" viewBox="0 0 592 563" fill="none" xmlns="http://www.w3.org/2000/svg">
<g clip-path="url(#clip0_32_1201)">
<rect width="592" height="562.436" rx="15" fill="#161316"/>
<path d="M500.273 263.525C499.18 234.149 491.904 206.366 479.677 181.444C479.491 180.975 479.235 180.506 479.003 180.061C479.026 180.038 479.003 180.014 479.003 180.014C477.05 176.099 475.005 172.277 472.796 168.549C472.796 168.502 472.773 168.455 472.726 168.432C472.726 168.409 472.703 168.338 472.656 168.315C469.169 162.29 465.333 156.428 461.219 150.802C461.196 150.755 461.172 150.708 461.149 150.638C460.614 149.911 460.057 149.184 459.522 148.504V148.481C457.732 146.09 455.896 143.745 453.989 141.401C451.688 138.611 449.316 135.868 446.852 133.195C443.388 129.35 439.762 125.693 436.019 122.152L435.996 122.129C435.322 121.496 434.694 120.886 434.02 120.277C425.395 112.353 416.05 105.108 406.148 98.7306C405.45 98.2616 404.753 97.8166 404.056 97.3706C371.488 76.8796 332.783 65.1806 291.335 65.6266C178.869 66.7986 88.045 156.781 85.628 267.839C85.558 269.925 85.558 271.989 85.558 274.075C85.628 279.045 85.814 283.992 86.209 288.869L104.969 288.658C104.62 284.227 104.411 279.726 104.388 275.201C104.365 273.326 104.388 271.426 104.411 269.551C106.619 168.55 189.237 86.7506 291.498 85.6716C393.759 84.5926 477.678 164.682 481.49 265.612C481.56 267.488 481.606 269.387 481.629 271.262C481.651 275.557 481.328 284.503 481.359 284.735L499.994 284.532C500.319 279.632 500.459 274.708 500.412 269.738C500.389 267.652 500.342 265.589 500.273 263.525Z" fill="#FF4EB0"/>
<path d="M85.6379 289.496L85.5919 288.921C85.2299 284.449 85.0169 279.598 84.9399 274.085C84.9399 272.029 84.9399 269.915 85.0099 267.818C86.1839 213.872 108.12 163.177 146.779 125.084C185.52 86.9107 236.855 65.5757 291.328 65.0087C331.526 64.6467 370.595 75.5877 404.386 96.8477C405.089 97.2967 405.792 97.7467 406.495 98.2177C416.32 104.545 425.725 111.815 434.439 119.821C434.896 120.234 435.335 120.652 435.782 121.077L436.42 121.679C440.493 125.535 444.047 129.159 447.311 132.782C449.688 135.362 452.032 138.053 454.467 141.008C456.463 143.463 458.277 145.787 460.016 148.113L460.139 148.289C460.639 148.927 461.154 149.601 461.647 150.272L461.734 150.439C465.841 156.078 469.67 161.934 473.103 167.853L473.275 167.942L473.306 168.159C473.337 168.21 473.362 168.265 473.378 168.321C475.436 171.8 477.444 175.506 479.509 179.647L479.876 180.014L479.748 180.157C479.929 180.502 480.108 180.86 480.251 181.218C492.864 206.923 499.817 234.623 500.892 263.503V263.508C500.96 265.576 501.008 267.642 501.03 269.734C501.076 274.713 500.936 279.704 500.61 284.575L500.574 285.145L480.822 285.36L480.747 284.819C480.733 284.71 480.735 284.51 480.805 282C480.887 279.045 481.027 274.098 481.01 271.269C480.988 269.402 480.942 267.507 480.872 265.64C477.06 164.678 394.973 86.2777 293.579 86.2777C292.888 86.2777 292.197 86.2827 291.504 86.2897C189.163 87.3697 107.253 167.874 105.028 269.565L105.026 269.795C105.004 271.588 104.983 273.402 105.007 275.194C105.029 279.475 105.222 283.988 105.584 288.609L105.637 289.269L85.6379 289.496ZM293.611 66.2327C292.852 66.2327 292.101 66.2377 291.343 66.2447C178.77 67.4167 88.6799 155.976 86.2469 267.855C86.1769 269.935 86.1769 271.947 86.1769 274.076C86.2519 279.318 86.4479 283.962 86.7789 288.245L104.301 288.047C103.968 283.626 103.789 279.309 103.77 275.204C103.746 273.409 103.768 271.583 103.789 269.78L103.791 269.543C104.866 220.457 124.828 174.348 160.001 139.7C195.244 104.984 241.94 85.5767 291.49 85.0527C292.171 85.0457 292.86 85.0427 293.539 85.0427C342.337 85.0427 388.533 103.425 423.839 136.941C459.562 170.853 480.257 216.541 482.11 265.588C482.18 267.47 482.226 269.374 482.248 271.256C482.265 274.107 482.125 279.069 482.043 282.033C482.019 282.91 481.997 283.635 481.987 284.108L499.415 283.92C499.71 279.262 499.838 274.496 499.794 269.744C499.772 267.664 499.724 265.603 499.656 263.545C498.586 234.842 491.676 207.308 479.121 181.717C478.949 181.289 478.747 180.908 478.553 180.538L478.244 179.946L478.266 179.924C476.251 175.899 474.289 172.287 472.284 168.898L472.108 168.806V168.603C468.68 162.679 464.848 156.814 460.72 151.168C460.662 151.064 460.628 150.999 460.604 150.938C460.087 150.24 459.551 149.542 459.036 148.885L458.903 148.687C457.212 146.431 455.446 144.172 453.508 141.792C451.092 138.857 448.763 136.182 446.398 133.612C443.151 130.008 439.619 126.408 435.594 122.603L434.932 121.972C434.492 121.554 434.06 121.143 433.606 120.735C424.94 112.772 415.591 105.544 405.814 99.2507C405.111 98.7797 404.418 98.3347 403.724 97.8927C370.774 77.1597 332.741 66.2327 293.611 66.2327Z" fill="black"/>
<path d="M481.629 271.262C481.652 275.787 481.536 280.288 481.234 284.719L463.218 284.93C463.311 281.085 463.078 276.161 463.032 272.738C463.009 271.05 462.985 269.338 462.939 267.651C459.498 176.662 383.832 104.498 291.66 105.46C199.465 106.421 125.007 180.155 123.031 271.216C122.984 272.904 122.984 274.592 122.984 276.303C123.007 280.382 123.193 284.438 123.495 288.424L123.96 288.471L104.968 288.659C104.619 284.228 104.41 279.727 104.387 275.202C104.364 273.327 104.387 271.427 104.41 269.552C106.618 168.551 189.236 86.7519 291.497 85.6729C393.758 84.5939 477.677 164.683 481.489 265.613C481.559 267.488 481.606 269.387 481.629 271.262Z" fill="#00BE60"/>
<path d="M104.395 289.281L104.352 288.706C103.987 284.053 103.792 279.511 103.77 275.204C103.746 273.409 103.768 271.583 103.789 269.78L103.791 269.543C104.866 220.457 124.828 174.348 160.001 139.7C195.244 104.984 241.94 85.577 291.49 85.053C292.171 85.046 292.86 85.043 293.539 85.043C342.337 85.043 388.533 103.425 423.839 136.941C459.562 170.853 480.257 216.541 482.11 265.588C482.18 267.47 482.226 269.374 482.248 271.256V271.261C482.272 276.001 482.139 280.543 481.852 284.761L481.813 285.331L462.588 285.556L462.602 284.916C462.662 282.358 462.578 279.268 462.503 276.545C462.467 275.178 462.431 273.88 462.416 272.747C462.392 271.015 462.368 269.331 462.322 267.669C458.884 176.714 384.901 106.069 293.52 106.069C292.904 106.069 292.288 106.071 291.669 106.079C199.44 107.04 125.638 179.584 123.649 271.23C123.603 272.916 123.603 274.598 123.603 276.303C123.622 280.135 123.794 284.198 124.11 288.378L124 288.385L123.969 289.09L104.395 289.281ZM293.579 86.278C292.888 86.278 292.197 86.283 291.504 86.29C189.163 87.37 107.253 167.874 105.028 269.565L105.026 269.795C105.004 271.588 104.983 273.402 105.007 275.194C105.026 279.296 105.205 283.613 105.541 288.034L122.834 287.865C122.544 283.869 122.387 279.982 122.368 276.305C122.368 274.587 122.368 272.891 122.414 271.198C123.376 226.937 141.369 185.353 173.08 154.11C204.856 122.805 246.967 105.307 291.656 104.841C292.265 104.834 292.878 104.831 293.487 104.831C337.494 104.831 379.159 121.406 411.002 151.624C443.222 182.202 461.887 223.399 463.559 267.627C463.605 269.301 463.629 270.992 463.653 272.659C463.667 273.857 463.704 275.147 463.74 276.51C463.81 279.027 463.887 281.851 463.851 284.304L480.656 284.108C480.917 280.081 481.035 275.764 481.011 271.265C480.989 269.395 480.943 267.503 480.873 265.636C477.06 164.678 394.973 86.278 293.579 86.278Z" fill="black"/>
<path d="M463.032 272.739C463.079 276.819 462.962 280.898 462.706 284.884L445.992 285.048C446.225 281.578 446.341 278.085 446.318 274.568C446.295 273.091 446.271 271.637 446.202 270.137C443.11 191.292 374.58 128.74 291.056 129.608C207.485 130.499 139.978 194.433 138.165 273.372C138.118 274.849 138.118 276.326 138.118 277.78C138.165 281.344 138.327 284.814 138.606 288.283L123.496 288.424C123.194 284.438 123.008 280.382 122.985 276.303C122.985 274.592 122.985 272.903 123.032 271.216C125.008 180.156 199.466 106.421 291.661 105.46C383.833 104.499 459.499 176.662 462.94 267.652C462.986 269.34 463.009 271.051 463.032 272.739Z" fill="#DA7FFF"/>
<path d="M122.922 289.047L122.879 288.47C122.56 284.262 122.389 280.169 122.367 276.306C122.367 274.588 122.367 272.892 122.413 271.199C123.375 226.938 141.368 185.354 173.079 154.111C204.855 122.806 246.966 105.308 291.655 104.842C292.264 104.835 292.877 104.832 293.486 104.832C337.493 104.832 379.158 121.407 411.001 151.625C443.221 182.203 461.886 223.4 463.558 267.628C463.604 269.302 463.628 270.993 463.652 272.66V272.732C463.698 276.74 463.587 280.84 463.323 284.922L463.287 285.497L445.33 285.673L445.376 285.006C445.613 281.472 445.724 277.961 445.7 274.572L445.698 274.4C445.674 272.989 445.652 271.598 445.584 270.165C442.493 191.38 375.54 130.218 292.811 130.218C292.226 130.218 291.647 130.22 291.062 130.228C207.497 131.117 140.606 194 138.783 273.388C138.737 274.862 138.737 276.335 138.737 277.78C138.783 281.295 138.942 284.716 139.223 288.236L139.276 288.896L122.922 289.047ZM293.519 106.069C292.903 106.069 292.287 106.071 291.668 106.079C199.44 107.04 125.638 179.584 123.649 271.23C123.603 272.916 123.603 274.598 123.603 276.303C123.622 279.958 123.779 283.824 124.069 287.8L137.936 287.672C137.685 284.357 137.542 281.115 137.499 277.786C137.499 276.32 137.499 274.836 137.545 273.353C138.427 234.96 154.758 198.884 183.526 171.773C212.342 144.614 250.528 129.42 291.047 128.99C291.624 128.985 292.202 128.98 292.777 128.98C332.636 128.98 370.37 143.34 399.206 169.521C428.407 196.033 445.315 231.756 446.82 270.113C446.888 271.555 446.909 272.956 446.934 274.379L446.936 274.558C446.958 277.769 446.864 281.083 446.651 284.422L462.125 284.27C462.359 280.409 462.458 276.534 462.415 272.749V272.677C462.391 271.015 462.367 269.331 462.321 267.669C458.883 176.714 384.899 106.069 293.519 106.069Z" fill="black"/>
<path d="M446.308 274.576C446.339 278.081 446.223 281.588 445.995 285.055C445.995 285.076 445.995 285.076 445.995 285.096L425.973 285.297V285.276C426.168 282.304 426.252 279.334 426.225 276.303C426.214 275.025 426.184 273.726 426.136 272.469C424.518 231.411 402.534 195.445 369.555 173.354C347.427 158.526 320.375 149.939 291.209 150.242C269.933 150.457 249.843 155.402 232.052 163.992C189.054 184.698 159.372 226.722 158.254 275.255C158.229 276.534 158.222 277.812 158.233 279.111C158.241 282.142 158.378 285.11 158.626 288.076V288.097L138.604 288.299V288.278C138.315 284.817 138.155 281.334 138.124 277.787C138.111 276.323 138.116 274.839 138.159 273.374C139.984 194.438 207.491 130.487 291.045 129.601C374.58 128.736 443.117 191.281 446.195 270.142C446.263 271.628 446.294 273.092 446.308 274.576Z" fill="#FFD700"/>
<path d="M137.985 288.926V288.3C137.698 284.848 137.536 281.301 137.504 277.793C137.492 276.322 137.497 274.831 137.54 273.355C138.427 234.964 154.76 198.886 183.528 171.77C212.347 144.608 250.527 129.413 291.037 128.985C331.602 128.577 369.956 142.961 399.208 169.518C428.409 196.03 445.315 231.758 446.813 270.12C446.881 271.606 446.912 273.077 446.927 274.57C446.956 277.904 446.85 281.446 446.611 285.096L446.688 285.775L446.004 285.715L425.356 285.923V285.297C425.552 282.246 425.634 279.325 425.607 276.31C425.595 275.037 425.566 273.744 425.518 272.493C423.95 232.735 403.427 196.789 369.214 173.87C346.72 158.797 320.295 150.854 292.706 150.854C292.211 150.854 291.715 150.856 291.218 150.861C270.516 151.071 250.701 155.676 232.322 164.552C188.102 185.845 159.957 228.273 158.875 275.271C158.848 276.542 158.844 277.815 158.853 279.107C158.863 282.05 158.991 284.965 159.244 288.026L159.3 288.688L158.636 288.717L137.985 288.926ZM292.792 130.213C292.212 130.213 291.632 130.215 291.053 130.223C207.5 131.107 140.612 193.992 138.778 273.39C138.735 274.852 138.73 276.328 138.742 277.784C138.771 281.074 138.916 284.401 139.177 287.677L157.96 287.489C157.738 284.643 157.624 281.889 157.615 279.116C157.605 277.811 157.61 276.529 157.637 275.246C158.731 227.777 187.142 184.936 231.785 163.437C250.327 154.484 270.318 149.836 291.203 149.625C291.706 149.62 292.208 149.618 292.708 149.618C320.544 149.618 347.203 157.634 369.902 172.842C404.449 195.984 425.17 232.289 426.755 272.446C426.803 273.712 426.832 275.014 426.844 276.302C426.868 279.129 426.798 281.875 426.631 284.673L445.422 284.485C445.627 280.975 445.719 277.687 445.69 274.585C445.676 273.109 445.644 271.652 445.576 270.176C442.501 191.38 375.545 130.213 292.792 130.213Z" fill="black"/>
<path d="M312.437 496.398C310.56 496.729 308.504 496.654 306.3 496.074C300.532 494.558 295.308 490.422 291.837 485.651C285.486 476.923 282.001 465.806 280.811 455.166C278.789 437.091 283.648 419.005 291.049 402.637C293.342 397.567 295.784 392.563 298.357 387.63C299.156 386.098 300.576 383.751 301.598 381.614C300.429 394.336 299.445 407.219 300.982 419.954C302.823 435.209 310.261 447.011 317.625 460.04C323.519 470.468 330.597 493.202 312.437 496.398Z" fill="#00BE60"/>
<path d="M310.167 497.211C308.858 497.211 307.512 497.032 306.145 496.672C300.603 495.215 295.206 491.333 291.338 486.016C285.472 477.954 281.517 467.025 280.198 455.233C278.405 439.223 281.867 421.44 290.487 402.383C292.746 397.389 295.21 392.331 297.809 387.347C298.106 386.777 298.488 386.098 298.901 385.359C299.604 384.103 300.404 382.68 301.041 381.346L302.529 378.239L302.215 381.67C301.024 394.631 300.079 407.307 301.597 419.882C303.252 433.594 309.499 444.541 316.114 456.13C316.795 457.323 317.479 458.527 318.165 459.737C322.023 466.564 327.411 480.54 323.13 489.609C321.238 493.615 317.677 496.103 312.544 497.006C311.768 497.144 310.974 497.211 310.167 497.211ZM300.704 384.668C300.458 385.113 300.214 385.547 299.982 385.963C299.574 386.69 299.199 387.359 298.907 387.917C296.317 392.882 293.863 397.919 291.613 402.893C283.087 421.744 279.659 439.307 281.425 455.098C282.722 466.677 286.597 477.399 292.337 485.287C296.041 490.38 301.189 494.093 306.458 495.475C308.497 496.014 310.473 496.113 312.331 495.789C317.044 494.958 320.301 492.702 322.011 489.083C326.084 480.454 320.571 466.512 317.087 460.346C316.403 459.136 315.72 457.937 315.038 456.744C308.361 445.044 302.053 433.991 300.369 420.032C298.959 408.346 299.65 396.619 300.704 384.668Z" fill="black"/>
<path d="M309.28 490.61C308.065 488.243 310.593 487.125 312.248 486.108C312.188 486.148 312.175 486.157 312.132 486.185C313.874 484.92 314.868 482.924 315.186 480.826C315.414 478.885 315.09 475.71 317.892 475.785C319.204 475.885 320.264 476.925 320.229 478.28C320.343 483.764 317.741 489.256 312.566 491.556C311.44 492.127 309.874 491.808 309.28 490.61Z" fill="white"/>
<path d="M180.681 460.217C179.144 460.135 177.541 459.701 175.913 458.844C171.653 456.6 168.298 452.395 166.437 448.011C163.032 439.989 162.317 430.61 163.32 422.025C165.024 407.44 172.141 394.101 180.945 382.577C183.672 379.007 186.504 375.517 189.428 372.106C190.335 371.047 191.88 369.459 193.073 367.965C189.835 377.758 186.714 387.711 185.602 398.007C184.27 410.34 187.969 420.979 191.387 432.567C194.122 441.843 195.546 461.013 180.681 460.217Z" fill="#FFD700"/>
<path d="M181.565 460.861C181.263 460.861 180.959 460.851 180.647 460.837C178.963 460.745 177.272 460.26 175.624 459.392C171.507 457.225 167.951 453.164 165.866 448.252C162.716 440.826 161.592 431.486 162.706 421.953C164.216 409.011 170.188 395.637 180.453 382.202C183.115 378.714 185.978 375.181 188.959 371.703C189.302 371.302 189.739 370.821 190.213 370.302C190.984 369.454 191.858 368.495 192.59 367.579L194.74 364.895L193.66 368.159C190.362 378.127 187.311 387.914 186.217 398.072C185.021 409.141 187.94 418.882 191.027 429.196L191.981 432.395C193.776 438.488 195.472 450.509 190.42 456.902C188.344 459.53 185.365 460.861 181.565 460.861ZM191.526 370.696C191.393 370.846 191.258 370.991 191.127 371.133C190.663 371.645 190.236 372.114 189.9 372.508C186.933 375.97 184.087 379.483 181.435 382.952C171.308 396.21 165.42 409.379 163.934 422.099C162.847 431.422 163.936 440.537 167.007 447.77C168.952 452.355 172.39 456.291 176.199 458.296C177.69 459.081 179.209 459.521 180.714 459.601C184.495 459.826 187.471 458.639 189.45 456.134C194.197 450.128 192.405 438.208 190.793 432.744L189.844 429.553C186.718 419.116 183.766 409.26 184.986 397.944C185.989 388.66 188.588 379.726 191.526 370.696Z" fill="black"/>
<path d="M181.087 452.499L181.086 452.5C180.963 452.558 180.72 452.637 181.087 452.499Z" fill="white"/>
<path d="M178.037 455.46C177.617 453.168 179.599 453.076 181.192 452.459C181.138 452.479 181.126 452.484 181.087 452.499C182.687 451.821 183.833 450.433 184.465 448.841C185.05 447.316 185.233 444.839 187.512 445.368C188.526 445.686 189.17 446.697 188.896 447.756C187.986 452.089 184.939 455.936 180.45 456.801C179.46 457.046 178.286 456.511 178.037 455.46Z" fill="white"/>
<path d="M420.189 467.052C421.728 467.033 423.347 466.666 425.009 465.877C429.358 463.811 432.883 459.748 434.923 455.444C438.655 447.569 439.756 438.228 439.108 429.609C438.007 414.966 431.445 401.345 423.124 389.468C420.546 385.789 417.86 382.185 415.08 378.656C414.217 377.561 412.739 375.911 411.608 374.369C414.44 384.287 417.148 394.36 417.834 404.694C418.656 417.072 414.522 427.548 410.63 438.987C407.516 448.139 405.303 467.235 420.189 467.052Z" fill="#FF4EB0"/>
<path d="M419.978 467.674C415.837 467.674 412.682 466.215 410.595 463.338C405.812 456.745 407.998 444.803 410.047 438.788L411.137 435.614C414.645 425.443 417.957 415.835 417.22 404.734C416.541 394.544 413.898 384.636 411.016 374.538L410.069 371.221L412.108 374.004C412.806 374.953 413.644 375.956 414.386 376.838C414.833 377.372 415.244 377.862 415.567 378.275C418.379 381.841 421.095 385.489 423.634 389.113C433.334 402.961 438.75 416.572 439.726 429.564C440.446 439.131 438.938 448.417 435.481 455.711C433.198 460.531 429.478 464.44 425.276 466.435C423.595 467.235 421.884 467.65 420.195 467.672C420.123 467.671 420.05 467.674 419.978 467.674ZM413.042 377.161C415.605 386.307 417.835 395.343 418.451 404.651C419.207 416.003 415.854 425.722 412.305 436.016L411.215 439.183C409.381 444.578 407.098 456.413 411.594 462.61C413.435 465.149 416.257 466.437 419.979 466.437C420.047 466.437 420.112 466.435 420.18 466.435C421.69 466.416 423.224 466.041 424.744 465.319C428.636 463.471 432.231 459.68 434.364 455.18C437.729 448.08 439.196 439.015 438.493 429.656C437.531 416.888 432.192 403.487 422.618 389.823C420.093 386.219 417.392 382.59 414.595 379.039C414.276 378.636 413.875 378.155 413.435 377.633C413.307 377.477 413.177 377.32 413.042 377.161Z" fill="black"/>
<path d="M422.646 462.7C423.255 460.64 421.082 460.13 419.617 459.572C419.67 459.594 419.682 459.6 419.721 459.616C418.15 458.873 417.063 457.439 416.496 455.822C416.024 454.315 415.807 451.748 413.595 452.226C412.569 452.502 411.884 453.486 412.115 454.555C412.845 458.922 415.732 462.891 420.181 463.941C421.159 464.225 422.354 463.739 422.646 462.7Z" fill="white"/>
<path d="M245.652 464.959C237.066 466.236 236.068 467.318 234.775 476.756C233.628 467.299 232.648 466.203 224.083 464.792C232.669 463.515 233.667 462.433 234.96 452.996C236.106 462.451 237.086 463.548 245.652 464.959Z" fill="#3850DB"/>
<path d="M234.738 481.582L234.161 476.83C233.042 467.623 232.281 466.768 223.981 465.403L220.089 464.76L223.991 464.18C232.314 462.941 233.087 462.098 234.345 452.91L234.995 448.165L235.572 452.919C236.691 462.126 237.452 462.979 245.752 464.346L249.644 464.989L245.742 465.569C237.419 466.808 236.646 467.651 235.388 476.839L234.738 481.582ZM227.517 464.818C232.313 465.929 233.849 467.56 234.806 472.691C235.84 467.574 237.403 465.97 242.215 464.931C237.422 463.82 235.883 462.189 234.926 457.058C233.893 462.173 232.33 463.779 227.517 464.818Z" fill="black"/>
<path d="M132.986 402.225C120.631 401.849 118.96 403.113 114.767 416.012C115.546 402.47 114.449 400.686 102.801 396.548C115.156 396.924 116.827 395.66 121.02 382.761C120.241 396.303 121.339 398.087 132.986 402.225Z" fill="#3850DB"/>
<path d="M113.872 420.76L114.147 415.977C114.91 402.748 113.939 401.163 102.592 397.131L98.874 395.81L102.819 395.931C114.85 396.293 116.333 395.177 120.433 382.571L121.914 378.015L121.639 382.798C120.876 396.027 121.847 397.612 133.194 401.644L136.912 402.965L132.967 402.844C120.941 402.486 119.453 403.6 115.353 416.204L113.872 420.76ZM106.349 397.215C114.031 400.295 115.73 402.924 115.561 411.783C118.624 403.468 121.161 401.636 129.438 401.559C121.756 398.479 120.057 395.85 120.226 386.991C117.163 395.306 114.626 397.137 106.349 397.215Z" fill="black"/>
<path d="M455.994 401.688C468.262 403.204 469.72 404.708 471.893 418.097C473.192 404.595 474.549 402.999 486.692 400.689C474.424 399.174 472.966 397.669 470.793 384.28C469.494 397.782 468.137 399.379 455.994 401.688Z" fill="#3850DB"/>
<path d="M472.049 422.924L471.281 418.196C469.16 405.114 467.867 403.778 455.918 402.302L452 401.819L455.877 401.082C467.705 398.833 468.906 397.412 470.177 384.219L470.636 379.455L471.404 384.18C473.528 397.262 474.82 398.598 486.767 400.074L490.686 400.557L486.809 401.294C474.981 403.546 473.778 404.964 472.509 418.157L472.049 422.924ZM459.605 401.571C467.771 402.912 469.998 405.11 471.752 413.795C472.941 405.013 475.021 402.675 483.082 400.807C474.914 399.466 472.689 397.268 470.933 388.58C469.744 397.365 467.667 399.703 459.605 401.571Z" fill="black"/>
<path d="M369.735 434.879C360.323 435.442 359.141 436.518 356.842 446.605C356.503 436.264 355.547 434.984 346.414 432.641C355.826 432.078 357.008 431.003 359.307 420.915C359.646 431.256 360.602 432.537 369.735 434.879Z" fill="#3850DB"/>
<path d="M356.38 451.414L356.223 446.626C355.892 436.52 355.148 435.52 346.26 433.242L342.438 432.261L346.378 432.024C355.537 431.476 356.457 430.635 358.704 420.778L359.769 416.111L359.926 420.897C360.257 431 361.001 432 369.889 434.281L373.711 435.262L369.771 435.499C360.612 436.045 359.692 436.886 357.445 446.745L356.38 451.414ZM349.881 432.973C355.203 434.671 356.708 436.58 357.235 442.499C358.88 436.79 360.719 435.201 366.268 434.546C360.946 432.848 359.443 430.939 358.914 425.023C357.269 430.729 355.43 432.319 349.881 432.973Z" fill="black"/>
<path d="M508.314 261.579C507.715 261.579 507.132 261.64 506.539 261.663C505.442 240.118 484.025 222.917 457.688 222.917C438.383 222.917 421.738 232.176 413.767 245.594C409.44 224.603 385.058 208.525 355.628 208.525C332.053 208.525 311.728 218.846 302.345 233.741C293.167 218.466 272.577 207.815 248.63 207.815C223.908 207.815 202.763 219.165 194.06 235.237C183.921 227.934 170.115 223.433 154.887 223.433C130.448 223.433 109.65 235.012 101.851 251.196C96.325 248.774 90.186 247.382 83.686 247.382C59.9 247.382 40.618 265.498 40.618 287.846C40.618 310.194 59.9 328.31 83.686 328.31C88.905 328.31 93.885 327.394 98.514 325.796C98.513 325.926 98.49 326.051 98.49 326.18C98.49 348.528 120.408 366.644 147.445 366.644C166.75 366.644 183.396 357.385 191.366 343.967C195.693 364.958 220.075 381.035 249.504 381.035C273.079 381.035 293.404 370.714 302.787 355.819C311.964 371.094 332.554 381.745 356.501 381.745C381.223 381.745 402.368 370.395 411.07 354.323C421.209 361.626 435.015 366.127 450.243 366.127C472.849 366.127 492.333 356.218 501.304 341.925C503.589 342.277 505.918 342.507 508.309 342.507C532.095 342.507 551.378 324.391 551.378 302.043C551.378 279.695 532.099 261.579 508.314 261.579Z" fill="white"/>
<path d="M356.505 382.361C333.537 382.361 312.584 372.427 302.778 356.975C292.796 371.994 272.022 381.651 249.506 381.651C220.629 381.651 196.379 366.566 191.1 345.57C182.434 358.985 165.864 367.26 147.448 367.26C120.306 367.26 98.188 349.093 97.877 326.659C93.246 328.164 88.477 328.928 83.689 328.928C59.598 328.927 40 310.499 40 287.845C40 265.191 59.598 246.763 83.689 246.763C89.857 246.763 95.865 247.983 101.557 250.394C109.856 233.872 131.192 222.814 154.89 222.814C169.45 222.814 183.257 226.899 193.856 234.33C203.172 217.825 224.576 207.195 248.633 207.195C271.601 207.195 292.554 217.129 302.36 232.583C312.34 217.561 333.114 207.905 355.63 207.905C384.507 207.905 408.757 222.99 414.036 243.988C422.704 230.568 439.275 222.296 457.688 222.296C484.055 222.296 505.626 239.251 507.119 261.01L507.165 261.008C507.547 260.984 507.928 260.96 508.315 260.96C532.404 260.96 552.001 279.388 552.001 302.042C552.001 324.696 532.403 343.124 508.315 343.124C506.237 343.124 504.044 342.95 501.616 342.595C492.184 357.279 472.077 366.744 450.247 366.744C435.691 366.744 421.885 362.659 411.281 355.228C401.967 371.734 380.563 382.361 356.505 382.361ZM302.803 354.639L303.32 355.499C312.674 371.067 333.55 381.124 356.505 381.124C380.412 381.124 401.617 370.487 410.531 354.028L410.864 353.41L411.437 353.821C421.903 361.359 435.685 365.509 450.246 365.509C471.829 365.509 491.666 356.123 500.784 341.597L501.001 341.252L501.402 341.315C503.927 341.702 506.188 341.89 508.314 341.89C531.721 341.89 550.763 324.015 550.763 302.045C550.763 280.075 531.721 262.2 508.314 262.2C507.954 262.2 507.599 262.224 507.244 262.246C507.019 262.26 506.792 262.275 506.563 262.285L505.952 262.309L505.921 261.698C504.831 240.298 483.647 223.537 457.688 223.537C439.124 223.537 422.498 232.111 414.299 245.913L413.485 247.285L413.161 245.722C408.863 224.871 384.129 209.146 355.629 209.146C333.116 209.146 312.407 218.93 302.871 234.073L302.335 234.926L301.818 234.064C292.464 218.496 271.588 208.436 248.633 208.436C224.728 208.436 203.519 219.073 194.604 235.535L194.271 236.153L193.698 235.742C183.237 228.204 169.455 224.054 154.889 224.054C131.402 224.054 110.311 235.07 102.409 251.464L102.148 252.003L101.602 251.761C95.908 249.268 89.88 248.002 83.688 248.002C60.281 248.002 41.236 265.877 41.236 287.847C41.236 309.817 60.28 327.692 83.688 327.692C88.626 327.692 93.547 326.856 98.311 325.211L99.132 324.928V325.795C99.132 325.877 99.125 325.959 99.12 326.041C99.11 348.149 120.795 366.024 147.447 366.024C166.013 366.024 182.639 357.452 190.836 343.651L191.65 342.279L191.974 343.842C196.272 364.693 221.006 380.416 249.506 380.416C272.017 380.416 292.728 370.632 302.266 355.491L302.803 354.639Z" fill="black"/>
<path d="M314.327 230.211C314.327 238.937 309.118 246.01 302.692 246.01C296.266 246.01 291.057 238.936 291.057 230.211C291.057 221.485 296.266 214.411 302.692 214.411C309.118 214.412 314.327 221.485 314.327 230.211Z" fill="#FF4414"/>
<path d="M302.692 246.63C295.935 246.63 290.439 239.264 290.439 230.212C290.439 221.16 295.935 213.794 302.692 213.794C309.449 213.794 314.945 221.16 314.945 230.212C314.945 239.264 309.449 246.63 302.692 246.63ZM302.692 215.031C296.619 215.031 291.676 221.841 291.676 230.212C291.676 238.583 296.619 245.393 302.692 245.393C308.765 245.393 313.708 238.583 313.708 230.212C313.708 221.841 308.765 215.031 302.692 215.031Z" fill="black"/>
<path d="M352.085 295.581C352.022 295.635 351.96 295.661 351.897 295.715C330.827 309.355 303.014 312.47 278.026 306.348C269.122 304.171 259.403 300.536 250.881 295.5C237.575 287.692 227.225 276.46 227.621 262.001C228.032 248.606 239.651 244.927 253.07 244.986C269.342 245.073 284.776 250.547 300.913 251.666C317.843 252.84 333.022 245.135 349.767 245.718C361.296 246.12 375.525 251.656 376.464 263.226C377.554 276.66 363.184 288.368 352.085 295.581Z" fill="black"/>
<path d="M302.791 309.96C294.519 309.96 286.124 308.97 277.879 306.95C268.16 304.573 258.46 300.695 250.568 296.03C239.571 289.577 226.554 278.433 227.004 261.983C227.362 250.293 236.03 244.366 252.764 244.366C252.868 244.366 252.969 244.366 253.073 244.366C262.128 244.414 271.045 246.144 279.667 247.816C286.603 249.159 293.778 250.551 300.958 251.051C309.645 251.638 318.019 249.86 326.129 248.128C333.753 246.5 341.639 244.806 349.79 245.099C362.659 245.551 376.166 251.905 377.08 263.177C377.945 273.824 369.661 284.893 352.46 296.074L352.322 296.171C338.336 305.23 320.862 309.96 302.791 309.96ZM252.766 245.603C236.826 245.603 228.573 251.126 228.24 262.019C227.805 277.862 240.484 288.681 251.196 294.964C258.987 299.571 268.569 303.398 278.174 305.746C304.101 312.105 331.541 308.157 351.561 295.196L351.749 295.061C368.563 284.139 376.671 273.444 375.847 263.278C374.992 252.725 362.069 246.766 349.746 246.336C341.745 246.046 333.937 247.728 326.387 249.339C318.19 251.091 309.708 252.898 300.871 252.284C293.616 251.781 286.405 250.383 279.43 249.03C270.863 247.37 262.004 245.653 253.068 245.604C252.966 245.603 252.865 245.603 252.766 245.603Z" fill="black"/>
<path d="M352.085 295.581C352.022 295.635 351.96 295.661 351.897 295.715C330.827 309.355 303.014 312.47 278.026 306.348C269.122 304.171 259.403 300.537 250.881 295.501C260.988 283.039 279.787 274.633 301.339 274.646C322.983 274.634 341.878 283.042 352.085 295.581Z" fill="#3850DB"/>
<path d="M302.791 309.96C294.519 309.96 286.124 308.97 277.879 306.95C268.16 304.573 258.46 300.695 250.568 296.03L249.95 295.665L250.402 295.109C260.95 282.104 280.446 274.028 301.287 274.028C301.326 274.028 301.357 274.028 301.396 274.028C322.334 274.028 341.937 282.133 352.567 295.189L352.941 295.65L352.323 296.169C338.336 305.23 320.862 309.96 302.791 309.96ZM251.821 295.332C259.496 299.772 268.824 303.461 278.173 305.747C303.931 312.065 331.184 308.206 351.171 295.448C340.676 282.98 321.685 275.266 301.392 275.266C301.358 275.264 301.32 275.264 301.286 275.266C281.106 275.265 262.241 282.936 251.821 295.332Z" fill="black"/>
<path d="M382.912 212.363C382.962 222.772 381.746 232.553 379.565 241.063C376.626 239.599 373.352 238.33 369.822 237.374C366.682 236.495 363.358 235.834 359.9 235.447C358.48 235.267 357.023 235.135 355.532 235.072C349.094 234.731 342.963 235.316 337.518 236.628C334.597 237.31 331.894 238.2 329.407 239.297C327.427 231.201 326.282 222.009 326.255 212.283C326.21 202.582 327.251 193.426 329.144 185.318C329.141 185.297 329.16 185.273 329.178 185.249C333.767 165.837 343.247 152.595 354.3 152.591C369.934 152.634 382.73 179.378 382.912 212.363Z" fill="white"/>
<path d="M379.973 241.956L379.289 241.615C376.262 240.108 373.022 238.88 369.659 237.969C366.456 237.073 363.151 236.43 359.831 236.058C358.309 235.867 356.896 235.746 355.504 235.688C349.368 235.364 343.193 235.896 337.663 237.227C334.798 237.894 332.106 238.78 329.654 239.86L328.98 240.157L328.804 239.442C326.758 231.069 325.663 221.678 325.634 212.283C325.591 202.789 326.559 193.717 328.509 185.315L328.48 185.185L328.598 185.001C333.439 164.628 343.282 151.974 354.298 151.971C370.233 152.014 383.344 179.104 383.53 212.358C383.576 222.456 382.411 232.436 380.162 241.216L379.973 241.956ZM351.99 234.359C353.181 234.359 354.372 234.39 355.566 234.453C356.984 234.513 358.429 234.637 359.977 234.832C363.354 235.209 366.725 235.864 369.988 236.777C373.172 237.639 376.252 238.782 379.151 240.171C381.253 231.674 382.34 222.079 382.294 212.364C382.113 179.788 369.553 153.253 354.296 153.209C343.867 153.211 334.471 165.542 329.777 185.391L329.729 185.538C327.789 193.863 326.83 202.857 326.871 212.279C326.898 221.314 327.922 230.34 329.835 238.438C332.171 237.457 334.703 236.648 337.377 236.025C341.943 234.924 346.936 234.359 351.99 234.359Z" fill="black"/>
<path d="M376.318 174.331L375.729 173.244C383.097 169.251 382.52 158.309 382.513 158.2L383.75 158.123C383.778 158.604 384.385 169.959 376.318 174.331Z" fill="black"/>
<path d="M379.961 184.911L379.802 183.684C388.591 182.534 390.454 170.774 390.473 170.655L391.695 170.839C391.618 171.36 389.683 183.64 379.961 184.911Z" fill="black"/>
<path d="M382.401 201.259L382.213 200.037C391.038 198.674 393.203 188.453 393.225 188.349L394.438 188.593C394.415 188.706 392.086 199.763 382.401 201.259Z" fill="black"/>
<path d="M370.752 194.793L351.037 201.639L371.198 208.823C371.136 210.334 371.091 211.822 370.99 213.36C370.578 220.63 370.876 230.491 369.823 237.373C366.683 236.494 363.359 235.833 359.901 235.446C358.481 235.266 357.024 235.134 355.533 235.071C349.095 234.73 342.964 235.315 337.519 236.627C336.116 228.907 335.452 220.338 335.733 211.368C336.021 201.451 337.379 192.125 339.556 183.916C339.553 183.895 339.551 183.874 339.569 183.85C343.658 171.676 349.467 163.724 355.464 163.585C363.259 163.448 369.136 176.383 370.752 194.793Z" fill="black"/>
<path d="M370.327 238.156L369.655 237.97C366.456 237.074 363.151 236.431 359.832 236.059C358.31 235.868 356.897 235.747 355.505 235.689C349.369 235.365 343.194 235.897 337.664 237.228L337.029 237.38L336.911 236.737C335.445 228.67 334.841 220.128 335.114 211.346C335.397 201.627 336.679 192.386 338.929 183.875L338.91 183.73L339.007 183.583C343.372 170.619 349.364 163.106 355.449 162.966C355.492 162.966 355.538 162.966 355.582 162.966C363.484 162.966 369.674 175.405 371.37 194.74L371.411 195.218L352.901 201.644L371.834 208.392L371.781 209.759C371.735 210.965 371.689 212.168 371.607 213.4C371.464 215.927 371.409 218.741 371.351 221.72C371.24 227.243 371.126 232.951 370.435 237.467L370.327 238.156ZM351.99 234.359C353.181 234.359 354.372 234.39 355.566 234.453C356.984 234.513 358.429 234.637 359.977 234.832C363.12 235.182 366.258 235.774 369.309 236.593C369.901 232.269 370.007 226.898 370.111 221.697C370.169 218.706 370.227 215.882 370.369 213.326C370.451 212.099 370.497 210.908 370.543 209.712L370.56 209.253L349.172 201.631L370.091 194.369C368.422 176.274 362.619 164.204 355.581 164.204C355.542 164.204 355.509 164.204 355.472 164.204C350.019 164.33 344.301 171.722 340.175 183.983L340.151 184.075C337.909 192.526 336.629 201.716 336.348 211.384C336.082 219.847 336.643 228.085 338.01 235.876C342.406 234.873 347.171 234.359 351.99 234.359Z" fill="black"/>
<path d="M363.853 181.289C356.355 182.85 355.529 183.865 354.846 192.356C353.38 183.968 352.463 183.037 344.853 182.197C352.351 180.636 353.177 179.621 353.86 171.13C355.327 179.518 356.244 180.449 363.853 181.289Z" fill="white"/>
<path d="M365.703 214.879C360.541 214.937 359.865 215.501 358.339 221.034C358.429 215.289 357.94 214.554 353.008 213.007C358.17 212.949 358.846 212.385 360.372 206.852C360.282 212.596 360.771 213.332 365.703 214.879Z" fill="white"/>
<path d="M278.79 211.446C279.145 221.318 278.295 230.711 276.557 239.015C273.455 237.795 269.994 236.862 266.288 236.244C263.859 235.812 261.32 235.547 258.689 235.425C258.335 235.405 257.962 235.409 257.586 235.391C254.893 235.298 252.131 235.346 249.328 235.595C243.35 236.097 237.683 237.303 232.659 239.06C231.711 239.378 230.791 239.736 229.892 240.091L229.87 240.094C229.201 240.354 228.577 240.631 227.954 240.907C226.812 241.425 225.714 241.936 224.645 242.51C224.566 242.236 224.486 241.962 224.407 241.689C224.396 241.603 224.366 241.541 224.355 241.455C224.301 241.375 224.29 241.289 224.276 241.181C221.888 232.924 220.359 223.486 220.028 213.458C219.989 212.48 219.97 211.478 219.955 210.518C219.976 210.341 219.956 210.19 219.978 210.013C219.978 209.336 219.979 208.659 219.981 208.003C219.972 207.087 219.988 206.189 220.006 205.313C220.036 204.02 220.116 202.765 220.173 201.512C220.189 201.466 220.183 201.423 220.197 201.356C220.256 200.453 220.315 199.55 220.398 198.665C220.618 195.95 220.935 193.31 221.337 190.812C221.48 189.876 221.644 188.938 221.83 187.997C221.997 187.08 222.188 186.182 222.383 185.305C222.534 184.608 222.692 183.955 222.87 183.299C222.971 182.893 223.07 182.465 223.193 182.056C223.287 181.76 223.377 181.443 223.468 181.125C223.502 180.88 223.585 180.673 223.641 180.426C224.23 178.188 224.895 176.028 225.623 174.012C225.645 174.009 225.642 173.988 225.642 173.988C230.576 160.665 238.335 152.027 247.325 151.707C263.538 151.162 277.636 177.91 278.79 211.446Z" fill="white"/>
<path d="M224.263 243.417L223.814 241.864C223.792 241.775 223.778 241.714 223.768 241.668C223.698 241.516 223.679 241.376 223.662 241.267C221.207 232.792 219.729 223.153 219.41 213.477C219.214 208.518 219.381 203.552 219.784 198.607C220.004 195.901 220.32 193.244 220.726 190.712C221.024 188.856 221.369 187.005 221.779 185.17C222.619 181.335 223.71 177.494 225.04 173.801L225.187 173.436C230.41 159.542 238.457 151.403 247.302 151.087C263.868 150.473 278.242 177.596 279.406 211.423C279.747 220.915 278.971 230.501 277.162 239.14L277.01 239.858L276.329 239.59C273.273 238.389 269.859 237.466 266.187 236.855C263.844 236.437 261.314 236.164 258.659 236.043C258.461 236.031 258.268 236.026 258.072 236.024L257.557 236.01C254.716 235.909 251.967 235.979 249.382 236.213C243.526 236.706 237.969 237.861 232.86 239.646C231.918 239.96 231.007 240.315 230.118 240.666C229.471 240.912 228.891 241.171 228.311 241.425C227.154 241.949 226.026 242.471 224.936 243.058L224.263 243.417ZM220.813 201.602C220.578 205.54 220.516 209.491 220.647 213.434C220.963 223.011 222.423 232.546 224.87 241.011L224.979 241.294L224.969 241.371C224.996 241.47 225.01 241.53 225.025 241.615C225.929 241.154 226.839 240.733 227.699 240.344C228.409 240.03 229.008 239.767 229.649 239.518C230.574 239.156 231.504 238.796 232.463 238.474C237.66 236.657 243.32 235.481 249.277 234.981C251.91 234.747 254.71 234.677 257.607 234.773L258.097 234.787C258.312 234.792 258.522 234.794 258.728 234.806C261.424 234.932 264.009 235.209 266.398 235.635C269.879 236.217 273.138 237.07 276.098 238.177C277.784 229.818 278.499 220.602 278.171 211.467C277.04 178.652 263.473 152.317 247.813 152.317C247.658 152.317 247.501 152.319 247.347 152.324C238.988 152.624 231.313 160.543 226.273 174.064L226.08 174.569C225.825 175.308 224.988 177.917 224.867 178.33C223.668 182.418 222.602 186.654 221.949 190.905C221.548 193.408 221.234 196.034 221.016 198.716C220.938 199.677 220.87 200.639 220.813 201.602Z" fill="black"/>
<path d="M225.358 174.566C216.828 170.401 217.004 158.844 217.016 158.353L218.253 158.382C218.251 158.493 218.089 169.64 225.899 173.455L225.358 174.566Z" fill="black"/>
<path d="M221.99 185.436C211.877 184.477 209.307 171.675 209.283 171.545L210.496 171.313C210.52 171.431 212.922 183.334 222.107 184.204L221.99 185.436Z" fill="black"/>
<path d="M220.11 202.138C210.024 200.949 207.175 189.8 207.146 189.687L208.349 189.392C208.373 189.496 211.028 199.824 220.254 200.911L220.11 202.138Z" fill="black"/>
<path d="M245.955 202.059L267.42 206.784C267.512 208.345 267.586 209.93 267.64 211.54C267.872 218.937 267.198 229.007 266.289 236.244C263.86 235.812 261.321 235.547 258.69 235.425C258.336 235.405 257.963 235.409 257.587 235.391C254.894 235.298 252.132 235.346 249.329 235.595C243.351 236.097 237.684 237.303 232.66 239.06C231.122 230.912 229.578 221.018 229.576 211.668C229.559 210.687 229.582 209.679 229.611 208.714C229.629 208.515 229.631 208.362 229.652 208.185C229.674 207.505 229.696 206.825 229.718 206.145C229.753 205.223 229.79 204.323 229.849 203.42C229.923 202.122 230.042 200.839 230.143 199.581C230.159 199.535 230.153 199.492 230.166 199.425C230.247 198.519 230.346 197.589 230.473 196.699C230.777 193.952 231.181 191.3 231.69 188.789C231.852 187.829 232.059 186.885 232.266 185.941C232.476 185.019 232.69 184.118 232.927 183.235C233.078 182.538 233.257 181.882 233.458 181.223C233.581 180.814 233.701 180.384 233.827 179.996C233.995 179.428 234.188 178.879 234.34 178.358C237.476 168.804 241.935 162.51 247.039 161.705C251.005 161.11 254.822 163.942 258.018 169.279C261.327 174.645 264.008 182.624 265.708 192.193L265.503 192.307L245.955 202.059Z" fill="black"/>
<path d="M232.185 239.883L232.05 239.175C230.724 232.133 228.958 221.619 228.958 211.668C228.941 210.687 228.963 209.67 228.992 208.696C229.209 205.971 229.217 203.237 229.446 200.511L229.528 199.53L229.55 199.371C229.632 198.455 229.734 197.513 229.862 196.612C230.555 190.307 231.979 184.261 233.747 178.184C237.1 167.97 241.785 161.908 246.942 161.094C251.114 160.466 255.098 163.198 258.548 168.962C261.911 174.412 264.597 182.411 266.317 192.084L266.394 192.519L265.802 192.848L247.797 201.833L268.011 206.283L268.04 206.749C268.132 208.314 268.204 209.904 268.26 211.518C268.502 219.261 267.755 229.555 266.905 236.322L266.823 236.967L266.183 236.853C263.847 236.437 261.317 236.164 258.662 236.044C258.464 236.032 258.271 236.027 258.075 236.025L257.56 236.011C254.719 235.91 251.97 235.98 249.385 236.214C243.529 236.707 237.972 237.862 232.863 239.647L232.185 239.883ZM248.093 162.244C247.777 162.244 247.455 162.268 247.129 162.316C242.457 163.053 238.12 168.82 234.926 178.551C234.854 178.807 234.762 179.087 234.668 179.377C234.583 179.638 234.499 179.901 234.417 180.172C234.335 180.426 234.26 180.684 234.185 180.94L234.05 181.401C233.854 182.046 233.68 182.689 233.531 183.368C233.289 184.269 233.079 185.163 232.871 186.079C232.666 187.009 232.46 187.944 232.298 188.893C231.8 191.352 231.394 193.995 231.085 196.766C230.959 197.667 230.863 198.585 230.781 199.481C230.769 199.597 230.762 199.674 230.733 199.766L230.677 200.614C230.6 201.549 230.52 202.498 230.467 203.453C230.407 204.359 230.37 205.253 230.337 206.166L230.226 208.775C230.199 209.688 230.178 210.686 230.195 211.657C230.195 221.19 231.835 231.264 233.135 238.244C238.153 236.555 243.579 235.459 249.278 234.98C251.911 234.746 254.711 234.676 257.608 234.772L258.098 234.786C258.313 234.791 258.523 234.793 258.729 234.805C261.186 234.919 263.549 235.16 265.757 235.522C266.566 228.808 267.257 218.99 267.023 211.557C266.975 210.115 266.909 208.692 266.832 207.286L244.116 202.285L265.021 191.856C263.325 182.533 260.726 174.846 257.491 169.601C255.43 166.165 252.188 162.244 248.093 162.244Z" fill="black"/>
<path d="M258.486 182.423C250.705 184.011 249.848 185.043 249.14 193.679C247.618 185.148 246.668 184.2 238.771 183.346C246.552 181.758 247.408 180.726 248.117 172.09C249.638 180.622 250.589 181.569 258.486 182.423Z" fill="white"/>
<path d="M248.299 211.03C243.363 213.099 242.933 213.894 243.608 219.699C241.471 214.255 240.717 213.753 235.38 214.222C240.316 212.153 240.746 211.358 240.07 205.553C242.208 210.997 242.963 211.499 248.299 211.03Z" fill="white"/>
<path d="M208.565 238.003C228.273 237.863 239.554 252.826 237.828 269.049C236.101 285.272 222.689 297.145 207.871 295.567" fill="white"/>
<path d="M210.502 296.325C209.611 296.325 208.712 296.277 207.806 296.182L207.936 294.95C222.419 296.494 235.525 284.84 237.211 268.984C238.064 260.978 235.631 253.162 230.536 247.538C225.323 241.781 217.621 238.621 208.829 238.621C208.742 238.621 208.655 238.621 208.568 238.621L208.558 237.384C208.647 237.384 208.739 237.384 208.829 237.384C217.975 237.384 226.001 240.689 231.451 246.707C236.783 252.592 239.329 260.76 238.443 269.114C236.787 284.661 224.539 296.325 210.502 296.325Z" fill="black"/>
<path d="M390.083 236.89C374.517 240.669 363.166 253.941 365.137 270.816C367.107 287.691 382.362 295.589 392.758 298.356" fill="white"/>
<path d="M392.599 298.951C386.596 297.354 366.824 290.609 364.524 270.888C362.623 254.61 373.074 240.383 389.939 236.288L390.229 237.491C373.992 241.431 363.925 255.105 365.751 270.743C367.962 289.688 387.102 296.209 392.917 297.757L392.599 298.951Z" fill="black"/>
</g>
<defs>
<clipPath id="clip0_32_1201">
<rect width="592" height="562.436" rx="15" fill="white"/>
</clipPath>
</defs>
</svg>
