<?xml version="1.0" encoding="UTF-8"?> <svg xmlns="http://www.w3.org/2000/svg" id="Calque_2" viewBox="0 0 738.9 215.52"><defs><style>.cls-1{fill:#8fcbb4;}.cls-2{fill:#129360;}</style></defs><g id="Calque_1-2"><g><path class="cls-2" d="M60.42,71.69l40.94-23.64V0H29.16C13.49,0,.78,12.7,.78,28.37v8.88l59.64,34.43Z"></path><polygon class="cls-2" points="216.31 161.69 216.31 53.84 163.85 84.12 163.85 131.4 216.31 161.69"></polygon><path class="cls-2" d="M101.37,167.48l-40.94-23.64L.78,178.27v8.88c0,15.67,12.7,28.37,28.37,28.37H101.37v-48.05Z"></path><g><path class="cls-2" d="M84.7,85.96c.73,0,1.36,.25,1.91,.76,.55,.51,.82,1.14,.82,1.91v39.28c0,.73-.27,1.35-.82,1.88-.55,.53-1.18,.79-1.91,.79-.77,0-1.4-.26-1.91-.79-.51-.52-.76-1.15-.76-1.88v-39.28c0-.77,.25-1.4,.76-1.91,.5-.51,1.14-.76,1.91-.76Zm27.82,0c.77,0,1.4,.25,1.91,.76,.51,.51,.76,1.14,.76,1.91v39.28c0,.73-.25,1.35-.76,1.88-.51,.53-1.14,.79-1.91,.79-.73,0-1.36-.26-1.91-.79-.55-.52-.82-1.15-.82-1.88v-16.97h-17.46c-.73,0-1.35-.25-1.88-.76-.53-.51-.79-1.14-.79-1.91s.26-1.41,.79-1.94c.52-.52,1.15-.79,1.88-.79h17.46v-16.91c0-.77,.27-1.4,.82-1.91,.55-.51,1.18-.76,1.91-.76Z"></path><path class="cls-2" d="M129.91,130.76c-.77,0-1.41-.26-1.94-.79-.53-.52-.79-1.17-.79-1.94v-39.4c0-.73,.26-1.35,.79-1.88s1.17-.79,1.94-.79c.73,0,1.35,.26,1.88,.79,.52,.53,.79,1.15,.79,1.88v39.4c0,.77-.26,1.41-.79,1.94s-1.15,.79-1.88,.79Z"></path></g><path class="cls-1" d="M189.15,44.67c-5.86,8.22-20.12,28.2-34.48,20.66-4.68-2.46-8.19-7.22-10.52-11.14,2.16-7.11,6.37-16.09,15.32-23.21,11.25-8.95,25.99-11.76,25.6-12.26-.28-.35-7.67,.98-14.51,3.57-8.51,3.22-21.46,10.39-29.57,27.93-3.6-2.84-7.8-6.78-10.48-11.52-9.87-17.5,10.35-29.68,13.78-31.75,18.92-11.4,47.57-4.54,60.27-.8-3.17,18.51-9.89,30.8-15.41,38.54Z"></path><path class="cls-1" d="M28.5,80.79c7.39-1.06,25.37-3.65,28.67,10.8,1.08,4.71,.32,10.04-.59,14.05-4.91,2.9-11.86,5.57-20.25,3.85-10.54-2.16-19.58-10.49-19.64-9.91-.05,.41,4.44,4.63,9.33,7.7,6.07,3.82,16.53,8.25,30.05,2.97,.32,4.21,.36,9.5-.81,14.25-4.32,17.53-21.17,11.23-24.03,10.17-15.77-5.89-26.74-29.66-31.22-40.64,11.53-9.24,21.54-12.23,28.5-13.23Z"></path><path class="cls-1" d="M141.01,181.6c-2.77,.86,.12,11.52-2.29,12.38-3.64,1.29-20.85-19.14-13.49-32.13,2.81-4.96,8.21-7.09,11.49-8.01,5.99,2.79,13.33,7.62,18.3,16.45,6.25,11.1,6.52,24.56,7.02,24.27,.36-.2,.29-6.95-.97-13.35-1.57-7.96-5.98-20.36-20.34-29.71,3.07-2.86,7.2-6.12,11.82-7.93,17.05-6.66,24.81,12.81,26.12,16.12,7.26,18.22-3.16,42.88-8.41,53.73-20.82-4.97-25.77-9.66-25.94-13.23-.16-3.25,3.65-5.4,3.11-10.35-.5-4.65-4.52-8.84-6.42-8.25Z"></path></g></g><g id="Calque_2-2"><g><path class="cls-2" d="M251.92,107.64c-.77,0-1.42-.26-1.95-.79-.53-.53-.79-1.18-.79-1.95v-39.64c0-.73,.26-1.36,.79-1.89s1.18-.79,1.95-.79c.73,0,1.36,.26,1.89,.79,.53,.53,.79,1.16,.79,1.89v39.64c0,.77-.26,1.42-.79,1.95s-1.16,.79-1.89,.79Z"></path><path class="cls-2" d="M297.9,107.52c-.89,0-1.59-.35-2.07-1.04l-25.43-33.42v31.83c0,.73-.25,1.35-.76,1.86s-1.13,.76-1.86,.76c-.69,0-1.3-.25-1.83-.76-.53-.51-.79-1.13-.79-1.86v-39.58c0-.57,.16-1.08,.49-1.52,.33-.45,.77-.75,1.34-.91,.53-.2,1.06-.22,1.59-.06,.53,.16,.98,.47,1.34,.92l25.37,33.48v-31.89c0-.69,.25-1.3,.76-1.83,.51-.53,1.13-.79,1.86-.79s1.35,.26,1.86,.79c.51,.53,.76,1.14,.76,1.83v39.58c0,.57-.16,1.08-.49,1.52-.33,.45-.75,.77-1.28,.98-.41,.08-.69,.12-.85,.12Z"></path><path class="cls-2" d="M340.22,62.7c.77,0,1.41,.25,1.92,.76,.51,.51,.76,1.15,.76,1.92,0,.73-.25,1.36-.76,1.89-.51,.53-1.15,.79-1.92,.79h-13.11v36.59c0,.77-.26,1.41-.77,1.92-.51,.51-1.16,.76-1.94,.76-.74,0-1.38-.25-1.91-.76-.53-.51-.8-1.15-.8-1.92v-36.59h-13.11c-.73,0-1.36-.26-1.89-.79-.53-.53-.79-1.16-.79-1.89,0-.77,.26-1.41,.79-1.92,.53-.51,1.16-.76,1.89-.76h31.65Z"></path><path class="cls-2" d="M376.62,101.91c.73,0,1.36,.25,1.89,.76,.53,.51,.79,1.15,.79,1.92s-.26,1.36-.79,1.89c-.53,.53-1.16,.79-1.89,.79h-26.25c-.74,0-1.38-.26-1.91-.79-.53-.53-.8-1.16-.8-1.89v-39.27c0-.73,.27-1.36,.8-1.89,.53-.53,1.17-.79,1.91-.79h26.25c.73,0,1.36,.26,1.89,.79,.53,.53,.79,1.16,.79,1.89,0,.77-.26,1.41-.79,1.92-.53,.51-1.16,.76-1.89,.76h-23.54v14.27h15.67c.73,0,1.36,.26,1.89,.79,.53,.53,.79,1.16,.79,1.89s-.27,1.36-.79,1.89-1.16,.79-1.89,.79h-15.67v14.27h23.54Z"></path><path class="cls-2" d="M423.46,107.76c-1.18,0-2.23-.16-3.14-.49-.92-.32-1.88-1.08-2.9-2.26-.45-.49-1.05-1.29-1.8-2.41-.75-1.12-1.66-2.45-2.71-3.99-.57-.81-1.09-1.54-1.55-2.19-.47-.65-.8-1.14-1.01-1.46l-.24-.37c-.53-.69-1-1.19-1.4-1.49-.41-.3-1.08-.46-2.01-.46-.77,0-1.43-.26-1.98-.79-.55-.53-.82-1.18-.82-1.95s.27-1.43,.82-1.98,1.21-.82,1.98-.82c1.3,0,2.53-.25,3.69-.76,1.16-.51,2.17-1.19,3.02-2.04,.85-.85,1.53-1.85,2.04-2.99,.51-1.14,.76-2.36,.76-3.66s-.25-2.53-.76-3.69c-.51-1.16-1.19-2.16-2.04-3.02-.85-.85-1.86-1.53-3.02-2.04-1.16-.51-2.39-.76-3.69-.76h-12.81v36.89c0,.77-.26,1.42-.79,1.95s-1.18,.79-1.95,.79-1.43-.26-1.98-.79-.82-1.18-.82-1.95v-39.7c0-.77,.27-1.42,.82-1.95,.55-.53,1.21-.79,1.98-.79h15.55c2.07,0,4.02,.4,5.85,1.19,1.83,.79,3.42,1.87,4.79,3.23,1.36,1.36,2.44,2.96,3.23,4.79,.79,1.83,1.19,3.78,1.19,5.85,0,2.8-.7,5.36-2.1,7.65-1.4,2.3-3.26,4.1-5.58,5.4,.12,.16,.26,.37,.43,.61l.24,.31c.28,.37,.67,.89,1.16,1.59,.49,.69,1.02,1.46,1.58,2.32,.37,.53,.75,1.1,1.16,1.71,.41,.61,.8,1.19,1.19,1.74,.39,.55,.73,1.05,1.04,1.49,.3,.45,.56,.77,.76,.98,.37,.41,.62,.64,.76,.7s.5,.09,1.07,.09c.77,0,1.42,.27,1.95,.82s.79,1.21,.79,1.98-.26,1.42-.79,1.95-1.18,.79-1.95,.79Z"></path><path class="cls-2" d="M464.98,107.52c-.89,0-1.58-.35-2.07-1.04l-25.43-33.42v31.83c0,.73-.25,1.35-.76,1.86s-1.13,.76-1.86,.76c-.69,0-1.3-.25-1.83-.76-.53-.51-.79-1.13-.79-1.86v-39.58c0-.57,.16-1.08,.49-1.52,.32-.45,.77-.75,1.34-.91,.53-.2,1.06-.22,1.59-.06,.53,.16,.98,.47,1.34,.92l25.37,33.48v-31.89c0-.69,.25-1.3,.76-1.83,.51-.53,1.13-.79,1.86-.79s1.35,.26,1.86,.79c.51,.53,.76,1.14,.76,1.83v39.58c0,.57-.16,1.08-.49,1.52-.33,.45-.75,.77-1.28,.98-.41,.08-.69,.12-.85,.12Z"></path><path class="cls-2" d="M516.02,103.68c.33,.69,.37,1.37,.12,2.04-.24,.67-.71,1.17-1.4,1.49-.69,.33-1.38,.37-2.07,.12-.69-.24-1.2-.71-1.53-1.4l-4.82-10.37h-12.26c-.77,0-1.41-.25-1.92-.76-.51-.51-.76-1.15-.76-1.92,0-.73,.25-1.36,.76-1.89,.51-.53,1.15-.79,1.92-.79h9.7l-8.54-18.29-15.06,33.97c-.24,.53-.59,.93-1.04,1.19-.45,.27-.94,.4-1.46,.4-.37,0-.73-.06-1.1-.18-.69-.32-1.17-.83-1.43-1.52-.26-.69-.23-1.38,.09-2.07l17.5-39.33c.2-.49,.53-.87,.98-1.16,.45-.28,.93-.43,1.46-.43s1.02,.13,1.46,.4c.45,.27,.77,.64,.98,1.13l18.42,39.39Z"></path><path class="cls-2" d="M543.28,62.7c.77,0,1.41,.25,1.92,.76,.51,.51,.76,1.15,.76,1.92,0,.73-.25,1.36-.76,1.89-.51,.53-1.15,.79-1.92,.79h-13.11v36.59c0,.77-.26,1.41-.77,1.92-.51,.51-1.16,.76-1.94,.76s-1.38-.25-1.91-.76c-.53-.51-.8-1.15-.8-1.92v-36.59h-13.11c-.73,0-1.36-.26-1.89-.79-.53-.53-.79-1.16-.79-1.89,0-.77,.26-1.41,.79-1.92,.53-.51,1.16-.76,1.89-.76h31.65Z"></path><path class="cls-2" d="M555.35,107.64c-.77,0-1.42-.26-1.95-.79-.53-.53-.79-1.18-.79-1.95v-39.64c0-.73,.26-1.36,.79-1.89,.53-.53,1.18-.79,1.95-.79,.73,0,1.36,.26,1.89,.79,.53,.53,.79,1.16,.79,1.89v39.64c0,.77-.26,1.42-.79,1.95-.53,.53-1.16,.79-1.89,.79Z"></path><path class="cls-2" d="M590.48,62.7c3.09,0,6.01,.59,8.75,1.77,2.74,1.18,5.14,2.79,7.2,4.82,2.05,2.03,3.67,4.42,4.85,7.17,1.18,2.74,1.77,5.66,1.77,8.75,0,3.62-.77,6.95-2.32,10-1.54,3.05-3.64,5.61-6.28,7.68l-.12,.12c-1.95,1.46-4.09,2.61-6.4,3.45-2.32,.83-4.8,1.25-7.44,1.25-3.09,0-6-.59-8.72-1.77-2.72-1.18-5.11-2.78-7.17-4.82-2.05-2.03-3.67-4.41-4.85-7.13-1.18-2.72-1.77-5.65-1.77-8.78,0-3.41,.69-6.58,2.07-9.48,1.38-2.91,3.27-5.4,5.67-7.47l.24-.24s.1-.04,.18-.12c1.95-1.63,4.15-2.9,6.59-3.81,2.44-.91,5.02-1.37,7.74-1.37Zm.06,39.64c1.54,0,3.02-.19,4.42-.58,1.4-.39,2.73-.92,3.99-1.62l-21.4-26.04c-1.3,1.5-2.32,3.2-3.05,5.09-.73,1.89-1.1,3.89-1.1,6.01,0,2.36,.45,4.57,1.34,6.65,.89,2.07,2.12,3.89,3.69,5.46,1.56,1.57,3.38,2.8,5.46,3.69,2.07,.89,4.29,1.34,6.65,1.34Zm12.56-5.55c1.42-1.54,2.53-3.3,3.32-5.27,.79-1.97,1.19-4.08,1.19-6.31,0-2.36-.45-4.57-1.34-6.65-.89-2.07-2.12-3.89-3.69-5.46-1.57-1.56-3.38-2.79-5.46-3.69-2.07-.89-4.29-1.34-6.65-1.34-1.63,0-3.19,.21-4.7,.64-1.5,.43-2.91,1.05-4.21,1.86l21.53,26.22Z"></path><path class="cls-2" d="M651.64,107.52c-.89,0-1.58-.35-2.07-1.04l-25.43-33.42v31.83c0,.73-.25,1.35-.76,1.86s-1.13,.76-1.86,.76c-.69,0-1.3-.25-1.83-.76-.53-.51-.79-1.13-.79-1.86v-39.58c0-.57,.16-1.08,.49-1.52,.32-.45,.77-.75,1.34-.91,.53-.2,1.06-.22,1.59-.06,.53,.16,.98,.47,1.34,.92l25.37,33.48v-31.89c0-.69,.25-1.3,.76-1.83,.51-.53,1.13-.79,1.86-.79s1.35,.26,1.86,.79c.51,.53,.76,1.14,.76,1.83v39.58c0,.57-.16,1.08-.49,1.52-.33,.45-.75,.77-1.28,.98-.41,.08-.69,.12-.85,.12Z"></path><path class="cls-2" d="M702.68,103.68c.33,.69,.37,1.37,.12,2.04-.24,.67-.71,1.17-1.4,1.49-.69,.33-1.38,.37-2.07,.12-.69-.24-1.2-.71-1.53-1.4l-4.82-10.37h-12.26c-.77,0-1.41-.25-1.92-.76-.51-.51-.76-1.15-.76-1.92,0-.73,.25-1.36,.76-1.89,.51-.53,1.15-.79,1.92-.79h9.7l-8.54-18.29-15.06,33.97c-.24,.53-.59,.93-1.04,1.19-.45,.27-.94,.4-1.46,.4-.37,0-.73-.06-1.1-.18-.69-.32-1.17-.83-1.43-1.52-.26-.69-.23-1.38,.09-2.07l17.5-39.33c.2-.49,.53-.87,.98-1.16,.45-.28,.93-.43,1.46-.43s1.02,.13,1.46,.4c.45,.27,.77,.64,.98,1.13l18.42,39.39Z"></path><path class="cls-2" d="M736.15,107.34h-25.09c-.76,0-1.41-.26-1.93-.79-.52-.53-.78-1.18-.78-1.95v-39.21c0-.77,.26-1.42,.78-1.95,.52-.53,1.17-.79,1.93-.79s1.41,.26,1.93,.79c.52,.53,.78,1.18,.78,1.95v36.47h22.38c.77,0,1.42,.27,1.95,.82,.53,.55,.79,1.19,.79,1.92,0,.77-.26,1.42-.79,1.95-.53,.53-1.18,.79-1.95,.79Z"></path><path class="cls-2" d="M249.61,121.58c.73,0,1.37,.25,1.92,.76,.55,.51,.82,1.15,.82,1.92v39.51c0,.73-.27,1.36-.82,1.89s-1.19,.79-1.92,.79c-.77,0-1.41-.26-1.92-.79-.51-.53-.76-1.16-.76-1.89v-39.51c0-.77,.25-1.41,.76-1.92s1.15-.76,1.92-.76Zm27.99,0c.77,0,1.41,.25,1.92,.76,.51,.51,.76,1.15,.76,1.92v39.51c0,.73-.25,1.36-.76,1.89-.51,.53-1.15,.79-1.92,.79-.73,0-1.37-.26-1.92-.79s-.82-1.16-.82-1.89v-17.07h-17.56c-.73,0-1.36-.25-1.89-.76-.53-.51-.79-1.15-.79-1.92s.26-1.42,.79-1.95c.53-.53,1.16-.79,1.89-.79h17.56v-17.01c0-.77,.27-1.41,.82-1.92,.55-.51,1.19-.76,1.92-.76Z"></path><path class="cls-2" d="M311.13,121.7c3.09,0,6.01,.59,8.75,1.77,2.74,1.18,5.14,2.79,7.2,4.82,2.05,2.03,3.67,4.42,4.85,7.17,1.18,2.74,1.77,5.66,1.77,8.75,0,3.62-.77,6.95-2.32,10-1.55,3.05-3.64,5.61-6.28,7.68l-.12,.12c-1.95,1.46-4.09,2.61-6.4,3.45-2.32,.83-4.8,1.25-7.44,1.25-3.09,0-6-.59-8.72-1.77-2.72-1.18-5.11-2.78-7.17-4.82-2.05-2.03-3.67-4.41-4.85-7.13-1.18-2.72-1.77-5.65-1.77-8.78,0-3.42,.69-6.58,2.07-9.48,1.38-2.91,3.27-5.4,5.67-7.47l.24-.24s.1-.04,.18-.12c1.95-1.63,4.15-2.9,6.59-3.81,2.44-.91,5.02-1.37,7.74-1.37Zm.06,39.64c1.54,0,3.02-.19,4.42-.58,1.4-.39,2.73-.92,3.99-1.62l-21.4-26.04c-1.3,1.5-2.32,3.2-3.05,5.09-.73,1.89-1.1,3.89-1.1,6.01,0,2.36,.45,4.57,1.34,6.65,.89,2.07,2.12,3.89,3.69,5.46,1.56,1.57,3.38,2.79,5.46,3.69,2.07,.9,4.29,1.34,6.65,1.34Zm12.56-5.55c1.42-1.54,2.53-3.3,3.32-5.27,.79-1.97,1.19-4.08,1.19-6.31,0-2.36-.45-4.57-1.34-6.65-.89-2.07-2.12-3.89-3.69-5.46-1.57-1.56-3.38-2.79-5.46-3.69-2.07-.89-4.29-1.34-6.65-1.34-1.63,0-3.19,.21-4.7,.64-1.5,.43-2.91,1.05-4.21,1.86l21.53,26.22Z"></path><path class="cls-2" d="M377.78,166.76c-1.18,0-2.23-.16-3.14-.49-.91-.33-1.88-1.08-2.9-2.26-.45-.49-1.05-1.29-1.8-2.41-.75-1.12-1.66-2.45-2.71-3.99-.57-.81-1.09-1.54-1.56-2.2-.47-.65-.8-1.14-1.01-1.46l-.24-.37c-.53-.69-1-1.19-1.4-1.49-.41-.3-1.08-.46-2.01-.46-.77,0-1.43-.26-1.98-.79-.55-.53-.82-1.18-.82-1.95s.27-1.43,.82-1.98,1.21-.82,1.98-.82c1.3,0,2.53-.25,3.69-.76,1.16-.51,2.16-1.19,3.02-2.04,.85-.85,1.53-1.85,2.04-2.99,.51-1.14,.76-2.36,.76-3.66s-.25-2.53-.76-3.69c-.51-1.16-1.19-2.17-2.04-3.02-.85-.85-1.86-1.53-3.02-2.04-1.16-.51-2.39-.76-3.69-.76h-12.81v36.89c0,.77-.26,1.42-.79,1.95-.53,.53-1.18,.79-1.95,.79s-1.43-.27-1.98-.79c-.55-.53-.82-1.18-.82-1.95v-39.7c0-.77,.27-1.42,.82-1.95,.55-.53,1.21-.79,1.98-.79h15.55c2.07,0,4.02,.4,5.85,1.19,1.83,.79,3.42,1.87,4.79,3.23,1.36,1.36,2.44,2.96,3.23,4.79,.79,1.83,1.19,3.78,1.19,5.85,0,2.8-.7,5.36-2.1,7.65-1.4,2.3-3.26,4.1-5.58,5.4,.12,.16,.26,.37,.43,.61l.24,.3c.28,.37,.67,.89,1.16,1.59s1.02,1.46,1.59,2.32c.37,.53,.75,1.1,1.16,1.71,.41,.61,.8,1.19,1.19,1.74,.39,.55,.73,1.05,1.04,1.49,.3,.45,.56,.77,.76,.98,.37,.41,.62,.64,.76,.7,.14,.06,.5,.09,1.07,.09,.77,0,1.42,.27,1.95,.82s.79,1.21,.79,1.98-.26,1.42-.79,1.95c-.53,.53-1.18,.79-1.95,.79Z"></path><path class="cls-2" d="M392.42,166.64c-.77,0-1.42-.26-1.95-.79-.53-.53-.79-1.18-.79-1.95v-39.64c0-.73,.26-1.36,.79-1.89,.53-.53,1.18-.79,1.95-.79,.73,0,1.36,.27,1.89,.79,.53,.53,.79,1.16,.79,1.89v39.64c0,.77-.26,1.42-.79,1.95-.53,.53-1.16,.79-1.89,.79Z"></path><path class="cls-2" d="M440.23,166.46h-33.23c-1.06,0-1.85-.49-2.38-1.46-.45-1.02-.35-1.95,.3-2.81l28.9-35.67h-25.73c-.73,0-1.36-.26-1.89-.79s-.79-1.16-.79-1.89,.26-1.35,.79-1.86c.53-.51,1.16-.76,1.89-.76h31.22c1.14,0,1.93,.49,2.38,1.46,.45,1.02,.34,1.95-.3,2.81l-28.9,35.67h27.75c.73,0,1.36,.26,1.89,.79s.79,1.16,.79,1.89-.26,1.35-.79,1.86c-.53,.51-1.16,.76-1.89,.76Z"></path><path class="cls-2" d="M472.12,121.7c3.09,0,6.01,.59,8.75,1.77,2.74,1.18,5.14,2.79,7.2,4.82,2.05,2.03,3.67,4.42,4.85,7.17,1.18,2.74,1.77,5.66,1.77,8.75,0,3.62-.77,6.95-2.32,10-1.54,3.05-3.64,5.61-6.28,7.68l-.12,.12c-1.95,1.46-4.09,2.61-6.4,3.45-2.32,.83-4.8,1.25-7.44,1.25-3.09,0-6-.59-8.72-1.77-2.72-1.18-5.11-2.78-7.17-4.82-2.05-2.03-3.67-4.41-4.85-7.13-1.18-2.72-1.77-5.65-1.77-8.78,0-3.42,.69-6.58,2.07-9.48,1.38-2.91,3.27-5.4,5.67-7.47l.24-.24s.1-.04,.18-.12c1.95-1.63,4.15-2.9,6.59-3.81,2.44-.91,5.02-1.37,7.74-1.37Zm.06,39.64c1.54,0,3.02-.19,4.42-.58,1.4-.39,2.73-.92,3.99-1.62l-21.4-26.04c-1.3,1.5-2.32,3.2-3.05,5.09s-1.1,3.89-1.1,6.01c0,2.36,.45,4.57,1.34,6.65,.89,2.07,2.12,3.89,3.69,5.46,1.56,1.57,3.38,2.79,5.46,3.69,2.07,.9,4.29,1.34,6.65,1.34Zm12.56-5.55c1.42-1.54,2.53-3.3,3.32-5.27s1.19-4.08,1.19-6.31c0-2.36-.45-4.57-1.34-6.65-.89-2.07-2.12-3.89-3.69-5.46-1.57-1.56-3.38-2.79-5.46-3.69-2.07-.89-4.29-1.34-6.65-1.34-1.63,0-3.19,.21-4.7,.64-1.5,.43-2.91,1.05-4.21,1.86l21.53,26.22Z"></path><path class="cls-2" d="M533.28,166.52c-.89,0-1.58-.34-2.07-1.04l-25.43-33.42v31.83c0,.73-.25,1.35-.76,1.86s-1.13,.76-1.86,.76c-.69,0-1.3-.25-1.83-.76-.53-.51-.79-1.13-.79-1.86v-39.58c0-.57,.16-1.08,.49-1.52,.32-.45,.77-.75,1.34-.91,.53-.2,1.06-.22,1.59-.06,.53,.16,.98,.47,1.34,.92l25.37,33.48v-31.89c0-.69,.25-1.3,.76-1.83,.51-.53,1.13-.79,1.86-.79s1.35,.27,1.86,.79c.51,.53,.76,1.14,.76,1.83v39.58c0,.57-.16,1.08-.49,1.52-.33,.45-.75,.77-1.28,.98-.41,.08-.69,.12-.85,.12Z"></path><path class="cls-2" d="M560.9,167.49c-2.24,0-4.34-.29-6.31-.88-1.97-.59-3.71-1.41-5.21-2.47-1.83-1.34-3.23-2.97-4.21-4.88-.98-1.91-1.46-4.09-1.46-6.52,0-.77,.26-1.41,.79-1.92,.53-.51,1.18-.76,1.95-.76,.69,0,1.29,.25,1.8,.76,.51,.51,.76,1.15,.76,1.92,0,3.13,1.14,5.49,3.42,7.07,1.06,.77,2.31,1.36,3.75,1.77,1.44,.41,3.02,.61,4.73,.61,1.38,0,2.7-.19,3.96-.58,1.26-.39,2.36-.96,3.29-1.74,1.83-1.46,2.74-3.37,2.74-5.73,0-1.83-.61-3.29-1.83-4.39-.81-.81-1.93-1.42-3.35-1.83-1.42-.41-3.09-.79-5-1.16-.81-.16-1.52-.31-2.13-.46-.61-.14-1.19-.27-1.74-.4-.55-.12-1.08-.25-1.58-.4-.51-.14-1.07-.29-1.68-.46-1.06-.28-2.05-.64-2.99-1.07-.94-.43-1.75-.95-2.44-1.55-1.26-1.22-2.22-2.6-2.87-4.15s-.98-3.29-.98-5.24c0-1.46,.34-2.92,1.01-4.36,.67-1.44,1.59-2.69,2.77-3.75,.49-.45,1.08-.9,1.77-1.37,.69-.47,1.5-.89,2.44-1.28,.93-.39,1.99-.7,3.17-.94,1.18-.24,2.5-.37,3.96-.37,1.59,0,3.03,.15,4.33,.46,1.3,.3,2.47,.69,3.51,1.16,1.04,.47,1.93,.99,2.68,1.55,.75,.57,1.41,1.14,1.98,1.71,.57,.57,1.09,1.22,1.55,1.95,.47,.73,.86,1.5,1.19,2.32,.65,1.42,.98,2.79,.98,4.09,0,.77-.25,1.42-.76,1.95-.51,.53-1.11,.79-1.8,.79-.73,0-1.36-.26-1.89-.79-.53-.53-.79-1.18-.79-1.95,0-.45-.17-1.12-.52-2.01-.35-.89-.95-1.81-1.8-2.74-.69-.73-1.74-1.44-3.14-2.13-1.4-.69-3.24-1.04-5.52-1.04-1.63,0-3.1,.2-4.42,.61-1.32,.41-2.41,1.02-3.26,1.83-.81,.73-1.38,1.49-1.71,2.29-.33,.79-.49,1.47-.49,2.04,0,.85,.12,1.67,.37,2.44,.24,.77,.77,1.52,1.59,2.23,.81,.71,1.98,1.38,3.51,2.01,1.52,.63,3.55,1.23,6.07,1.8,2.6,.57,4.88,1.14,6.83,1.71s3.58,1.48,4.88,2.74c2.24,2.24,3.35,4.96,3.35,8.17,0,1.99-.41,3.83-1.22,5.52-.81,1.69-1.95,3.14-3.42,4.36-1.42,1.1-3.04,1.95-4.85,2.56-1.81,.61-3.73,.92-5.76,.92Z"></path></g></g></svg> 