<svg width="300" height="113" viewBox="0 0 300 113" fill="none" xmlns="http://www.w3.org/2000/svg">
<g clip-path="url(#clip0_2_289)">
<rect width="300" height="113" rx="8" fill="#0B090B"/>
<ellipse cx="84.5" cy="87" rx="185.5" ry="109" fill="url(#paint0_radial_2_289)"/>
<circle cx="238.5" cy="67.5" r="0.5" fill="white"/>
<circle cx="91.5" cy="87.5" r="0.5" fill="white"/>
<circle cx="237.5" cy="17.5" r="0.5" fill="white"/>
<circle cx="180.5" cy="86.5" r="0.5" fill="white"/>
<circle cx="81.5" cy="99.5" r="0.5" fill="white"/>
<circle cx="218.5" cy="84.5" r="0.5" fill="white"/>
<circle cx="258.5" cy="85.5" r="0.5" fill="white"/>
<circle cx="139.5" cy="22.5" r="0.5" fill="white"/>
<circle cx="70" cy="42" r="1" fill="white"/>
<circle cx="83" cy="12" r="1" fill="white"/>
<circle cx="245" cy="24" r="1" fill="white"/>
<circle cx="267" cy="80" r="1" fill="white"/>
<g clip-path="url(#clip1_2_289)">
<path d="M138.798 64.0704C138.76 63.8707 139.069 63.822 139.205 63.4665C139.54 62.5924 138.154 61.6136 138.47 60.9343C138.627 60.5958 139 60.7736 139.376 60.3523C139.88 59.7874 139.766 58.7283 139.381 58.0441C139.16 57.6521 138.886 57.4451 138.473 57.1334C137.351 56.2885 136.626 56.347 136.592 55.9891C136.54 55.4144 138.359 54.7205 138.801 54.6182C138.817 54.6134 138.965 54.5817 139.157 54.5257C139.328 54.4746 139.533 54.4064 139.771 54.3066C139.856 54.27 139.947 54.2238 140.053 54.1556C140.22 54.0509 141.076 53.5128 141.325 52.5364C141.632 51.3409 140.855 50.1551 140.417 49.4831C140.272 49.2639 140.153 49.1154 139.916 48.7258C139.519 48.0782 139.274 47.6642 139.164 47.0994C139.072 46.627 139.012 46.3178 139.164 46.0572C139.492 45.4923 140.519 45.6457 142.625 45.675C143.636 45.6896 144.461 45.6676 144.998 45.6482C146.02 47.4719 147.432 49.8508 149.231 52.7872C151.031 55.7237 152.483 58.1536 153.589 60.0796L154.085 47.1919C154.095 46.8875 154.1 46.3713 154.1 45.6506C154.951 45.6701 155.593 45.6774 156.028 45.6774C156.199 45.6774 156.833 45.6676 157.929 45.6506L157.592 50.7468L157.173 59.4685L157.012 64.6085C156.07 64.589 155.272 64.5817 154.611 64.5817C154.085 64.5817 153.237 64.5914 152.063 64.6085C151.611 63.7855 151.266 63.1743 151.031 62.775C150.66 62.1639 149.869 60.905 148.656 58.9961C147.86 57.7373 146.866 56.1254 145.673 54.1629C144.796 52.719 144.045 51.4602 143.422 50.384C143.351 51.8839 143.239 54.6669 143.087 58.7307C143.025 60.3889 142.975 62.3465 142.939 64.606C142.476 64.6182 141.843 64.6231 141.092 64.5793C140.015 64.516 138.874 64.4429 138.805 64.0752L138.798 64.0704Z" fill="#7C68AC"/>
<path d="M173.002 61.4504C172.886 61.9959 172.717 62.9771 172.501 64.3942C171.524 64.606 170.701 64.7497 170.033 64.8252C169.365 64.8982 168.69 64.9372 168.013 64.9372C166.829 64.9372 165.769 64.8179 164.832 64.5768C163.896 64.3358 163.076 63.8951 162.372 63.2522C161.666 62.6094 161.148 61.8205 160.813 60.8856C160.477 59.9506 160.311 58.9717 160.311 57.9442C160.311 56.8072 160.506 55.7042 160.893 54.6353C161.281 53.5663 161.828 52.6922 162.527 52.0129C163.228 51.3336 164.024 50.8515 164.92 50.569C165.816 50.2866 166.751 50.1454 167.728 50.1454C168.65 50.1454 169.527 50.2622 170.359 50.4984C171.191 50.7346 171.89 51.1193 172.453 51.655C173.019 52.1906 173.452 52.8359 173.756 53.5883C174.058 54.3406 174.21 55.1807 174.21 56.1035C174.21 56.5369 174.165 56.9849 174.074 57.4475L164.136 57.4621C164.117 57.8054 164.11 58.0782 164.11 58.2827C164.11 58.9036 164.214 59.4733 164.421 59.992C164.628 60.5106 164.932 60.9513 165.329 61.3117C165.726 61.672 166.202 61.9399 166.753 62.1103C167.305 62.2807 167.847 62.3684 168.379 62.3684C169.002 62.3684 169.679 62.2978 170.407 62.159C171.134 62.0202 171.999 61.784 173.002 61.4504ZM164.243 55.8405L170.59 55.8551C170.59 55.412 170.575 55.0857 170.549 54.8739C170.523 54.662 170.461 54.421 170.366 54.1483C170.271 53.8756 170.143 53.637 169.979 53.43C169.817 53.223 169.627 53.0502 169.408 52.9114C169.192 52.7726 168.94 52.6679 168.655 52.5924C168.369 52.5194 168.065 52.4828 167.74 52.4828C167.359 52.4828 166.991 52.5437 166.634 52.663C166.278 52.7823 165.95 52.9576 165.65 53.1889C165.353 53.4203 165.11 53.6783 164.925 53.9632C164.74 54.2481 164.602 54.5232 164.511 54.7862C164.421 55.0492 164.331 55.4022 164.24 55.8454L164.243 55.8405Z" fill="#7C68AC"/>
<path d="M174.588 64.6036C176.487 62.2467 178.417 59.7972 180.376 57.2503L179.138 55.3292C178.734 54.7034 178.199 53.9024 177.531 52.926L175.864 50.4789C176.858 50.4984 177.652 50.5057 178.249 50.5057C179.033 50.5057 179.734 50.496 180.348 50.4789C180.766 51.1388 181.246 51.8644 181.788 52.6508L182.808 54.1872L185.72 50.4789C186.362 50.4984 187.049 50.5057 187.781 50.5057C188.468 50.5057 189.179 50.496 189.911 50.4789L187.645 53.3521C187.132 54.0144 186.174 55.2659 184.771 57.1067L186.897 60.3742L189.763 64.606C188.984 64.5866 188.266 64.5793 187.605 64.5793C186.809 64.5793 186.034 64.589 185.283 64.606C184.719 63.6711 184.158 62.814 183.6 62.03C183.041 61.2459 182.627 60.6348 182.361 60.1989C181.997 60.6883 181.512 61.3092 180.906 62.064C180.3 62.8164 179.646 63.6662 178.948 64.606C178.187 64.5866 177.5 64.5793 176.884 64.5793C176.197 64.5793 175.432 64.589 174.59 64.606L174.588 64.6036Z" fill="#7C68AC"/>
<path d="M205.695 64.6036C204.898 64.5841 204.287 64.5768 203.862 64.5768C203.327 64.5768 202.723 64.5866 202.043 64.6036L202.067 62.2978C201.815 62.6874 201.592 62.999 201.404 63.2352C201.216 63.4714 200.967 63.7027 200.658 63.9291C200.351 64.1556 200.016 64.3358 199.654 64.4697C199.293 64.6036 198.88 64.7156 198.414 64.8033C197.948 64.8909 197.453 64.9347 196.93 64.9347C195.918 64.9347 195.038 64.7838 194.287 64.4843C193.536 64.1824 192.942 63.7271 192.504 63.1159C192.067 62.5047 191.846 61.6306 191.846 60.4911V60.1989L192.064 56.6148L192.271 51.8936C192.281 51.5138 192.285 51.0414 192.285 50.4765C193.144 50.496 193.816 50.5033 194.304 50.5033C194.817 50.5033 195.44 50.4935 196.172 50.4765L195.72 56.8096C195.692 57.3014 195.673 57.7154 195.659 58.0538C195.644 58.3923 195.637 58.6357 195.637 58.7818C195.637 59.449 195.735 60.0017 195.927 60.4424C196.122 60.8831 196.46 61.2191 196.942 61.4504C197.425 61.6818 197.943 61.7986 198.494 61.7986C199.046 61.7986 199.514 61.6964 199.985 61.4943C200.41 61.3092 200.772 61.0487 201.076 60.7176C201.378 60.384 201.635 59.936 201.841 59.3711C201.996 58.9644 202.112 58.3996 202.193 57.6764C202.257 57.1675 202.314 56.2934 202.369 55.0516C202.445 53.5517 202.495 52.0275 202.524 50.4814C203.42 50.5009 204.102 50.5082 204.573 50.5082C205.108 50.5082 205.709 50.4984 206.379 50.4814C206.27 51.8059 206.158 53.4616 206.042 55.4461C205.925 57.4329 205.844 59.0716 205.799 60.3621C205.754 61.6525 205.718 63.0672 205.692 64.606L205.695 64.6036Z" fill="#7C68AC"/>
<path d="M208.69 64.3382L208.393 61.2825C209.279 61.6526 210.028 61.9107 210.644 62.0543C211.259 62.198 211.823 62.2686 212.339 62.2686C212.855 62.2686 213.287 62.2053 213.641 62.0811C213.996 61.9569 214.257 61.7719 214.428 61.5259C214.599 61.28 214.685 61.0244 214.685 60.7541C214.685 60.6348 214.673 60.5228 214.652 60.4205C214.628 60.3183 214.587 60.2111 214.53 60.1016C214.471 59.9895 214.404 59.8873 214.326 59.7899C214.25 59.6925 214.143 59.5805 214.007 59.4563C213.872 59.3321 213.677 59.1714 213.425 58.9766L212.693 58.3801C211.987 57.8152 211.45 57.3721 211.079 57.0458C210.708 56.722 210.397 56.3908 210.142 56.0524C209.888 55.7139 209.698 55.3584 209.567 54.9835C209.436 54.6085 209.37 54.2262 209.37 53.8366C209.37 53.1597 209.572 52.5169 209.973 51.9058C210.375 51.2946 210.96 50.8491 211.73 50.5666C212.498 50.2842 213.404 50.1429 214.442 50.1429C215.626 50.1429 216.991 50.2866 218.538 50.5739L218.714 53.4763C217.666 53.0404 216.658 52.8237 215.69 52.8237C215.165 52.8237 214.706 52.8773 214.314 52.9844C213.922 53.0916 213.639 53.2523 213.468 53.4714C213.297 53.6881 213.211 53.9316 213.211 54.1994C213.211 54.3577 213.237 54.5111 213.292 54.6645C213.347 54.8179 213.442 54.9762 213.577 55.1442C213.713 55.3097 213.87 55.468 214.045 55.6165C214.221 55.7651 214.59 56.0572 215.151 56.4906C215.712 56.9265 216.201 57.3185 216.622 57.6716C217.043 58.0246 217.388 58.3777 217.659 58.7332C217.93 59.0886 218.139 59.4709 218.281 59.88C218.426 60.2866 218.498 60.7005 218.498 61.1169C218.498 61.8108 218.289 62.4561 217.875 63.0477C217.459 63.6394 216.831 64.102 215.99 64.4356C215.148 64.7692 214.209 64.9348 213.171 64.9348C212.629 64.9348 211.968 64.8909 211.191 64.8033C210.413 64.7156 209.581 64.5598 208.695 64.3382H208.69Z" fill="#7C68AC"/>
<path d="M134.006 55.3925C133.588 55.1904 133.155 54.9835 132.556 54.9177C132.478 54.9104 131.025 54.7619 130.842 55.3C130.745 55.5849 131.02 56.0256 131.372 56.2106C131.852 56.4614 132.219 56.1084 133.091 56.0012C134.291 55.8527 135.114 56.3372 135.169 56.1838C135.223 56.0353 134.443 55.6019 134.006 55.3925Z" fill="#7C68AC"/>
<path d="M137.22 60.8953C137.184 60.9391 136.906 60.5228 136.317 60.3767C135.646 60.2111 135.185 60.5398 134.981 60.2744C134.874 60.1381 134.886 59.9019 134.981 59.7777C135.154 59.5537 135.608 59.6828 135.796 59.7363C136.704 59.9944 137.27 60.8344 137.22 60.8953Z" fill="#7C68AC"/>
<path d="M140.087 64.0704C140.049 63.8707 140.358 63.822 140.493 63.4665C140.828 62.5924 139.443 61.6136 139.759 60.9343C139.916 60.5958 140.289 60.7736 140.664 60.3523C141.168 59.7874 141.054 58.7283 140.669 58.0441C140.448 57.6521 140.175 57.4451 139.761 57.1334C138.639 56.2885 137.914 56.347 137.881 55.9891C137.828 55.4144 139.647 54.7205 140.089 54.6182C140.106 54.6134 140.253 54.5817 140.446 54.5257C140.617 54.4746 140.821 54.4064 141.059 54.3066C141.145 54.27 141.235 54.2238 141.342 54.1556C141.508 54.0509 142.364 53.5128 142.614 52.5364C142.92 51.3409 142.143 50.1551 141.705 49.4831C141.56 49.2639 141.442 49.1154 141.204 48.7258C140.807 48.0782 140.562 47.6642 140.453 47.0994C140.36 46.627 140.301 46.3178 140.453 46.0572C140.781 45.4923 141.808 45.6457 143.914 45.675C144.924 45.6896 145.749 45.6676 146.286 45.6482C147.308 47.4719 148.72 49.8508 150.52 52.7872C152.319 55.7237 153.772 58.1536 154.877 60.0796L155.374 47.1919C155.383 46.8875 155.388 46.3713 155.388 45.6506C156.239 45.6701 156.881 45.6774 157.316 45.6774C157.487 45.6774 158.122 45.6676 159.218 45.6506L158.88 50.7468L158.462 59.4685L158.3 64.6085C157.359 64.589 156.56 64.5817 155.899 64.5817C155.374 64.5817 154.525 64.5914 153.351 64.6085C152.899 63.7855 152.555 63.1743 152.319 62.775C151.948 62.1639 151.157 60.905 149.945 58.9961C149.148 57.7373 148.155 56.1254 146.961 54.1629C146.084 52.719 145.333 51.4602 144.71 50.384C144.639 51.8839 144.527 54.6669 144.375 58.7307C144.313 60.3889 144.263 62.3465 144.228 64.606C143.764 64.6182 143.132 64.6231 142.381 64.5793C141.304 64.516 140.163 64.4429 140.094 64.0752L140.087 64.0704Z" fill="white"/>
<path d="M174.291 61.4504C174.174 61.9959 174.006 62.9771 173.789 64.3942C172.812 64.606 171.99 64.7497 171.322 64.8252C170.654 64.8982 169.979 64.9372 169.301 64.9372C168.117 64.9372 167.057 64.8179 166.121 64.5768C165.184 64.3358 164.364 63.8951 163.66 63.2522C162.954 62.6094 162.436 61.8205 162.101 60.8856C161.766 59.9506 161.599 58.9717 161.599 57.9442C161.599 56.8072 161.794 55.7042 162.182 54.6353C162.569 53.5663 163.116 52.6922 163.815 52.0129C164.516 51.3336 165.312 50.8515 166.209 50.569C167.105 50.2866 168.039 50.1454 169.016 50.1454C169.938 50.1454 170.815 50.2622 171.647 50.4984C172.479 50.7346 173.178 51.1193 173.742 51.655C174.307 52.1906 174.74 52.8359 175.044 53.5883C175.346 54.3406 175.498 55.1807 175.498 56.1035C175.498 56.5369 175.453 56.9849 175.363 57.4475L165.424 57.4621C165.405 57.8054 165.398 58.0782 165.398 58.2827C165.398 58.9036 165.503 59.4733 165.709 59.992C165.916 60.5106 166.221 60.9513 166.617 61.3117C167.014 61.672 167.49 61.9399 168.041 62.1103C168.593 62.2807 169.135 62.3684 169.667 62.3684C170.29 62.3684 170.968 62.2978 171.695 62.159C172.422 62.0202 173.288 61.784 174.291 61.4504ZM165.531 55.8405L171.878 55.8551C171.878 55.412 171.864 55.0857 171.838 54.8739C171.811 54.662 171.75 54.421 171.655 54.1483C171.559 53.8756 171.431 53.637 171.267 53.43C171.105 53.223 170.915 53.0502 170.697 52.9114C170.48 52.7726 170.228 52.6679 169.943 52.5924C169.658 52.5194 169.354 52.4828 169.028 52.4828C168.648 52.4828 168.279 52.5437 167.923 52.663C167.566 52.7823 167.238 52.9576 166.938 53.1889C166.641 53.4203 166.399 53.6783 166.213 53.9632C166.028 54.2481 165.89 54.5232 165.8 54.7862C165.709 55.0492 165.619 55.4022 165.529 55.8454L165.531 55.8405Z" fill="white"/>
<path d="M175.876 64.6036C177.776 62.2467 179.706 59.7972 181.665 57.2503L180.426 55.3292C180.022 54.7034 179.487 53.9024 178.819 52.926L177.153 50.4789C178.146 50.4984 178.94 50.5057 179.537 50.5057C180.321 50.5057 181.023 50.496 181.636 50.4789C182.054 51.1388 182.535 51.8644 183.077 52.6508L184.096 54.1872L187.008 50.4789C187.65 50.4984 188.337 50.5057 189.069 50.5057C189.756 50.5057 190.467 50.496 191.199 50.4789L188.934 53.3521C188.42 54.0144 187.462 55.2659 186.06 57.1067L188.185 60.3742L191.052 64.606C190.272 64.5866 189.554 64.5793 188.893 64.5793C188.097 64.5793 187.322 64.589 186.571 64.606C186.007 63.6711 185.446 62.814 184.888 62.03C184.329 61.2459 183.916 60.6348 183.649 60.1989C183.286 60.6883 182.801 61.3092 182.195 62.064C181.588 62.8164 180.935 63.6662 180.236 64.606C179.475 64.5866 178.788 64.5793 178.173 64.5793C177.486 64.5793 176.72 64.589 175.879 64.606L175.876 64.6036Z" fill="white"/>
<path d="M206.983 64.6036C206.187 64.5841 205.576 64.5768 205.15 64.5768C204.615 64.5768 204.012 64.5866 203.332 64.6036L203.356 62.2978C203.104 62.6874 202.88 62.999 202.692 63.2352C202.505 63.4714 202.255 63.7027 201.946 63.9291C201.639 64.1556 201.304 64.3358 200.943 64.4697C200.581 64.6036 200.168 64.7156 199.702 64.8033C199.236 64.8909 198.742 64.9347 198.219 64.9347C197.206 64.9347 196.326 64.7838 195.575 64.4843C194.824 64.1824 194.23 63.7271 193.792 63.1159C193.355 62.5047 193.134 61.6306 193.134 60.4911V60.1989L193.353 56.6148L193.56 51.8936C193.569 51.5138 193.574 51.0414 193.574 50.4765C194.432 50.496 195.105 50.5033 195.592 50.5033C196.105 50.5033 196.728 50.4935 197.46 50.4765L197.009 56.8096C196.98 57.3014 196.961 57.7154 196.947 58.0538C196.933 58.3923 196.926 58.6357 196.926 58.7818C196.926 59.449 197.023 60.0017 197.216 60.4424C197.41 60.8831 197.748 61.2191 198.231 61.4504C198.713 61.6818 199.231 61.7986 199.783 61.7986C200.334 61.7986 200.803 61.6964 201.273 61.4943C201.699 61.3092 202.06 61.0487 202.364 60.7176C202.666 60.384 202.923 59.936 203.13 59.3711C203.284 58.9644 203.401 58.3996 203.482 57.6764C203.546 57.1675 203.603 56.2934 203.657 55.0516C203.734 53.5517 203.783 52.0275 203.812 50.4814C204.708 50.5009 205.39 50.5082 205.861 50.5082C206.396 50.5082 206.997 50.4984 207.668 50.4814C207.558 51.8059 207.447 53.4616 207.33 55.4461C207.214 57.4329 207.133 59.0716 207.088 60.3621C207.042 61.6525 207.007 63.0672 206.981 64.606L206.983 64.6036Z" fill="white"/>
<path d="M209.978 64.3406L209.681 61.2849C210.568 61.655 211.316 61.9131 211.932 62.0567C212.548 62.2004 213.111 62.271 213.627 62.271C214.143 62.271 214.575 62.2077 214.93 62.0835C215.284 61.9593 215.545 61.7743 215.716 61.5284C215.888 61.2824 215.973 61.0268 215.973 60.7565C215.973 60.6372 215.961 60.5252 215.94 60.4229C215.916 60.3207 215.876 60.2135 215.819 60.104C215.759 59.992 215.693 59.8897 215.614 59.7923C215.538 59.6949 215.431 59.5829 215.296 59.4587C215.16 59.3345 214.965 59.1738 214.713 58.9791L213.981 58.3825C213.275 57.8176 212.738 57.3745 212.367 57.0482C211.996 56.7244 211.685 56.3932 211.431 56.0548C211.176 55.7163 210.986 55.3608 210.855 54.9859C210.725 54.6109 210.658 54.2286 210.658 53.839C210.658 53.1622 210.86 52.5194 211.262 51.9082C211.664 51.297 212.248 50.8515 213.018 50.569C213.786 50.2866 214.692 50.1454 215.731 50.1454C216.915 50.1454 218.279 50.289 219.826 50.5763L220.002 53.4787C218.954 53.0428 217.946 52.8261 216.979 52.8261C216.453 52.8261 215.995 52.8797 215.602 52.9868C215.21 53.094 214.927 53.2547 214.756 53.4738C214.585 53.6905 214.499 53.934 214.499 54.2018C214.499 54.3601 214.526 54.5135 214.58 54.6669C214.635 54.8203 214.73 54.9786 214.865 55.1466C215.001 55.3121 215.158 55.4704 215.334 55.6189C215.51 55.7675 215.878 56.0596 216.439 56.4931C217 56.9289 217.49 57.3209 217.911 57.674C218.331 58.027 218.676 58.3801 218.947 58.7356C219.218 59.0911 219.427 59.4733 219.57 59.8824C219.715 60.289 219.786 60.7029 219.786 61.1193C219.786 61.8132 219.577 62.4585 219.163 63.0502C218.747 63.6418 218.12 64.1044 217.278 64.438C216.437 64.7716 215.498 64.9372 214.459 64.9372C213.917 64.9372 213.256 64.8933 212.479 64.8057C211.702 64.718 210.87 64.5622 209.983 64.3406H209.978Z" fill="white"/>
<path d="M135.425 54.9688C135.007 54.7667 134.574 54.5598 133.975 54.494C133.897 54.4867 132.444 54.3382 132.261 54.8763C132.164 55.1612 132.44 55.6019 132.791 55.7869C133.272 56.0377 133.638 55.6847 134.51 55.5775C135.71 55.429 136.533 55.9136 136.588 55.7602C136.642 55.6116 135.863 55.1782 135.425 54.9688Z" fill="white"/>
<path d="M138.637 60.4716C138.601 60.5155 138.323 60.0991 137.733 59.953C137.063 59.7874 136.602 60.1162 136.397 59.8508C136.291 59.7144 136.302 59.4782 136.397 59.354C136.571 59.13 137.025 59.2591 137.213 59.3126C138.121 59.5707 138.687 60.4108 138.637 60.4716Z" fill="white"/>
<path d="M130.947 46.9703C130.947 46.9703 130.281 49.7168 127.479 52.9114C127.467 52.9211 127.462 52.9284 127.457 52.9333C127.453 52.9382 127.453 52.9382 127.448 52.9382V52.943C125.82 54.4015 123.595 55.7383 120.92 55.7383C119.929 55.7383 118.874 55.5532 117.766 55.1222C117.766 55.1222 116.725 54.684 115.94 54.0217C115.111 48.5311 110.475 44.3212 104.88 44.3212C102.997 44.3212 101.226 44.796 99.6691 45.636C99.3814 45.6311 99.0296 45.6263 98.6398 45.6409L98.4567 45.6506L98.238 45.6603L97.8743 45.6896C97.8743 45.6896 97.3514 45.7358 97.0923 45.7845C96.8498 45.8186 96.6026 45.8576 96.3435 45.9038H96.3387C96.3387 45.9038 96.3292 45.9087 96.3269 45.9087C92.842 46.5515 87.572 48.5189 83.2742 54.382V54.3869C82.3828 55.5264 81.6768 56.6538 81.1158 57.7227C81.1158 57.7227 80.9827 57.971 80.7806 58.3947C80.7545 58.4458 80.7307 58.5018 80.7022 58.5627C80.4669 59.0594 80.2672 59.5391 80.096 59.9993C80.0295 60.1746 79.9629 60.3596 79.8963 60.5471C79.6777 61.1558 79.4732 61.8254 79.314 62.5242C79.1927 63.0477 79.0953 63.5834 79.0453 64.1191C79.0453 64.1288 79.0406 64.1361 79.0406 64.1459C79.0026 64.4673 78.9978 64.6426 78.9978 64.6426C78.9978 64.6377 79.0026 64.6328 79.0073 64.6255C78.9954 64.8836 78.9954 65.1393 79.0073 65.3925C79.0073 65.3925 79.6444 62.6362 82.4089 59.41C82.4184 59.4003 82.4256 59.393 82.4303 59.3833L82.4351 59.3784V59.3735C84.0682 57.8809 86.3098 56.5028 89.022 56.5028C89.4665 56.5028 89.9206 56.5369 90.3912 56.6197C90.9427 56.7146 91.5132 56.8632 92.0932 57.0823C92.0932 57.0823 92.9252 57.4208 93.6669 57.9613H93.6764C93.8261 58.0465 93.9189 58.1025 93.9189 58.1025C93.9236 58.1196 93.9284 58.1366 93.9307 58.1536C94.9885 63.3521 99.4932 67.2576 104.882 67.2576C106.391 67.2576 107.832 66.9484 109.147 66.3957L109.192 66.4005C109.204 66.4054 109.218 66.4054 109.235 66.4103C109.472 66.4371 110.169 66.5004 111.084 66.4833L111.267 66.4736L111.486 66.4687L111.849 66.4419C111.849 66.4419 112.372 66.3981 112.631 66.3567C116.081 65.9111 121.85 64.1848 126.545 57.9296L126.549 57.9248C127.457 56.7926 128.173 55.6798 128.746 54.6158C128.746 54.6158 128.884 54.3723 129.088 53.9462C129.117 53.8951 129.143 53.8391 129.171 53.7831C129.409 53.2863 129.618 52.8091 129.794 52.3514C129.865 52.176 129.932 51.9959 130.003 51.8059C130.393 50.7419 130.757 49.488 130.895 48.2437V48.217C130.937 47.8956 130.945 47.7202 130.945 47.7202C130.94 47.73 130.94 47.7324 130.935 47.7373C130.947 47.4841 130.952 47.2284 130.945 46.9752L130.947 46.9703ZM110.007 50.776C107.245 47.2649 102.847 48.4653 102.61 48.5311C107.908 45.1953 109.917 50.5203 110.007 50.776ZM111.338 62.59C111.155 62.702 110.975 62.8042 110.794 62.8992C110.611 62.9966 110.421 63.0843 110.242 63.1597C110.166 63.1938 110.093 63.223 110.017 63.2547C109.439 63.4811 108.878 63.6272 108.331 63.7051C108.177 63.7271 108.022 63.7441 107.87 63.7563C106.769 63.8342 105.74 63.6491 104.832 63.3399C102.602 62.5778 101.069 61.0463 100.831 60.8028L100.798 60.7687C99.467 59.6365 98.6184 57.9321 98.6184 56.0231C98.6184 52.7044 101.188 50.0017 104.397 49.88C104.473 49.8751 104.544 49.8751 104.618 49.8751C106.116 49.8751 107.49 50.4376 108.538 51.3677C108.543 51.3774 108.55 51.3798 108.555 51.3896C109.819 52.5121 110.618 54.1702 110.618 56.0231C110.618 59.057 108.471 61.5771 105.647 62.0787C105.434 62.1176 105.22 62.142 104.994 62.1566C104.982 62.1614 104.972 62.1614 104.972 62.1614C104.984 62.1663 104.999 62.1736 105.01 62.1785C106.822 63.1987 108.688 63.1427 109.974 62.9016C110.154 62.8676 110.326 62.8286 110.48 62.7848C110.635 62.7507 110.782 62.7069 110.908 62.6655C110.951 62.6533 110.991 62.6387 111.029 62.6265C111.108 62.5997 111.184 62.5754 111.248 62.5535C111.353 62.5145 111.44 62.4804 111.502 62.4585C111.536 62.4414 111.564 62.4293 111.585 62.4195C111.597 62.4147 111.612 62.4098 111.619 62.4074C111.524 62.4707 111.431 62.5315 111.338 62.5875V62.59Z" fill="white"/>
<path d="M124.79 50.1916C124.395 50.9659 123.979 51.6866 123.544 52.3587C122.983 52.5973 122.449 52.7507 121.942 52.8383C120.24 53.1378 118.89 52.7141 118.148 52.3708C117.956 51.3652 117.647 50.401 117.24 49.4928H117.236C117.188 49.3759 117.141 49.2639 117.093 49.1568C124.127 49.4368 127.208 41 127.208 41C127.395 43.805 124.788 50.1916 124.788 50.1916H124.79Z" fill="white"/>
<path d="M92.8751 62.8334C86.0814 62.8383 83.1005 71 83.1005 71C82.9127 68.195 85.518 61.8108 85.518 61.8108L86.5782 59.6097C86.6305 59.5732 87.5314 58.9717 89.0124 59.0472C89.0124 59.0472 89.0266 59.0472 89.0528 59.0472C89.0813 59.0472 89.1122 59.0472 89.1383 59.0521C89.1954 59.057 89.2715 59.0618 89.3642 59.074C89.8372 59.1251 90.7096 59.281 91.5297 59.729L91.5416 59.7728C91.8078 60.6835 92.1644 61.5503 92.6041 62.366C92.6897 62.5315 92.7705 62.6825 92.8419 62.7872C92.8419 62.7921 92.8466 62.7945 92.849 62.7994C92.8561 62.8115 92.8656 62.8213 92.8728 62.8334H92.8751Z" fill="white"/>
<path d="M93.9306 58.1463V58.1512C93.845 58.083 93.7618 58.0173 93.6738 57.954C93.8236 58.0392 93.9187 58.0952 93.9187 58.0952C93.9234 58.1122 93.9258 58.1293 93.9306 58.1463Z" fill="white"/>
<path d="M105.013 62.1809C104.999 62.176 104.989 62.1663 104.975 62.1614C104.989 62.1663 104.999 62.1736 105.013 62.1809Z" fill="white"/>
<path d="M105.65 62.0786C105.436 62.1176 105.219 62.1444 104.996 62.1566C105.065 62.1468 105.3 62.12 105.65 62.0786Z" fill="white"/>
</g>
<g clip-path="url(#clip2_2_289)">
<path d="M13.9012 70.5582L12.8956 70.0761L12.457 69.4305L12.1646 67.9325L12.3613 66.5184L13.2464 64.9603L13.7103 64.6218C13.444 64.8752 13.2012 65.1687 12.9806 65.5029C12.096 66.8427 12.1983 68.1951 12.7983 69.5814C12.8784 69.7664 12.9599 70.0042 13.1439 70.0767C13.4465 70.1957 13.6921 70.3616 13.9012 70.5582Z" fill="white"/>
<path d="M15.8456 63.524C15.3978 63.6144 14.9862 63.7616 14.6093 63.9659L14.723 63.8829L15.5711 63.5188L15.8456 63.524Z" fill="white"/>
<path d="M19.0386 76.004C18.719 75.8589 18.4806 75.75 18.4806 75.75L16.6238 74.4168L15.1032 72.5637L13.9801 70.6356C14.4806 71.146 14.7679 71.833 15.1565 72.4345C16.2176 74.0754 17.5222 75.2436 19.0386 76.004Z" fill="white"/>
<path d="M24.0404 77.1261L22.9398 77.2206C22.9398 77.2206 20.7321 76.7256 20.6736 76.7256C20.6479 76.7256 20.2154 76.5345 19.7412 76.3214C21.0407 76.8468 22.4797 77.1031 24.0404 77.1261Z" fill="white"/>
<path d="M27.365 75.9279L27.165 75.9684L25.9474 76.5317C26.0489 76.4718 26.1501 76.4117 26.2518 76.3534C26.7899 76.045 27.1261 75.8899 27.365 75.9279Z" fill="white"/>
<path d="M28.7928 80.3755C28.6126 79.9118 28.4681 79.5502 28.4681 79.5502L27.5555 76.0146C27.7344 76.1623 27.8546 76.4917 28.0033 77.0366C28.3047 78.1407 28.5302 79.2626 28.7928 80.3755Z" fill="white"/>
<path d="M30.7757 83.3836L29.8992 82.8702C29.8992 82.8702 29.4512 82.4481 29.4588 82.3723C29.6428 82.6358 29.9007 82.8565 30.2878 83.0158C30.5005 83.1034 30.66 83.2302 30.7757 83.3836Z" fill="white"/>
<path d="M30.2626 94.4658C30.3082 94.5122 30.355 94.5574 30.4025 94.6013C30.3479 94.5648 30.3143 94.5407 30.3086 94.5333C30.3036 94.5268 30.2874 94.503 30.2626 94.4658Z" fill="white"/>
<path d="M31.9597 95.5946C32.1861 95.695 32.4195 95.7851 32.6579 95.8678C32.355 95.7933 32.1473 95.737 32.1361 95.7203C32.1281 95.7083 32.062 95.6623 31.9597 95.5946Z" fill="white"/>
<path d="M35.5152 92.4456C34.1848 93.2986 32.7354 93.7134 31.1452 93.6229C30.1376 93.5655 29.5123 93.2731 29.2286 92.6924L29.0658 92.0042L29.1742 90.8836L30.4109 86.9827L30.3487 86.9563C30.4758 86.5923 30.6052 86.2286 30.7234 85.8604C30.727 85.8283 30.731 85.7973 30.7358 85.7672C30.727 85.7967 30.718 85.8262 30.7091 85.8555C30.5934 86.2231 30.4596 86.5852 30.3365 86.9512L30.2414 86.9107L30.5277 86.3501L30.7764 85.1998L30.8858 83.563C31.0708 83.9372 31.063 84.4168 30.9599 84.8726C30.9188 85.054 30.8768 85.2374 30.8307 85.4199C31.0406 84.9358 31.5022 84.9186 32.1099 85.0903C33.3373 85.4372 34.4657 85.9646 35.4812 86.7343C36.188 87.3867 36.364 88.1749 36.0313 89.0603C35.733 89.8544 35.8528 90.6769 35.8057 91.4885C35.7944 91.8335 35.7669 92.1738 35.5152 92.4456Z" fill="white"/>
<path d="M36.3865 96.7911L35.221 96.4554C35.221 96.4554 35.0461 96.4168 34.7797 96.3575C34.8491 96.3603 34.9188 96.3613 34.9885 96.3601C35.5439 96.3505 36.0148 96.4763 36.3865 96.7911Z" fill="white"/>
<path d="M37.5841 97.7973C37.617 97.788 37.6481 97.7775 37.6773 97.7655L37.341 97.9551L36.8731 97.5182L36.4757 96.8719C36.6171 97.0093 36.7426 97.1774 36.8514 97.3795C36.9958 97.6479 37.2031 97.9043 37.5841 97.7973Z" fill="white"/>
<path d="M37.648 87.9005L37.2794 88.5102C37.4401 88.0266 37.6955 87.596 37.9901 87.3738L37.648 87.9005Z" fill="white"/>
<path d="M38.1244 97.0232C38.1565 96.4428 38.2225 95.8699 38.3193 95.3009C38.3098 95.5045 38.2434 96.8808 38.1941 96.9213C38.1407 96.965 38.1158 97.5182 38.1158 97.5182L37.8459 97.6703C38.0357 97.5243 38.1092 97.2958 38.1244 97.0232Z" fill="white"/>
<path d="M38.2267 91.359C38.1939 91.2813 38.155 91.2083 38.1115 91.1393L38.1941 91.2134L38.3432 91.6073C38.305 91.524 38.2659 91.4411 38.2267 91.359Z" fill="white"/>
<path d="M38.7276 93.4676L38.7591 93.9765L38.3268 95.2572C38.4216 94.7072 38.5451 94.1607 38.6938 93.6151C38.7072 93.5659 38.7185 93.5168 38.7276 93.4676Z" fill="white"/>
<path d="M39.3447 87.2027H38.335C38.6585 87.0974 39.0023 87.1029 39.3447 87.2027Z" fill="white"/>
<path d="M40.731 88.1521C41.4671 88.99 41.9572 89.9299 42.2827 90.9534L41.5661 89.5523L40.4714 87.8829C40.5604 87.9665 40.647 88.0564 40.731 88.1521Z" fill="white"/>
<path d="M42.5059 91.7727C42.5211 92.0628 42.5362 92.3529 42.5507 92.6429L42.3409 91.1431C42.4022 91.3497 42.4568 91.5596 42.5059 91.7727Z" fill="white"/>
<path d="M43.8266 99.8924C43.5911 99.7334 43.3353 99.5713 43.3353 99.5713L42.8821 98.5813C42.8821 98.5813 42.6628 97.5766 42.6571 97.4601C42.6514 97.3435 42.5508 94.3913 42.5508 94.3913V92.6429C42.6281 94.1736 42.6972 95.7051 42.7691 97.2359C42.8195 98.3062 43.0549 99.2072 43.8266 99.8924Z" fill="white"/>
<path d="M45.1341 101.081C45.076 101.019 44.2272 100.256 44.2142 100.188C44.5748 100.425 44.8781 100.732 45.1341 101.081Z" fill="white"/>
<path d="M17.2275 63.9038C17.0464 63.8695 16.8761 63.8076 16.7305 63.6935L17.2275 63.9038Z" fill="#FFFEFF"/>
<path d="M23.5754 68.1225C23.1843 68.0844 22.8103 67.8943 22.4299 67.656C21.172 66.8674 20.0188 65.969 19.2617 64.6604C18.9506 64.1226 18.4933 63.9528 17.8928 63.9473C17.7049 63.9456 17.5121 63.9443 17.3278 63.9196L18.0712 63.8074L18.9485 64.0175L19.4895 64.9022L20.776 66.4165L22.9253 67.8725C22.9253 67.8725 23.3124 68.028 23.5754 68.1225Z" fill="#FFFEFF"/>
<path d="M29.5382 56.9709C29.3279 57.1815 29.0696 57.3368 28.7929 57.4723C28.2456 57.7402 27.7407 58.0732 27.274 58.4569L27.5453 58.1751L29.5382 56.9709Z" fill="#FFFEFF"/>
<path d="M34.8325 54.9644C33.6218 55.1803 32.4143 55.4139 31.2219 55.7248C30.7218 55.8552 30.2717 56.027 29.9514 56.416L30.0959 56.1221C30.0959 56.1221 31.7121 55.4377 31.756 55.4377C31.785 55.4377 33.6121 55.1543 34.8325 54.9644Z" fill="#FFFEFF"/>
<path d="M39.9336 55.1814C39.7219 55.1151 39.5323 54.9866 39.3672 54.7564C39.1935 54.5136 38.9777 54.3994 38.744 54.3581L39.0137 54.3165L39.3147 54.6368L39.9336 55.1814Z" fill="#FFFEFF"/>
<path d="M45.6588 57.9643C45.542 57.7155 45.4211 57.4847 45.2952 57.2714L45.5284 57.5199L45.6588 57.9643Z" fill="#FFFEFF"/>
<path d="M46.7209 64.1602C46.6115 63.5447 46.7957 62.8658 46.3233 62.3353C45.434 62.1836 44.9531 61.4946 44.463 60.8677C43.7052 59.8982 42.762 59.2486 41.5765 58.9338C40.913 58.6278 40.5097 57.9921 39.8683 57.64C38.1287 56.6855 36.276 56.8844 34.4564 57.141C31.9744 57.491 30.1643 58.977 28.6787 60.903C28.6728 60.907 28.6667 60.911 28.6608 60.9154C28.5859 61.149 28.4976 61.4576 28.3966 61.8638L28.2263 61.3043C27.7986 61.7929 27.5659 62.4179 27.208 62.9578C26.8734 63.4624 26.6966 64.2929 25.7556 64.011C25.7146 63.7889 25.6855 63.5663 25.6661 63.3433C25.6766 64.0323 25.7224 64.7195 25.8865 65.4016C26.1667 66.5644 25.5017 67.24 24.6153 67.8325C24.4015 67.9755 24.1967 68.0608 23.9978 68.1011C24.254 67.969 24.6796 67.7415 24.6796 67.7415L25.6739 66.8533L25.8201 65.6156L25.4985 62.7763L25.664 61.5671C25.664 61.5754 25.6644 61.5836 25.6644 61.592C25.6653 61.5749 25.6665 61.5577 25.6676 61.5406C25.6777 61.3794 25.6894 61.2186 25.7018 61.0582C25.7235 60.7757 25.7827 60.505 25.8749 60.248C25.8759 60.2449 25.877 60.2419 25.8781 60.2388C25.9533 60.0314 26.0501 59.8332 26.1666 59.6446L26.1856 59.5874L26.2395 59.5315C26.3729 59.3326 26.5287 59.1456 26.7041 58.9711C26.7056 58.9696 26.7069 58.9682 26.7086 58.9667C26.7779 58.8979 26.8501 58.8312 26.9253 58.7665C27.0114 58.6924 27.0982 58.6198 27.1858 58.5485C28.1118 57.7947 29.1248 57.2047 30.3327 56.9708C32.8826 56.4774 35.3552 55.6177 37.9504 55.3434C38.6355 55.271 39.3222 55.2204 40.0092 55.2022C39.9936 55.1986 39.9779 55.1944 39.9624 55.19C40.0693 55.19 40.6055 55.191 41.055 55.1982C41.0462 55.1987 41.0373 55.1995 41.0285 55.2001C41.2533 55.2054 41.4782 55.2147 41.7029 55.2286C42.0512 55.2499 42.3992 55.2818 42.7466 55.3257C42.9384 55.3501 43.1199 55.3917 43.2917 55.4493C43.8651 55.64 44.3318 56.0036 44.7226 56.4669C44.7229 56.4673 44.7235 56.4678 44.7239 56.4684C44.8587 56.6285 44.9844 56.8003 45.1024 56.9811C45.1576 57.0655 45.2108 57.1507 45.2622 57.2364C45.4166 57.494 45.5546 57.7577 45.6771 58.0272C46.0033 58.7445 46.2196 59.5033 46.3425 60.2963C46.3425 60.2963 46.7418 63.5044 46.6979 63.5772C46.6773 63.6116 46.6957 63.8828 46.7209 64.1602Z" fill="#FFFEFF"/>
<path d="M47.851 65.4075C47.4523 65.3341 47.1929 65.1754 47.0144 64.9223L47.851 65.4075Z" fill="#FFFEFF"/>
<path d="M49.5458 91.7641C49.3047 91.2659 49.4597 90.6977 49.3555 90.1732C48.9766 88.2646 48.4425 86.4086 47.6605 84.6251C47.398 83.879 47.1789 83.1195 46.9718 82.3569L47.7968 84.6901L48.4232 86.2482L49.1012 88.0828L49.3515 89.9466L49.5458 91.7641Z" fill="#FFFEFF"/>
<path d="M50.8011 66.2443C50.5787 66.1456 50.3514 66.0555 50.1181 65.9761C49.3733 65.743 48.6163 65.5481 47.8511 65.4075L49.8889 65.7846L50.8011 66.2443Z" fill="#FFFEFF"/>
<path d="M46.6071 60.8737C46.5994 61.061 46.5403 61.2026 46.2921 61.2667C46.1986 60.0476 45.9073 58.8863 45.3522 57.7941C44.5107 56.1384 43.1906 55.3527 41.3091 55.3738C38.1682 55.4092 35.1367 56.0562 32.1235 56.8474C30.841 57.1843 29.5124 57.3347 28.3235 58.0154C26.5464 59.0326 25.6815 60.5144 25.7819 62.5504C25.8069 63.0593 25.8619 63.5669 25.9031 64.075C26.2889 64.4833 26.0612 65.1316 26.4807 65.5718C26.8753 64.8177 26.6735 63.691 27.8711 63.53C28.7144 63.8648 28.7564 64.4269 28.3298 65.1217C27.9379 65.2498 28.0097 64.7497 27.6476 64.6514C27.4565 65.9228 27.6077 67.0175 28.6919 67.8342C28.956 68.1042 28.6092 68.4313 28.7776 68.7119C29.2893 70.7674 30.4392 72.2225 32.5867 72.7428C35.03 73.4047 37.319 73.0201 39.4766 71.744C41.2052 70.8712 42.1968 69.4299 42.7088 67.6112C42.8176 67.2244 42.8235 66.7944 43.1394 66.4839C43.298 66.4197 43.4486 66.4317 43.5908 66.5296C43.8918 68.4222 43.3034 70.0694 41.8962 71.29C39.2087 73.6216 36.1134 74.6829 32.5213 73.8085C30.166 73.2351 28.5789 71.8833 27.9757 69.4835C27.8978 69.1733 27.9417 68.7836 27.5714 68.598C27.0247 68.4427 27.4569 67.8692 27.1438 67.611C27.0247 67.5375 26.9608 67.4272 26.9178 67.3004C26.8323 66.8396 26.6357 66.7634 26.2313 67.036C25.4849 67.5388 24.8266 68.1673 24.0144 68.5769C23.8189 68.6235 23.6227 68.6227 23.4254 68.5902C22.5091 68.3083 21.7443 67.7838 21.063 67.1255C20.7693 66.8155 20.4698 66.5119 20.1022 66.2849C19.5599 65.9389 19.2749 65.3935 18.9706 64.8582C18.8347 64.6191 18.6246 64.3385 18.3293 64.5734C18.0304 64.8113 18.1499 65.1221 18.3995 65.3677C18.621 65.5857 19.1022 65.6485 18.9012 66.1203C18.8021 66.353 18.5564 66.4607 18.306 66.4554C17.8723 66.4465 17.6366 66.1585 17.4818 65.7931C17.3885 65.5732 17.3493 65.3352 17.2781 65.1076C17.009 64.2484 16.4644 63.8419 15.6007 63.9936C14.2651 64.2286 13.4587 65.1394 12.9401 66.3151C12.4394 67.4506 12.5068 68.5448 13.3214 69.5995C13.4457 69.2934 13.2191 69.1744 13.1473 69.0024C12.9849 68.6129 12.9725 68.2977 13.5201 68.3494C14.5077 68.4425 14.2485 67.9542 13.9708 67.4422C13.9383 67.3823 13.8967 67.3272 13.8673 67.2658C13.7373 66.9951 13.4751 66.6583 13.7532 66.4328C14.0716 66.1745 14.2709 66.5794 14.482 66.7704C14.6276 66.9023 14.7442 67.0761 14.9907 67.066C15.1659 66.6086 14.8568 66.1786 14.979 65.7479C15.0256 65.5838 15.0517 65.3892 15.2394 65.3394C15.4793 65.2759 15.6097 65.4561 15.7171 65.6329C15.9324 65.9872 15.7996 66.5417 16.3738 66.7398C16.6419 66.2999 16.288 65.9621 16.2191 65.5931C16.1825 65.3958 16.0968 65.1664 16.3516 65.0652C16.5684 64.9791 16.7379 65.1183 16.8844 65.2759C17.8595 66.325 17.5452 67.4593 16.2031 68.068C14.7175 68.7417 13.8918 70.441 15.4178 71.8793C15.9691 70.6874 16.6681 69.6095 17.4852 68.618C18.0422 67.9424 18.5561 67.1972 19.4312 66.8619C20.1577 67.2546 19.5009 67.5525 19.3106 67.7677C18.6316 68.5349 17.9796 69.3196 17.3856 70.1536C16.8706 70.8767 16.4068 71.6257 16.1855 72.4131C16.85 70.4384 18.3782 69.0149 19.8928 67.5873C20.1371 67.3571 20.4614 67.0073 20.7931 67.532C20.5681 68.1714 19.9955 68.5212 19.5574 68.9784C18.5213 70.0603 17.6448 71.2501 16.9687 72.585C16.5728 73.252 16.7271 73.813 17.2818 74.3147C19.2694 76.1119 21.6716 76.8251 24.2713 76.6529C25.7392 76.5558 26.7793 75.3465 27.9646 74.5552C28.3987 74.2656 27.7697 73.6387 28.3586 73.4186C29.121 73.7223 29.3536 74.3118 29.2628 75.076C29.2101 75.1678 29.1326 75.2323 29.0337 75.2699C28.4527 75.3988 28.1019 75.7361 28.2345 76.3506C28.635 78.203 29.0333 80.0576 29.677 81.8472C29.7459 82.0384 29.8555 82.2103 30.0685 82.2718C30.694 82.0496 29.873 81.1244 30.7022 81.0142C31.4226 81.6719 31.3621 82.5566 31.4092 83.4102C31.1366 84.1179 31.4474 84.4857 32.12 84.6956C33.1324 85.0116 34.1323 85.3784 34.9994 86.0006C35.2521 86.1818 35.8704 86.3422 35.3461 86.8781C34.3126 86.2531 33.2613 85.6879 32.0819 85.3469C31.3598 85.1382 30.9358 85.2041 30.7894 85.9904C30.563 86.7397 30.3367 87.4889 30.1103 88.2381C30.0687 88.3759 29.6688 89.4755 29.6688 89.4755C29.5191 90.0545 29.3649 90.633 29.2553 91.2196C29.008 92.5442 29.3454 93.0102 30.6673 93.3065C32.3512 93.6843 33.8118 92.9661 35.2999 92.3802C35.5814 93.0077 35.0466 93.1406 34.6829 93.3141C33.5268 93.8662 32.325 94.1728 31.0545 94.0129C30.9095 93.9909 30.7642 93.9664 30.6188 93.9401C30.765 93.9705 30.9102 93.9949 31.0545 94.0129C32.162 94.1806 33.2632 94.2023 34.348 93.773C34.5363 93.6983 34.7408 93.6527 34.942 93.755C35.1561 94.4175 34.6402 94.5836 34.2111 94.753C33.481 95.041 32.707 95.114 31.7816 95.0229C33.3642 95.7288 34.8366 96.1791 36.4405 95.8314C38.0288 94.937 38.5742 93.7265 38.1426 92.0395C38.0838 91.8099 38.0069 91.5846 38.0603 91.342C38.1193 91.1884 38.2029 91.071 38.3961 91.1147C38.98 92.206 39.1915 93.283 38.7093 94.522C38.4243 95.2547 38.4618 96.1242 38.4232 96.9355C38.3942 97.5446 38.2186 98.0166 37.6007 98.1883C36.9842 98.3595 36.7271 97.8643 36.5408 97.4482C36.2779 96.8604 35.8612 96.6962 35.2584 96.649C33.9276 96.5447 32.6392 96.2744 31.4323 95.6362C29.2097 94.4608 28.4286 92.7094 29.1421 90.287C29.2135 90.0446 29.2613 89.7912 29.3542 89.5523C29.3542 89.5523 29.3544 89.5517 29.355 89.5504C29.3552 89.5496 29.3555 89.5485 29.3561 89.5471C29.3569 89.545 29.3578 89.5424 29.3592 89.5391C29.4027 89.4222 29.7264 88.5442 29.9024 87.7731C29.9207 87.6931 29.9373 87.6144 29.952 87.5376C29.9522 87.5364 29.9524 87.5351 29.9528 87.534C30.0815 87.0032 30.3111 86.4953 30.5281 85.9845C30.6069 85.4465 30.7409 84.9091 30.7493 84.37C30.7585 83.7892 30.6892 83.2322 29.8866 83.1012C29.2693 83.0005 29.0813 82.4144 28.9438 81.8772C28.4464 79.9348 27.9614 77.9891 27.4722 76.0461C27.3794 76.0588 27.3023 76.048 27.2513 76.0794C25.8501 76.9447 24.4929 77.7036 22.6712 77.3605C20.2169 76.8979 18.0061 76.091 16.2524 74.2611C15.6593 73.6423 15.1575 72.9585 14.7066 72.2304C14.2554 71.5018 13.8477 70.8262 13.0599 70.2635C12.0042 69.5094 11.8486 68.1038 12.112 66.7999C12.4684 65.0377 14.493 62.9663 16.4178 63.2678C16.8019 63.4792 17.1651 63.8073 17.6404 63.6925C18.6526 63.4482 19.1747 63.9037 19.6777 64.7576C20.5278 66.2013 21.9052 67.1402 23.3721 67.8979C24.06 68.2532 25.7487 66.8567 25.6857 66.0332C25.5974 64.8801 25.4832 63.7288 25.3719 62.5776C25.1335 60.1128 26.329 58.4899 28.4361 57.4117C28.9799 57.1333 29.5476 56.945 29.7155 56.2241C29.8171 55.7876 30.3061 55.6859 30.6999 55.581C33.2443 54.9025 35.8462 54.5094 38.4364 54.0598C38.7683 54.0022 39.226 53.8924 39.3537 54.2764C39.6545 55.1814 40.3457 55.0409 41.0229 55.0312C44.333 54.9845 46.7447 57.5115 46.6071 60.8737Z" fill="#38295E"/>
<path d="M29.3544 89.5529C29.3544 89.5529 29.3546 89.5522 29.3554 89.5504C29.3549 89.5514 29.3544 89.5522 29.3544 89.5529Z" fill="#38295E"/>
<path d="M31.0548 94.013C30.9105 93.9949 30.7652 93.9706 30.619 93.9402C30.7645 93.9664 30.9097 93.9909 31.0548 94.013Z" fill="#38295E"/>
<path d="M49.5248 93.4134C49.4128 95.2623 48.7275 96.9131 47.6926 98.417C47.3147 98.9662 47.2028 99.4726 47.3236 100.123C47.6454 101.854 47.0461 102.345 45.3876 101.772C44.7916 101.168 44.2457 100.522 43.5483 100.013C42.7775 99.4506 42.5334 98.5938 42.4996 97.676C42.427 95.7054 42.3614 93.7347 42.293 91.7641C42.1879 91.5269 42.3333 91.4871 42.5194 91.479C42.7164 91.6044 42.8241 91.7943 42.9035 92.0046C42.9758 92.7496 43.4446 93.0258 44.1381 93.0669C45.195 93.1294 46.2352 93.0979 47.2587 92.769C47.6056 92.6576 48.035 92.3913 48.3213 92.9138C47.7563 93.7898 46.8348 93.9339 45.9165 94.0221C45.2035 94.0907 44.4786 94.0862 43.7653 93.9864C43.2333 93.9119 42.9945 94.1109 42.9985 94.6434C43.0071 95.7661 42.9344 96.8907 43.211 97.9994C43.383 98.6887 43.6124 99.3316 44.3711 99.5508C45.1455 99.7745 45.7449 99.4249 46.3154 98.9164C47.6346 97.7406 48.1805 96.178 48.6157 94.5496C48.739 94.0881 48.8073 93.6153 48.9041 93.1473C49.0635 92.7965 48.9547 92.3247 49.3809 92.0947C49.7835 92.496 49.5748 92.9635 49.5248 93.4136V93.4134Z" fill="#39295F"/>
<path d="M35.3463 86.8782C35.6559 86.4923 35.2251 86.4408 35.0613 86.3187C34.131 85.625 33.0577 85.2161 31.954 84.9078C31.1926 84.6951 30.8503 84.328 31.1703 83.541C31.7977 83.7702 32.5694 83.4393 33.1021 84.0347C32.9968 84.3653 32.7921 84.3238 32.698 84.2702C34.862 84.2065 35.724 86.3299 37.295 87.4217C37.6538 87.6711 37.5889 88.0705 37.4265 88.4434C37.1428 89.0953 36.8346 89.7373 36.6026 90.4102C36.5801 90.5072 36.5494 90.6018 36.5154 90.6954C36.3806 91.0111 36.3056 91.363 35.9964 91.5774C35.8481 91.6388 35.7082 91.6409 35.587 91.5177C35.4843 90.6064 35.3951 89.7084 35.8168 88.8274C36.1726 88.0842 35.8261 87.4517 35.3463 86.8784V86.8782Z" fill="#A2D7EA"/>
<path d="M36.309 90.7235C36.251 89.8721 36.8904 89.3025 37.1943 88.5993C37.4474 88.0138 37.5488 87.5785 36.7946 87.3264C36.5822 87.2553 36.3957 87.0689 36.2302 86.9025C35.0089 85.6751 33.7077 84.7986 32.3265 84.2731C32.4962 83.9668 32.7902 84.1259 33.0135 84.0716C34.1425 83.8765 35.0404 84.5432 35.552 85.2753C36.589 86.7592 37.959 86.8523 39.4971 86.7495C39.8353 86.7269 40.1751 86.6843 40.5148 86.7157C40.6179 86.7343 40.696 86.7915 40.7513 86.8789C40.7622 87.3996 40.8525 87.8927 41.2686 88.2661C41.7696 88.9136 42.2386 89.5854 42.4704 90.3762C42.5772 90.741 42.8269 91.1391 42.4753 91.5196C42.4142 91.6012 42.3533 91.6826 42.2923 91.7641C41.9443 90.4684 41.3186 89.3371 40.5091 88.2513C39.9662 87.523 39.3858 87.3949 38.5885 87.4127C37.7459 87.4318 37.7742 88.1239 37.5574 88.6077C37.351 89.0679 36.8685 89.5299 37.3774 90.0888C37.4606 90.2637 37.3443 90.3382 37.217 90.4081C36.8998 90.4709 36.6343 90.6838 36.3086 90.7233L36.309 90.7235Z" fill="#392B5F"/>
<path d="M35.5869 91.5175C35.7243 91.5179 35.8616 91.5181 35.999 91.5185C36.1605 92.5903 35.8413 93.2469 34.8797 93.8225C32.8842 94.6829 30.4746 94.577 29.6954 93.4391C31.5107 94.0767 33.1289 93.8027 34.6836 93.0247C34.9581 92.8874 35.4048 92.8872 35.3002 92.38C35.6312 92.1702 35.4533 91.7924 35.5871 91.5175H35.5869Z" fill="#A1D1E5"/>
<path d="M29.9522 87.5377C29.9375 87.6145 29.9209 87.6932 29.9026 87.7732C29.9167 87.6941 29.9333 87.6156 29.9522 87.5377Z" fill="#5A4B78"/>
<path d="M37.1861 90.2853C37.25 90.2199 37.3138 90.1544 37.3777 90.089C37.7537 90.395 38.1725 90.6589 38.3962 91.1149C38.3185 91.1948 38.241 91.2748 38.1633 91.3546C37.5804 91.2315 37.149 90.9706 37.1861 90.2853Z" fill="#38295E"/>
<path d="M43.4945 66.5537C43.3774 66.5532 43.2604 66.5528 43.1434 66.5522C41.9636 66.9056 41.6563 68.1105 40.8789 68.8581C38.8827 70.7139 36.5362 71.5554 33.8021 71.3241C32.8326 71.2422 31.9442 70.9542 31.1101 70.4749C30.13 70.0082 29.5999 68.9214 28.5126 68.5988C28.1528 68.2443 28.7535 68.1795 28.7182 67.9228C28.0736 67.0796 27.7197 66.1785 28.1557 65.12C28.3954 64.5109 28.6146 63.9083 27.6865 63.6755C27.8673 62.6822 28.0293 61.6834 28.547 60.7898C30.8062 57.3391 34.1496 56.3825 38.0363 56.7452C39.537 56.8853 40.6683 57.77 41.7029 58.7855C42.0048 58.9509 42.3185 59.1325 42.4425 59.4596C42.9361 60.7628 43.9258 61.7952 44.4202 63.0939C44.5195 63.3549 44.6351 63.6034 44.8705 63.7545C45.2893 64.0235 45.7306 64.5611 46.2 64.3237C46.5981 64.1224 46.3053 63.519 46.2624 63.0932C46.232 62.7924 46.1375 62.487 46.3824 62.2256C46.4034 62.0638 46.4244 61.9022 46.4632 61.6024C46.989 62.482 46.826 63.3717 46.9889 64.1861C47.1066 64.775 47.3091 65.0607 47.9333 65.1634C48.736 65.2955 49.5149 65.5707 50.3042 65.7844C50.3117 66.0743 50.0845 66.0933 49.886 66.146C49.3078 66.1549 48.7566 65.9829 48.1965 65.8766C46.5949 65.5728 46.5008 65.6164 45.8589 67.1343C45.4376 67.9154 45.6363 68.8958 45.0535 69.6237C44.4494 69.6366 44.5767 69.1712 44.5842 68.8461C44.6057 67.9124 45.0188 67.0898 45.3366 66.3547C44.7714 67.1659 44.7663 68.2966 44.2961 69.2587C43.902 69.1207 43.9335 68.7709 43.8888 68.458C43.859 67.7468 44.0262 67.0784 44.3351 66.4423C44.4998 66.108 44.7273 65.8122 44.9417 65.5078C45.1257 65.2466 45.1486 64.998 44.823 64.8337C44.5027 64.6721 44.3078 64.8151 44.2106 65.1314C44.1213 65.4223 44.0541 65.72 43.9453 66.0057C43.8459 66.2298 43.7575 66.4634 43.4948 66.5537H43.4945Z" fill="#36255E"/>
<path d="M46.3823 62.2256C46.4157 62.4598 46.4781 62.694 46.4771 62.928C46.4744 63.551 46.9629 64.3248 46.3177 64.7495C45.8747 65.041 44.3129 63.6791 44.1509 63.0014C44.0961 62.7725 44.0715 62.4632 43.915 62.3436C42.7208 61.4308 42.672 59.8248 41.7029 58.7856C42.9671 58.9403 43.8295 59.707 44.5909 60.6428C45.0984 61.2669 45.5712 61.9387 46.3823 62.2256Z" fill="#A0D6EA"/>
<path d="M28.6585 60.7812C28.5176 61.1667 28.4433 61.5598 28.437 61.5939C28.437 61.5948 28.4367 61.5956 28.4367 61.596C28.3334 62.3326 28.1858 63.0561 27.6863 63.6755C26.9833 64.0642 26.9722 64.7596 26.9302 65.4249C26.9052 65.8217 26.7394 66.1074 26.3502 66.1036C25.9524 66.0996 26.0822 65.7019 26.045 65.47C25.9707 65.0094 25.9476 64.5406 25.9033 64.0752C26.6191 63.6705 26.9447 62.9681 27.3135 62.287C27.6212 61.719 27.8006 61.0278 28.5277 60.7958C28.534 60.7937 28.5403 60.7917 28.5468 60.7898C28.5468 60.7898 28.6216 60.7744 28.6585 60.7812Z" fill="#A1D6E9"/>
<path d="M47.6758 84.5586C47.7358 84.5565 47.7955 84.5576 47.8553 84.5624C49.0458 86.8755 49.6829 89.3291 49.7431 91.9295C49.6427 92.4201 49.7719 92.9442 49.5249 93.4134C49.3978 92.9977 49.6596 92.5237 49.3325 92.1378C49.1303 91.8297 48.601 91.7936 48.6258 91.2942C48.99 90.7043 48.9841 90.0908 48.8379 89.4291C48.5512 88.1311 48.2023 86.8548 47.7503 85.6043C47.6302 85.2724 47.3619 84.9297 47.6758 84.5586Z" fill="#36285D"/>
<path d="M54.818 68.8135C54.6682 68.9359 54.5184 69.0581 54.3685 69.1806C54.0028 68.7226 53.5911 68.9135 53.178 69.0946C51.4739 69.8419 50.1715 71.0281 49.2581 72.6426C49.1436 72.8449 49.0291 73.132 48.768 73.0911C48.4874 73.0472 48.4895 72.7525 48.4967 72.5092C49.0804 70.8973 50.3545 69.8866 51.6613 68.904C52.1227 68.489 52.8911 68.4574 53.1144 67.7451C53.162 67.6141 53.2145 67.4898 53.3929 67.582C53.932 67.9191 54.3889 68.3506 54.8182 68.8137L54.818 68.8135Z" fill="#392C5E"/>
<path d="M53.3928 67.5818C53.3317 67.6335 53.2707 67.6852 53.2096 67.7369C53.0479 67.8702 52.8832 67.8095 52.7456 67.7132C51.9652 67.1664 51.1515 66.6879 50.2407 66.3832C50.0536 66.3207 49.8641 66.2091 49.8917 65.9506C50.0292 65.8952 50.1668 65.8401 50.3042 65.7848C51.4722 66.1477 52.4951 66.7581 53.3928 67.582V67.5818Z" fill="#36255E"/>
<path d="M46.3906 80.8834C46.3662 80.987 46.3263 81.0726 46.2753 81.145C46.08 81.4222 45.7223 81.5083 45.4435 81.6881C43.4408 82.7034 42.043 84.2803 41.1203 86.2993C41.0206 86.5172 40.9315 86.7429 40.6656 86.8143C39.5106 87.1394 38.3252 86.9645 37.1559 86.9894C36.6213 87.0008 36.3101 86.4727 35.9918 86.0834C35.1998 85.1143 34.2298 84.4157 33.0143 84.0716C32.6865 83.8041 32.3076 83.9807 31.9539 83.9568C31.6195 83.9341 31.2696 83.9834 31.1702 83.5404C31.0644 82.6913 31.1204 81.8046 30.5989 81.0496C30.3177 80.7926 30.3049 80.4395 30.2538 80.0998C30.2063 79.4275 30.1232 78.76 29.956 78.1048C29.9339 78.0097 29.9196 77.9133 29.9085 77.8166C29.8468 76.8847 29.2442 76.0851 29.248 75.1377C28.9917 74.525 28.9299 73.8043 28.2813 73.4093C27.4962 74.8683 26.0323 74.9586 24.6412 75.1995C23.624 74.1518 23.7693 72.7576 23.5587 71.4823C23.4148 70.611 23.5878 69.7277 23.7649 68.8616C23.8 68.6823 23.8991 68.5369 24.0123 68.3991C24.9773 67.6879 25.9424 66.9765 26.9167 66.2585C27.22 66.6536 26.9756 66.9961 27.0724 67.3039C27.2419 68.0514 26.9436 68.8315 27.2349 69.5699C27.3219 69.7936 27.2912 70.0455 27.4044 70.2626C27.5805 70.6242 27.4647 71.0585 27.6682 71.3233C27.4988 70.9624 27.5615 70.454 27.3439 70.0128C27.3206 69.4756 27.0581 68.9129 27.5248 68.4335C27.902 68.1192 28.0022 68.3468 28.1118 68.6948C29.4294 72.8814 32.2408 74.5898 36.6203 73.6448C39.2688 73.0732 41.6879 71.9904 43.0075 69.3433C43.4566 68.4424 43.3358 67.483 43.4944 66.5538C43.5906 66.3424 43.6868 66.131 43.7832 65.9196C44.236 65.7552 44.5486 65.8472 44.6227 66.3751C44.4255 67.0199 44.0827 67.6274 44.1212 68.3321C44.1025 69.453 44.206 70.5601 44.4959 71.6456C44.6439 71.9478 44.6987 72.2446 44.436 72.5191C45.353 72.7491 45.4503 73.454 45.5232 74.2427C45.6093 75.174 45.5097 76.1237 45.7779 77.0379C46.2018 77.6168 46.1533 78.2553 46.0527 78.9001C46.0459 78.9446 46.0386 78.9889 46.0314 79.0334C46.151 79.6501 46.2709 80.2667 46.3906 80.8834Z" fill="white"/>
<path d="M21.1354 66.951C21.8806 67.4362 22.626 67.9211 23.3712 68.4063C23.5098 68.6171 23.4061 68.815 23.3408 69.0153C22.9163 70.7871 23.2694 72.5109 23.664 74.2322C23.7117 74.6117 23.8984 74.9799 23.7615 75.3749C23.6209 75.7059 23.3237 75.8045 23.0129 75.7983C20.6164 75.7498 18.6023 74.8632 17.0304 73.0386C16.8976 72.8842 16.8485 72.6778 16.8096 72.4768C17.6924 70.4858 19.1465 68.9498 20.7695 67.5485C20.8398 67.3179 20.6642 66.9379 21.1356 66.9514L21.1354 66.951Z" fill="white"/>
<path d="M19.5228 66.9066C17.7263 68.4207 16.3397 70.2348 15.4961 72.4649C14.4468 71.6823 14.0483 70.4786 14.3447 69.5005C14.5102 68.9541 15.096 67.9837 16.0343 67.7314C17.3999 67.3645 17.4657 67.2092 16.9515 65.8911C16.8458 65.6198 16.6948 65.366 16.469 64.9119C16.2962 65.5497 16.6203 65.8489 16.7146 66.1954C16.8101 66.5464 17.0426 66.9826 16.5629 67.1704C16.0532 67.3701 15.8687 66.8939 15.6669 66.5416C15.4737 66.2046 15.7532 65.6934 15.2311 65.4316C15.0109 65.9641 15.3214 66.4072 15.414 66.8718C15.4613 67.1098 15.5251 67.383 15.2955 67.5225C15.0588 67.6664 14.8209 67.4818 14.6579 67.3166C14.376 67.0307 14.1322 66.7072 13.8112 66.3268C13.6913 66.9283 14.1441 67.1817 14.3143 67.5524C14.4674 67.8854 14.7658 68.2346 14.5014 68.5918C14.2284 68.9606 13.8763 68.6047 13.5598 68.5637C13.4348 68.5475 13.313 68.5076 13.1145 68.4607C13.1658 68.9285 13.5957 69.01 13.7033 69.31C13.7847 69.537 14.1263 69.772 13.7808 70.0062C13.4546 70.2272 13.2008 70.0214 13.02 69.7356C12.5512 68.995 12.2802 68.1848 12.3832 67.3117C12.5703 65.7278 13.4886 64.611 14.8708 63.9082C16.1449 63.2601 17.3062 63.9177 17.5952 65.3584C17.7763 66.262 18.059 66.3909 19.0533 65.8571C18.2701 65.815 17.7765 65.5755 17.8494 64.8147C17.8782 64.5127 17.8349 64.1551 18.2289 64.0724C18.5967 63.9952 18.9422 64.1334 19.0599 64.5041C19.29 65.2278 19.8666 65.6696 20.3421 66.1968C20.3144 66.7142 19.92 66.8119 19.523 66.9068L19.5228 66.9066Z" fill="#FEFEFE"/>
<path d="M31.0132 70.2086C34.6809 71.9267 37.9268 71.1481 40.8665 68.5574C41.4882 69.1315 41.3839 70.2902 40.622 71.0701C40.3177 71.3815 39.9335 71.6075 39.6366 71.9305C37.3824 73.3044 35.0069 73.8077 32.4386 72.9232C30.9979 72.1778 30.5598 71.3437 31.0132 70.2086Z" fill="#FEFEFF"/>
<path d="M16.8095 72.4767C18.1174 74.0821 19.8027 75.0672 21.8306 75.4627C22.45 75.5837 23.0926 75.7285 23.6888 75.3422C23.9539 75.3639 23.9854 75.5702 24.0337 75.7658C23.9289 75.2017 23.6017 74.7081 23.5078 74.1393C23.369 73.5357 23.2171 72.9356 23.2104 72.3119C23.2278 72.1005 23.2784 71.9092 23.508 71.8282C24.0205 72.4599 23.7779 73.2951 24.0904 73.9802C24.2818 74.3999 24.2076 74.9807 24.8037 75.1574C25.2356 74.9822 25.6569 74.7715 26.1016 74.639C26.9272 74.3931 27.7212 74.1125 28.2819 73.4101C28.9051 74.6712 27.8232 74.997 27.1043 75.492C25.8724 76.3401 24.6842 77.2267 22.9984 76.9567C20.8036 76.6052 18.7404 76.0253 17.0422 74.5098C16.3516 73.8937 16.1861 73.2344 16.8093 72.4772L16.8095 72.4767Z" fill="#A1D7EA"/>
<path d="M30.3829 82.6713C30.0156 82.78 29.6915 82.6414 29.5565 82.2626C29.3174 81.5921 29.0752 80.9197 28.8936 80.2325C28.5558 78.9533 28.2385 77.6677 27.9557 76.3754C27.752 75.4458 28.1147 75.0438 28.9875 75.1371C29.6974 75.9038 29.5787 77.032 30.1794 77.8462C30.2048 77.893 30.2048 77.9397 30.1794 77.9867C30.0376 78.7136 30.434 79.3885 30.3859 80.1063C30.4226 80.1413 30.4531 80.1776 30.4783 80.2152L30.4609 80.2418L30.5541 80.9433L30.597 80.9499C30.597 80.9834 30.5974 81.0165 30.5989 81.0496C30.2805 81.3552 30.6827 81.6624 30.5968 81.9742C30.5314 82.2116 30.7513 82.5624 30.3829 82.6713Z" fill="#A1D6E9"/>
<path d="M39.6368 71.9305C40.0651 71.211 40.846 70.7182 40.9853 69.8096C41.0518 69.3761 41.2199 68.9463 40.8662 68.5578C41.2117 68.061 41.5563 67.5639 41.9027 67.0683C42.2058 66.6347 42.532 66.2524 43.1432 66.5524C42.904 68.9463 41.7823 70.7696 39.6366 71.9307L39.6368 71.9305Z" fill="#A0D6E9"/>
<path d="M31.0131 70.2086C30.8318 71.4555 31.6316 72.1913 32.4386 72.9232C30.1048 72.405 28.9946 70.7846 28.5125 68.5988C28.9757 68.1204 29.2393 68.6281 29.5058 68.841C30.0351 69.2634 30.5136 69.7491 31.0131 70.2086Z" fill="#A1D6EA"/>
<path d="M19.5228 66.9066C19.7956 66.6697 20.0683 66.4329 20.3415 66.1964C20.6064 66.4483 20.8712 66.6998 21.1355 66.9513C21.0132 67.1505 20.8908 67.3499 20.7689 67.5487C20.3732 67.1146 20.1958 67.5809 20.0031 67.7655C18.4214 69.28 16.9051 70.8466 16.1716 72.9814C16.1389 73.0761 16.0786 73.1614 15.9734 73.3597C15.873 72.5295 16.037 71.9364 16.577 70.9757C17.2829 69.7199 18.2287 68.6477 19.1745 67.5712C19.3201 67.4054 19.8397 67.3408 19.5226 66.9066H19.5228Z" fill="#A2D3E7"/>
<path d="M30.0962 56.6831C30.1304 56.1789 30.5371 56.1358 30.892 56.0327C33.3913 55.3071 35.9768 55.0132 38.524 54.5289C38.7556 54.4848 39.0554 54.4192 39.1148 54.7387C39.1635 55.0011 38.8888 55.0309 38.6949 55.048C36.0583 55.2792 33.5599 56.1536 30.987 56.6796C30.7007 56.7382 30.3961 56.8711 30.0964 56.6831H30.0962Z" fill="#A0D0E4"/>
<path d="M28.1557 65.12C28.1387 66.095 28.5132 66.9921 28.7182 67.9228C27.9997 68.0118 27.8073 67.4723 27.6119 66.9733C27.325 66.2412 27.2622 65.4736 27.3742 64.6988C27.4128 64.4319 27.5334 64.0901 27.8169 64.0916C28.2141 64.0937 28.0221 64.4982 28.0898 64.7256C28.1276 64.8524 28.1349 64.9883 28.1559 65.1202L28.1557 65.12Z" fill="#EEEBF2"/>
<path d="M27.5249 68.4335C27.5249 69.0216 27.5249 69.6098 27.5249 70.1982C27.484 70.281 27.425 70.297 27.3479 70.2461C27.0744 70.0921 27.1219 69.8162 27.0898 69.5706C26.9583 68.8832 26.7932 68.192 27.3128 67.5767C27.8318 67.7522 27.0286 68.2525 27.5249 68.4335Z" fill="#A6D5E8"/>
<path d="M30.1794 77.8462C29.5464 77.8339 29.7474 77.2533 29.602 76.9406C29.3357 76.3678 29.1859 75.7413 28.9875 75.1371C29.0744 75.1371 29.1612 75.1375 29.2481 75.1377C29.7379 75.9794 30.0101 76.8953 30.1794 77.8462Z" fill="#38295E"/>
<path d="M23.1882 68.7893C23.2493 68.6616 23.3106 68.534 23.3715 68.4061C23.5851 68.4036 23.7989 68.4011 24.0124 68.3989C24.0086 68.5374 24.0048 68.6758 24.001 68.8144C23.7278 69.1908 23.8466 69.6936 23.5912 70.0759C23.1497 70.0151 23.236 69.6634 23.2027 69.3777C23.1999 69.1817 23.2006 68.9853 23.1882 68.7891V68.7893Z" fill="#A2D3E7"/>
<path d="M27.3128 67.5767C27.0136 68.2164 27.1713 68.9068 27.0898 69.5706C26.4803 68.8197 26.9696 68.0603 27.0724 67.3039C27.1524 67.3948 27.2326 67.4858 27.3126 67.5767H27.3128Z" fill="#3E2F63"/>
<path d="M34.8797 93.8225C35.4321 93.141 35.9293 92.4329 35.9983 91.5185C36.0969 91.26 36.1949 91.0014 36.2928 90.7429C37.007 90.7746 37.4411 91.2058 37.6348 91.8244C38.038 93.1123 38.1628 95.0319 36.5501 96.0356C35.1027 96.5208 32.5634 95.9746 31.1366 94.8239C32.074 94.7591 32.9446 94.7447 33.7992 94.6211C34.2521 94.5555 34.8614 94.5409 34.8801 93.8227L34.8797 93.8225Z" fill="#FEFEFF"/>
<path d="M36.55 96.0356C37.2003 95.2688 37.6496 94.4631 37.6288 93.3813C37.607 92.2413 37.345 91.3195 36.2928 90.7427C36.2928 90.7427 36.3095 90.7229 36.3093 90.7233C36.6086 90.5916 36.599 89.8464 37.1862 90.2855C37.512 90.642 37.8376 90.9984 38.1634 91.3548C38.9693 93.4921 38.3715 95.2262 36.5498 96.0358L36.55 96.0356Z" fill="#A2D6E9"/>
<path d="M38.1186 95.7203C38.3322 96.2257 38.0285 96.6662 37.9963 97.131C37.9751 97.4357 37.7893 97.6718 37.5133 97.7241C37.2049 97.7827 37.0461 97.4827 36.8905 97.2709C36.6929 97.0019 36.6317 96.662 36.9151 96.4436C37.2814 96.1615 37.6116 95.7872 38.1188 95.7203H38.1186Z" fill="#67509B"/>
<path d="M48.706 91.5202C48.5424 91.896 48.1979 91.9527 47.8499 92.004C46.4577 92.5545 45.0494 92.9231 43.5624 92.3671C43.2605 92.2369 42.935 92.1529 42.6735 91.9384C42.6077 91.7989 42.5418 91.6592 42.4759 91.5196C42.4006 90.2618 41.7012 89.2818 41.0266 88.2908C41.0677 87.4532 41.5151 86.8001 41.997 86.1617C42.7249 85.4969 43.1383 84.5666 43.9163 83.936C44.3147 83.6129 44.68 83.2635 45.1939 83.133C46.1732 82.4412 46.8917 82.6721 47.3493 83.8256C47.4479 84.0738 47.5665 84.3143 47.6757 84.5586C48.2427 86.2516 48.7868 87.9477 49.1651 89.6994C49.326 90.445 49.2601 91.0123 48.706 91.5202Z" fill="white"/>
<path d="M49.1517 93.1665C48.8579 94.9521 48.4261 96.69 47.362 98.2026C47.1868 98.4516 46.9856 98.6852 46.7773 98.9082C46.0697 99.6663 45.2385 100.251 44.1652 99.8756C43.1652 99.526 42.9205 98.5782 42.8533 97.6395C42.7735 96.5236 42.7968 95.4009 42.7418 94.2827C42.7111 93.656 42.8185 93.4984 43.5366 93.6535C45.165 94.0052 46.7913 93.9497 48.2349 92.9283C48.626 92.681 49.0772 92.2038 49.1515 93.1665H49.1517Z" fill="white"/>
<path d="M49.1516 93.1665C49.0037 92.4851 48.534 93.0326 48.235 92.9285C47.9483 92.5294 47.6634 92.8973 47.44 92.983C46.3215 93.4119 45.1778 93.4495 44.0079 93.3442C43.1344 93.2655 42.5711 92.9229 42.6736 91.9386C42.9546 91.9753 43.2671 91.8169 43.5133 92.0719C44.4265 92.9731 45.4906 92.6849 46.536 92.4302C47.0359 92.3084 47.4559 91.9935 47.8968 91.7365C48.1667 91.6643 48.4364 91.5923 48.7063 91.5202C48.9585 91.6825 49.4555 91.5985 49.3328 92.138C49.2316 92.4737 49.3858 92.8539 49.152 93.1665H49.1516Z" fill="#A1D3E7"/>
<path d="M46.3778 101.315C45.9638 101.158 45.4364 100.969 45.4658 100.506C45.4954 100.043 46.1062 99.8855 46.4866 99.819C47.001 99.7289 46.9172 100.323 46.9825 100.621C47.0657 100.999 46.7475 101.21 46.3778 101.315Z" fill="#67509C"/>
<path d="M46.1678 82.0385C45.7504 82.3042 45.3847 82.6508 44.996 82.9614C43.9762 83.9649 42.9017 84.9204 42.1445 86.1566C41.7717 86.8677 41.3989 87.5791 41.0264 88.2906C40.4869 87.9791 40.4165 87.5357 40.6635 87.0038C41.5035 85.5926 42.1812 84.0818 43.4786 82.9698C44.1077 82.4306 44.9445 82.1533 45.4123 81.4225C45.7386 81.2427 46.0646 81.0631 46.3906 80.8834C46.7164 81.345 46.6836 81.7104 46.1678 82.0385Z" fill="#A2D6E9"/>
<path d="M45.4124 81.4225C45.5997 81.7849 45.2729 81.9157 45.0793 82.0368C43.2725 83.1684 41.9905 84.7402 41.1056 86.6545C41.0174 86.8453 40.9077 87.009 40.6634 87.0039C40.6632 86.9405 40.6637 86.8774 40.6655 86.8143C41.5389 84.398 43.128 82.6067 45.4122 81.4225H45.4124Z" fill="#3B2E60"/>
<path d="M51.8131 69.0205C50.5225 69.9801 49.3769 71.0694 48.6477 72.5311C48.4618 72.6854 48.7533 73.1152 48.3057 73.1186C47.5758 72.451 46.641 72.543 45.7596 72.4381C45.4141 72.3067 44.8002 72.5309 44.792 71.9505C44.7811 71.1713 44.077 70.3193 44.9642 69.6052C45.2547 68.738 45.2341 67.7892 45.6632 66.9583C45.78 66.8729 45.9193 66.8285 46.0451 66.8956C47.4557 67.6487 49.0463 67.7691 50.5525 68.186C51.0452 68.3223 51.6724 68.3276 51.8133 69.0205H51.8131Z" fill="white"/>
<path d="M42.072 66.0059C41.7539 64.8575 41.4307 63.7715 40.6069 62.9666C40.0222 62.5254 39.8229 62.9482 39.8149 62.966C39.8149 62.966 39.8149 62.9662 39.8149 62.9664C39.7178 63.2603 39.6865 63.5489 39.5651 63.7249C39.0957 64.7058 39.014 64.1741 39.014 64.1741C39.0163 64.0148 38.9815 63.9095 38.9375 63.8401C38.8628 63.7234 38.7609 63.7082 38.7609 63.7082C38.7008 63.7232 38.6464 63.7764 38.6025 63.8367C38.5322 63.9323 38.4881 64.0446 38.4881 64.0446C38.306 64.3682 38.2346 64.0964 38.2346 64.0964C38.2262 63.985 38.1739 63.8865 38.1069 63.8044C37.9682 63.6337 37.7668 63.5335 37.7668 63.5335C37.703 63.6498 37.6471 63.7357 37.5983 63.7983C37.3537 64.1114 37.2862 63.8359 37.2862 63.8359C37.3079 63.6943 37.3408 63.4814 37.3791 63.2329C37.0354 63.1059 36.9174 63.5534 36.6177 63.5217C36.4536 63.1702 36.9218 62.9255 36.7907 62.5615C36.608 62.6199 36.431 62.6763 35.9529 62.829C36.7427 62.23 36.2549 61.754 36.1688 61.2762C36.1686 61.243 36.1646 61.2127 36.1577 61.185C36.1064 60.9795 35.8916 60.9211 35.8046 60.9057C35.8046 60.9057 35.8044 60.9057 35.8042 60.9057C35.7817 60.9017 35.7679 60.9006 35.7679 60.9006C35.0588 60.8067 34.3377 60.8936 33.5679 60.9496C34.0622 60.4715 34.6553 60.4244 35.2045 60.3079C38.3663 59.637 41.6317 61.3376 42.4101 64.0319C42.5985 64.6838 42.6044 65.2978 42.0722 66.0059H42.072Z" fill="#EC70A7"/>
<path d="M35.7677 60.9006C35.7677 60.9006 35.7812 60.9017 35.8034 60.9057C35.7915 60.9038 35.7795 60.9021 35.7677 60.9006Z" fill="#EC70A7"/>
<path d="M36.1685 61.2762C36.1628 61.2458 36.159 61.2154 36.1575 61.185C36.1643 61.2127 36.1684 61.2429 36.1685 61.2762Z" fill="#EC70A7"/>
<path d="M40.3654 62.7508C40.3396 62.7295 40.3135 62.7088 40.2867 62.6883C40.3117 62.7048 40.3381 62.7256 40.3654 62.7508Z" fill="#EC70A7"/>
<path d="M42.717 61.9309L41.254 60.2238C41.1883 60.1907 41.1236 60.1533 41.06 60.1179C39.5336 59.2705 37.9054 58.8237 36.1528 58.8447C35.8382 58.8485 35.5404 58.7853 35.2866 58.5837C35.2207 58.7139 35.1548 58.8443 35.089 58.9745C32.9044 59.1749 31.1199 60.1189 29.7389 61.8203C29.5493 62.0537 29.3674 62.3269 28.9912 62.2509C29.7662 59.4914 31.8567 58.1253 34.4223 57.4457C35.3717 57.1942 36.4158 56.9119 37.4637 57.1558C38.5298 57.4039 39.5758 57.7178 40.4649 58.3652C40.7936 58.6046 41.1469 58.8361 41.4229 59.1304C41.4235 59.1308 41.4238 59.1313 41.4242 59.1319C41.4248 59.1323 41.4252 59.1328 41.4258 59.1336C41.4452 59.1568 41.5609 59.2969 41.7178 59.5313C42.0364 60.0073 42.5243 60.8715 42.717 61.9309Z" fill="#69519D"/>
<path d="M41.7177 59.5313C41.5608 59.2969 41.4451 59.1568 41.4257 59.1336C41.5385 59.2539 41.6381 59.3849 41.7177 59.5313Z" fill="#69519D"/>
<path d="M51.8131 69.0205C51.1849 68.4249 50.3401 68.3641 49.5676 68.2226C48.2013 67.9725 46.8757 67.6546 45.6632 66.9585C46.3488 65.3019 46.4408 65.2529 48.1126 65.601C48.7043 65.7242 49.2987 65.8342 49.8917 65.9504C51.0622 66.427 52.2019 66.9604 53.2096 67.7369C53.4747 67.977 53.5896 68.1833 53.1456 68.3728C52.6919 68.5665 52.2565 68.8028 51.8133 69.0207L51.8131 69.0205Z" fill="#A0D7EA"/>
<path d="M42.699 63.0417C42.0077 62.4223 41.6503 61.6108 40.9298 61.0878C39.6035 60.1255 38.1744 59.613 36.555 59.7906C35.5558 59.9003 35.1937 59.5241 35.2865 58.5837C37.3609 58.3694 39.255 58.8838 41.0588 59.7638C41.0609 59.7649 41.0647 59.7668 41.0701 59.7695C41.1754 59.8239 41.8649 60.1925 42.2825 60.7515C42.2825 60.7517 42.2825 60.7519 42.2829 60.7521C42.6696 61.4133 42.8569 62.1459 42.699 63.0417Z" fill="#83539D"/>
<path d="M35.2841 58.5905C35.2677 58.6392 35.1673 58.9426 35.1082 59.2872C35.1007 59.33 35.094 59.3735 35.0881 59.4173C35.0108 59.7389 34.7386 59.9115 34.3065 60.0356C32.1102 60.6673 30.1373 61.6545 28.9455 63.8074C28.8075 63.3171 28.8227 62.7982 28.9911 62.2509C29.9846 61.0901 30.9993 59.9336 32.4817 59.391C32.9688 59.2129 33.4498 58.9203 33.9616 58.8162C33.9616 58.8162 33.9627 58.8158 33.965 58.8154C34.0282 58.7994 34.9465 58.5715 35.2841 58.5905Z" fill="#83539D"/>
<path d="M35.1082 59.2872C35.1047 59.333 35.0981 59.3764 35.0881 59.4173C35.0941 59.3735 35.1007 59.33 35.1082 59.2872Z" fill="#83539D"/>
<path d="M44.9642 69.6052C44.5746 70.3915 45.032 71.1657 45.0049 71.9495C44.9881 72.4358 45.576 72.1641 45.7602 72.4381C45.3183 72.4653 44.8768 72.4926 44.4359 72.5194C44.4664 72.3048 44.5195 72.0881 44.3603 71.8969C44.3408 70.9965 43.8888 70.1014 44.3267 69.1954C44.4754 67.4607 44.8337 66.5112 45.7577 65.5002C45.8421 66.053 45.4613 66.3899 45.3441 66.7999C45.0816 67.7183 44.4771 68.5869 44.9642 69.605V69.6052Z" fill="#A6D5E8"/>
<path d="M44.6228 66.375C44.4069 66.1064 44.1152 65.976 43.7831 65.92C43.8413 65.6559 43.8886 65.3894 43.9604 65.1293C44.0379 64.8482 44.0089 64.4381 44.3765 64.3952C44.7558 64.3509 45.0925 64.5906 45.359 64.8664C45.709 65.2288 45.2624 65.3941 45.1368 65.6257C44.9934 65.8905 44.7965 66.1264 44.6229 66.3749L44.6228 66.375Z" fill="#9FD2E6"/>
<path d="M42.6725 65.8589C43.2003 64.7318 43.3608 63.5544 43.3201 62.328C44.1982 63.3667 43.6519 64.4782 43.503 65.5527C43.4444 65.9758 43.0972 66.0357 42.6725 65.8589Z" fill="#E3DFE9"/>
<path d="M44.3266 69.1954C44.236 70.0972 44.5986 70.9933 44.3602 71.8969C43.7351 70.7449 43.9138 69.5394 44.1213 68.3321C44.239 68.6081 44.0852 68.9484 44.3266 69.1954Z" fill="#38295E"/>
<path d="M46.9771 80.0097C46.2991 80.0791 46.5505 79.3906 46.382 79.0419C46.3381 78.9513 46.2921 78.8617 46.247 78.7718C46.2398 78.7575 46.2327 78.7431 46.2256 78.7288C45.8609 77.9793 45.87 77.1873 45.9735 76.3845C45.926 75.5061 45.8618 74.6278 45.8389 73.7486C45.83 73.4015 45.5799 72.9308 46.3072 72.881C46.9569 72.8365 47.1268 73.1177 47.1869 73.6688C47.3196 74.8856 47.4629 76.1013 47.6093 77.3166C47.6654 77.7829 47.7221 78.2492 47.7786 78.7153C47.858 79.37 47.6922 79.9365 46.9771 80.0097Z" fill="#A0D5E9"/>
<path d="M49.2914 73.5013C49.0328 73.7053 48.9465 74.0009 48.8639 74.2978C48.6776 73.9041 48.4915 73.511 48.3055 73.1183C48.4199 72.9223 48.534 72.7261 48.648 72.5305C48.6673 72.6607 48.6461 72.8725 48.7134 72.9055C48.9648 73.0293 48.9394 72.7394 48.9938 72.6365C49.9767 70.7808 51.4892 69.5155 53.4085 68.7188C53.8318 68.5431 54.4297 68.2475 54.3688 69.1804C52.304 69.4041 49.6081 71.6984 49.2916 73.5011L49.2914 73.5013Z" fill="#A0CFE4"/>
<path d="M42.1446 86.1566C42.6785 84.7229 43.7692 83.7819 44.9961 82.9614C45.062 83.0186 45.1278 83.0758 45.1937 83.1331C44.262 84.0299 43.158 84.7689 42.5653 85.9764C42.4763 86.1577 42.3183 86.1744 42.1444 86.1566H42.1446Z" fill="#36285D"/>
<path d="M45.9737 76.3847C46.065 77.1805 46.156 77.9762 46.2473 78.7718C46.1753 78.8591 46.1035 78.9463 46.0316 79.0336C45.8384 78.3821 45.7363 77.7192 45.7781 77.0381C45.8225 76.8142 45.7622 76.5591 45.9737 76.3847Z" fill="#302656"/>
<path d="M42.5341 80.5C41.6268 81.372 40.3964 81.2129 39.3046 81.4883C38.9868 81.5685 38.6344 81.513 38.2981 81.5197C37.8385 81.5684 37.3689 81.7509 36.9373 81.4212C37.5417 80.7049 38.4308 81.0249 39.1779 80.8462C39.7957 80.6983 40.4361 80.5985 41.0653 80.4721C41.7316 80.3382 42.0374 79.9289 42.0258 79.2511C42.0153 78.6437 42.017 78.0418 41.8658 77.4428C41.7677 77.0543 41.5921 76.8434 41.1771 76.8775C39.1006 76.7933 37.0442 76.991 34.9948 77.2919C33.6521 77.489 33.47 77.7208 33.5955 79.0904C33.6415 79.593 33.7997 80.0867 33.7207 80.6006C33.6523 80.8304 33.6157 81.0901 33.283 81.0794C32.9701 79.5185 32.8106 77.9519 33.0618 76.3633C33.1887 75.5607 33.6206 75.0647 34.4414 74.9752C35.2832 74.8831 36.1295 74.8309 36.9738 74.7611C37.0883 74.9099 37.4504 74.744 37.405 75.0964C36.7846 75.653 35.966 75.3324 35.2687 75.5702C34.8635 75.7084 34.3767 75.6297 34.0738 76.0412C34.1169 76.3465 34.3731 76.3043 34.5447 76.2863C36.5361 76.0754 38.5398 76.0032 40.5274 75.7466C41.0599 75.6778 41.363 75.4958 41.2107 74.9067C41.2991 74.6248 41.4757 74.5923 41.7118 74.7305C42.4119 75.6213 42.3676 76.7168 42.5497 77.7502C42.6499 78.6674 42.6725 79.5845 42.5343 80.5004L42.5341 80.5Z" fill="#372B5C"/>
<path d="M36.9716 81.3269C37.3772 81.6393 37.8635 81.3994 38.2978 81.5197C36.9891 81.8117 35.6491 81.7503 34.3237 81.8421C33.8406 81.8755 33.3684 81.6864 33.2828 81.0794C33.4638 80.9779 33.4646 80.7908 33.5023 80.6213C33.8301 80.623 34.0626 80.8751 34.3665 80.9416C34.8967 81.0636 35.4342 80.9798 35.9666 81.0117C36.3268 81.0334 36.715 80.9743 36.9716 81.3269Z" fill="#413566"/>
<path d="M23.5618 70.0063C23.7065 69.6085 23.4105 69.0494 24.001 68.8146C23.7506 70.5223 23.7378 72.2198 24.2412 73.8914C24.375 74.3357 24.4616 74.8037 24.8039 75.1573C24.4196 75.6958 24.3322 75.1519 24.269 74.9702C23.9224 73.9747 23.6372 72.9603 23.5647 71.9003C23.2184 71.2695 23.2202 70.6382 23.5618 70.0063Z" fill="#413466"/>
<path d="M41.7116 74.7299C41.5679 74.7928 41.424 74.8557 41.2803 74.9185C40.674 75.4355 39.976 75.2089 39.2997 75.1643C38.8114 74.9308 38.1816 75.1713 37.7595 74.713C39.0779 74.4949 40.3959 74.3413 41.7116 74.7297V74.7299Z" fill="#422F68"/>
<path d="M27.3479 70.2459C27.4162 70.2645 27.4752 70.2485 27.5248 70.1982C27.7069 70.8741 27.889 71.5499 28.0713 72.2259C27.4594 71.6684 27.362 70.9694 27.3479 70.2461V70.2459Z" fill="#38295E"/>
<path d="M30.3859 80.1063C30.2649 79.4048 29.8017 78.7366 30.1794 77.9869C30.271 78.691 30.6095 79.3716 30.3859 80.1063Z" fill="#3B2D62"/>
<path d="M42.5342 80.5C42.5393 79.5831 42.5445 78.6665 42.5496 77.7496C42.7879 78.6678 42.8568 79.585 42.5342 80.5Z" fill="#4A376F"/>
<path d="M37.7595 74.7132C38.2317 74.8721 38.7683 74.5716 39.2147 74.9149C38.6335 75.37 38.0372 75.3346 37.4306 74.9696C37.2783 74.9001 37.126 74.8305 36.9736 74.7609C37.2355 74.7449 37.4976 74.729 37.7595 74.7132Z" fill="#29214E"/>
<path d="M23.1883 68.7893C23.2482 68.9047 23.308 69.0199 23.3679 69.1353C23.3131 70.2006 23.4568 71.2655 23.3708 72.3309C23.4704 72.9899 23.5698 73.6488 23.6695 74.3079C23.5996 74.3809 23.5265 74.3843 23.45 74.3181C22.9363 72.4953 22.566 70.6656 23.1883 68.7893Z" fill="#2F2553"/>
<path d="M23.45 74.3181C23.5231 74.3147 23.5964 74.3115 23.6695 74.3081C23.921 74.9369 24.1728 75.5658 24.4456 76.2475C23.7647 76.1821 23.9165 75.6258 23.6884 75.3416C23.6091 75.001 23.5295 74.6596 23.45 74.3183V74.3181Z" fill="#423768"/>
<path d="M23.3708 72.3309C23.0832 71.2661 23.1147 70.201 23.3679 69.1357C23.4517 69.4216 23.304 69.7588 23.5619 70.0063C23.5628 70.6377 23.5638 71.269 23.5647 71.9003C23.5 72.0438 23.4353 72.1873 23.3708 72.3311V72.3309Z" fill="#A2D3E7"/>
<path d="M47.8967 91.7366C47.0677 93.0538 44.3832 93.2034 43.3368 92.4091C43.0161 92.1658 43.3294 92.1219 43.5137 92.0721C44.7419 92.5848 45.9537 92.4996 47.1337 91.9318C47.3857 91.8105 47.6201 91.7177 47.8967 91.7366Z" fill="#38295E"/>
<path d="M34.0582 81.1104C33.6588 81.1887 33.6776 80.7958 33.5025 80.6213C33.5023 80.5538 33.5079 80.4855 33.501 80.4188C33.0874 76.4102 32.8699 77.3721 36.4289 76.81C38.0362 76.556 39.6671 76.4581 41.3003 76.5837C42.498 78.2587 41.6851 80.3433 39.6179 80.826C38.5278 81.0805 37.4226 81.2682 36.2893 81.1851C35.5472 81.1307 34.798 81.2615 34.0584 81.1106L34.0582 81.1104Z" fill="white"/>
<path d="M37.4308 74.9696C38.0256 74.9514 38.6204 74.9331 39.215 74.9149C39.9035 74.916 40.592 74.9174 41.2805 74.9185C41.6679 75.0681 41.7853 75.3901 41.7063 75.7445C41.6227 76.1197 41.2556 75.9612 41.0157 75.984C38.8391 76.1901 36.6618 76.391 34.482 76.556C34.1645 76.58 33.6264 76.8588 33.5285 76.3661C33.4205 75.8222 33.8822 75.5126 34.4006 75.4257C35.4079 75.2569 36.4205 75.1198 37.4308 74.9696Z" fill="#A0D5E8"/>
<path d="M34.0582 81.1104C35.5135 80.9825 36.9897 81.2598 38.432 80.892C38.9239 80.7665 39.4246 80.6564 39.8962 80.4747C41.2759 79.9432 41.5727 79.4101 41.4782 77.6818C41.458 77.3135 41.3614 76.9495 41.3001 76.5836C41.5716 76.5339 41.9043 76.4513 42.0087 76.7834C42.3601 77.9013 42.4586 79.0516 42.1847 80.1975C42.099 80.5555 41.7 80.6042 41.3519 80.6819C39.9067 81.0041 38.4484 81.2226 36.972 81.3271C36.0023 81.234 35.0086 81.4628 34.0586 81.1106L34.0582 81.1104Z" fill="#A1D6E9"/>
<path opacity="0.1" d="M17.3277 63.9196L17.2817 63.9266L17.2275 63.9038C17.2608 63.9099 17.2942 63.9152 17.3277 63.9196Z" fill="white"/>
<path opacity="0.1" d="M23.9977 68.1012C23.8989 68.1521 23.8252 68.1888 23.8107 68.1928C23.7941 68.1975 23.6982 68.1667 23.5753 68.1225C23.7137 68.136 23.854 68.1304 23.9977 68.1012Z" fill="white"/>
<path opacity="0.1" d="M26.1666 59.6446L26.1601 59.6636L25.7615 60.8542L25.6676 61.5406L25.664 61.5671C25.6638 61.5557 25.6636 61.5441 25.6634 61.5327C25.6546 61.0701 25.7278 60.6426 25.8749 60.248C25.8759 60.2449 25.877 60.2419 25.8782 60.2388C25.9534 60.0314 26.0501 59.8332 26.1666 59.6446Z" fill="white"/>
<path opacity="0.1" d="M27.2741 58.4569L27.1859 58.5485L26.2582 59.5121L26.2395 59.5315C26.3729 59.3327 26.5287 59.1456 26.7041 58.9711C26.7056 58.9696 26.707 58.9682 26.7087 58.9667C26.7587 58.9154 26.8106 58.865 26.8642 58.8152C26.9975 58.6915 27.134 58.5719 27.2741 58.4569Z" fill="white"/>
<path opacity="0.1" d="M29.9515 56.416L29.7382 56.85L29.5382 56.9709C29.6373 56.8716 29.7258 56.76 29.8007 56.6325C29.847 56.5536 29.8974 56.4815 29.9515 56.416Z" fill="white"/>
<path opacity="0.1" d="M13.9801 70.6356C13.9544 70.6091 13.9282 70.5835 13.9011 70.5582L13.9483 70.5808L13.9801 70.6356Z" fill="white"/>
<path opacity="0.1" d="M14.6092 63.9659L13.7102 64.6218C13.9847 64.3604 14.2842 64.1418 14.6092 63.9659Z" fill="white"/>
<path opacity="0.1" d="M16.7305 63.6935L16.3516 63.5335L15.8456 63.524C16.0076 63.4911 16.1747 63.4656 16.3463 63.4475C16.393 63.432 16.4388 63.4171 16.4839 63.4027C16.5534 63.5255 16.637 63.6203 16.7305 63.6935Z" fill="white"/>
<path opacity="0.1" d="M19.7412 76.3214C19.5022 76.2249 19.268 76.1192 19.0386 76.004C19.252 76.1009 19.5018 76.214 19.7412 76.3214Z" fill="white"/>
<path opacity="0.1" d="M24.8039 77.0605C24.6361 77.1031 24.4611 77.1278 24.2761 77.1278C24.1973 77.1278 24.1187 77.1272 24.0404 77.1261L24.8039 77.0605Z" fill="white"/>
<path opacity="0.1" d="M25.9474 76.5317C25.5824 76.7467 25.2146 76.9567 24.8038 77.0605L25.9474 76.5317Z" fill="white"/>
<path opacity="0.1" d="M27.5556 76.0146C27.4989 75.9678 27.4363 75.9393 27.3651 75.9279L27.5249 75.8956L27.5556 76.0146Z" fill="white"/>
<path opacity="0.1" d="M29.4752 82.3605C29.4647 82.3605 29.4594 82.3647 29.4588 82.3723C29.2439 82.0652 29.1286 81.7001 29.0244 81.3056C28.9427 80.9967 28.8663 80.6865 28.7928 80.3755C29.1149 81.2047 29.5501 82.3605 29.4752 82.3605Z" fill="white"/>
<path opacity="0.1" d="M30.8932 83.4526L30.8858 83.5631C30.8547 83.4999 30.818 83.4401 30.7756 83.3836L30.8932 83.4526Z" fill="white"/>
<path opacity="0.1" d="M38.7441 54.3582L35.9082 54.7969C35.9082 54.7969 35.4475 54.8688 34.8326 54.9644C35.91 54.7724 36.9901 54.5943 38.0646 54.3886C38.2933 54.3447 38.5263 54.3196 38.7441 54.3582Z" fill="white"/>
<path opacity="0.1" d="M39.9619 55.1899H39.9432L39.9336 55.1815C39.943 55.1845 39.9526 55.1873 39.9619 55.1899Z" fill="white"/>
<path opacity="0.1" d="M45.2952 57.2714L45.2622 57.2364L44.2565 56.1656L42.9405 55.4813C42.9405 55.4813 41.7516 55.267 41.7029 55.2286C41.6832 55.213 41.3937 55.2037 41.0551 55.1982C41.9331 55.133 42.6659 55.2104 43.2918 55.4493C43.8652 55.64 44.3319 56.0036 44.7226 56.4669C44.723 56.4673 44.7235 56.4679 44.7239 56.4684C44.927 56.7019 45.1164 56.9692 45.2952 57.2714Z" fill="white"/>
<path opacity="0.1" d="M29.2286 92.6924L29.3065 93.0211C29.2244 92.8188 29.1654 92.618 29.1261 92.4188C29.153 92.5163 29.1872 92.6074 29.2286 92.6924Z" fill="white"/>
<path opacity="0.1" d="M29.307 93.022C29.3312 93.0589 30.0663 94.174 30.2625 94.4658C29.9171 94.1164 29.6189 93.6991 29.3818 93.1939C29.3549 93.1363 29.3297 93.0792 29.307 93.022Z" fill="white"/>
<path opacity="0.1" d="M30.4025 94.6013C30.6936 94.7962 31.5788 95.3437 31.9596 95.5946C31.3868 95.3414 30.8581 95.0243 30.4025 94.6013Z" fill="white"/>
<path opacity="0.1" d="M32.658 95.8678C33.2545 96.0147 34.2195 96.2324 34.7798 96.3575C34.3339 96.3386 33.8906 96.2387 33.4749 96.1217C33.198 96.044 32.9248 95.9605 32.658 95.8678Z" fill="white"/>
<path opacity="0.1" d="M36.4344 96.8048L36.4756 96.8719C36.4466 96.8435 36.4168 96.8165 36.3865 96.7911L36.4344 96.8048Z" fill="white"/>
<path opacity="0.1" d="M37.6772 97.7655L37.846 97.6703C37.7977 97.7077 37.7418 97.7397 37.6772 97.7655Z" fill="white"/>
<path opacity="0.1" d="M38.1114 91.1393L37.3126 90.4237L36.9022 89.7574L37.0311 88.921L37.2794 88.5102C37.107 89.0286 37.0435 89.6078 37.1574 90.0561C37.4332 90.4519 37.8532 90.73 38.1114 91.1393Z" fill="white"/>
<path opacity="0.1" d="M38.3205 95.2762L38.3269 95.2572C38.3242 95.2721 38.3217 95.2868 38.3193 95.3018C38.3201 95.2851 38.3205 95.2762 38.3205 95.2762Z" fill="white"/>
<path opacity="0.1" d="M38.1012 87.2027H38.335C38.2709 87.2234 38.2077 87.2485 38.1455 87.2782C38.0926 87.3033 38.0407 87.3354 37.9901 87.3738L38.1012 87.2027Z" fill="white"/>
<path opacity="0.1" d="M38.3433 91.6073C38.617 92.2046 38.8453 92.8332 38.7277 93.4676L38.6649 92.4568L38.3433 91.6073Z" fill="white"/>
<path opacity="0.1" d="M40.4404 87.8353L40.4715 87.8829C40.1187 87.5504 39.7328 87.316 39.3447 87.2027H39.7679L40.4404 87.8353Z" fill="white"/>
<path opacity="0.1" d="M42.3264 91.0387L42.3409 91.1431C42.3222 91.0796 42.3028 91.0163 42.2827 90.9533L42.3264 91.0387Z" fill="white"/>
<path opacity="0.1" d="M44.2142 100.188C44.072 100.094 43.9432 99.996 43.8265 99.8924C44.0245 100.026 44.2083 100.157 44.2142 100.188Z" fill="white"/>
<path opacity="0.1" d="M46.3425 60.2963L45.6771 58.0272L45.6588 57.9643C45.6735 57.9959 45.688 58.0276 45.7027 58.0596C46.0284 58.7738 46.2269 59.5228 46.3425 60.2963Z" fill="white"/>
<path opacity="0.1" d="M46.9715 82.3554L46.9319 82.244L46.9199 82.1649C46.9369 82.2284 46.9541 82.2919 46.9715 82.3554Z" fill="white"/>
<path opacity="0.1" d="M47.0144 64.9223L46.7857 64.7898C46.7857 64.7898 46.7489 64.4712 46.7208 64.1602C46.7279 64.1999 46.7361 64.2395 46.7458 64.2786C46.8103 64.5379 46.8938 64.7516 47.0144 64.9223Z" fill="white"/>
<path opacity="0.1" d="M51.522 66.6016L51.1425 66.4165L50.801 66.2443C51.0471 66.3534 51.2868 66.4731 51.522 66.6016Z" fill="white"/>
<path d="M38.8529 75.9466L38.7426 75.9061L38.5038 75.4797C38.5038 75.4797 38.6233 74.8911 38.7248 74.8081C38.8264 74.7248 39.6365 74.1927 39.747 74.1659C39.8054 74.1516 40.2902 73.7766 40.7334 73.4274C40.5599 73.5819 40.34 73.7585 40.0663 73.9781C39.7193 74.2566 39.3253 74.4718 38.9791 74.743C38.5401 75.0866 38.5179 75.6759 38.8529 75.9467V75.9466Z" fill="#FFFEFF"/>
<path d="M42.1086 78.1517L41.5862 77.743L40.7837 77.3447L40.0105 76.5235L39.5852 76.215L39.2598 76.0958C39.9401 76.2132 40.3711 76.5128 40.6474 77.1423C40.7496 77.3751 41.0441 77.3822 41.2772 77.4303C41.5927 77.4953 41.9095 77.6173 42.0088 77.927C42.0361 78.0122 42.0699 78.0865 42.109 78.1517H42.1086Z" fill="#FFFEFF"/>
<path d="M47.7 76.8725L46.9894 77.4303L44.7439 78.7L43.9207 79.1931L42.6926 78.6087L42.6254 78.556C43.0043 78.6996 43.4561 78.7174 43.758 78.9876C43.8644 79.0828 44.0226 78.9815 44.1369 78.9087C45.2912 78.1739 46.5939 77.7036 47.7 76.8727V76.8725Z" fill="#FFFEFF"/>
<path d="M52.2956 73.3709C53.5399 72.1634 54.7268 70.8686 54.9999 69.0364C54.9182 68.7851 54.6247 68.7859 54.4817 68.6091C52.7189 67.1959 50.6775 66.9459 48.5198 67.2084C48.2116 67.2459 47.9306 67.3849 47.8233 67.7238C48.0604 68.2428 48.5023 68.0356 48.8687 67.988C50.2772 67.8055 51.6182 67.9953 52.8913 68.6308C54.3865 69.5757 54.3807 69.6022 53.4172 71.0372C52.3198 72.6711 50.7817 73.8765 49.3524 75.1787C48.1373 76.286 48.0898 76.2342 47.1396 75.0335C46.9945 74.9502 46.8479 74.9198 46.6969 75.0208C46.5337 75.4509 46.7907 75.8171 46.8823 76.2085C47.0671 76.6674 46.9191 76.9835 46.4824 77.205C45.7868 77.558 45.0899 77.9186 44.3766 78.2226C43.6673 78.5247 42.9664 78.114 42.5043 77.6669C42.1638 77.3375 41.9674 76.9714 41.4194 76.92C40.8223 76.8639 40.8053 76.4872 41.1126 76.0562C41.3386 75.7389 41.7963 75.5726 41.7521 75.0803C41.6036 74.8014 41.3703 74.8023 41.1111 74.8911C40.4785 75.0647 40.0351 75.7946 39.2483 75.5194C39.0128 75.1084 39.3844 74.9841 39.6096 74.8236C40.1351 74.4495 40.6142 74.0191 41.1279 73.6323C41.7834 73.1388 42.1708 72.5806 41.7965 71.7261C41.5537 71.1718 41.8479 71.0406 42.3276 71.1718C42.917 71.3328 43.494 71.5482 44.1191 71.3862C45.1911 71.3435 45.7427 72.1158 46.2955 72.8289C46.7769 73.4496 47.0014 74.2166 47.3083 74.9348C47.437 75.2361 47.5748 75.6844 47.9783 75.5705C48.3763 75.458 48.2387 75.0147 48.2104 74.6866C47.7458 73.3211 47.1159 72.0571 45.9359 71.1551C45.3133 70.6791 45.2592 70.2379 45.833 69.6638C46.2858 69.2104 46.6738 68.6886 47.0422 68.1599C47.1182 68.0493 47.1957 67.9396 47.2696 67.828L46.1888 68.2473C45.5261 69.0146 44.8359 69.7594 44.1657 70.5205C43.8403 70.8901 43.4388 70.9878 43.1077 70.635C43.1077 70.635 42.2277 70.1014 41.2497 70.3331C41.2497 70.3331 40.7589 70.4428 40.7209 71.1595C40.7209 71.16 40.7209 71.1602 40.7209 71.1608C40.7103 71.4731 40.7055 71.729 40.9414 71.9332C41.4457 72.3694 41.1445 72.6877 40.79 73.0106C40.21 73.5393 39.6535 74.0868 38.9084 74.4071C38.4044 74.6238 38.2613 75.0869 38.3535 75.6047C38.4323 76.0469 38.7064 76.4608 39.1519 76.3931C39.9025 76.279 39.9841 76.8006 40.3518 77.2084C40.8899 77.8051 41.8567 77.9076 42.3293 78.7511C42.4388 78.9465 43.2403 78.9305 43.6423 79.2877C43.7796 79.4094 44.0617 79.3898 44.2216 79.237C45.1338 78.3631 46.4486 78.2296 47.4299 77.4584C49.0974 76.1478 50.7762 74.8464 52.2956 73.3716V73.3709Z" fill="#36285D"/>
<path d="M48.0124 74.7943C47.4327 73.2382 46.6178 71.8453 45.1984 70.896C44.8218 70.6441 44.7873 70.428 45.0889 70.0934C45.7258 69.3872 46.3407 68.661 46.9645 67.943C47.2103 67.6324 47.4777 67.4293 47.8534 67.766C48.7501 67.7536 49.6486 67.7029 50.5432 67.74C51.39 67.7749 52.2195 67.9479 52.9513 68.4228C53.4083 68.7673 53.1418 69.1623 53.0023 69.5208C52.172 71.6537 50.5451 73.1673 48.908 74.6643C48.6787 74.874 48.3647 75.1316 48.0122 74.7943H48.0124Z" fill="white"/>
<path d="M39.0266 75.7988C38.5706 75.3327 38.6609 74.9535 39.2325 74.6907C39.893 74.3871 40.4263 73.9258 40.9608 73.4471C41.5861 72.8869 42.1261 72.3597 41.3267 71.54C41.1818 71.3914 41.1074 71.1891 41.3148 71.0085C41.5979 70.7622 41.9232 70.7485 42.2753 70.8154C42.859 70.9262 43.3389 71.4889 44.011 71.2121C44.5974 71.2823 44.7455 71.7803 44.9799 72.1947C45.4214 72.8019 45.9276 73.357 46.3897 73.9471C46.6441 74.2719 46.903 74.5974 46.7508 75.0546C46.8629 75.4074 46.9747 75.7604 47.0868 76.1132C46.4958 77.6483 44.6214 78.4785 43.2593 77.6002C42.4733 77.0934 41.7789 76.2644 41.6849 75.181C41.5391 74.9006 41.3358 75.0569 41.1461 75.1105C40.3494 75.0643 39.7964 75.7625 39.0268 75.7986L39.0266 75.7988Z" fill="white"/>
<path d="M44.6617 72.2282C44.5523 71.8212 44.2885 71.5121 44.011 71.2121C44.378 70.6666 44.7256 71.0416 45.0429 71.2574C46.1847 72.0341 46.9278 73.116 47.3993 74.3965C47.5472 74.7982 47.6997 75.1979 47.8642 75.6357C48.2225 75.319 47.9318 75.0421 48.0125 74.794C49.2241 74.4915 49.8188 73.4044 50.5888 72.6149C51.7163 71.4589 52.8349 70.1909 52.9509 68.4222C54.8168 69.3488 54.8633 69.5068 53.7118 71.1228C52.3581 73.0224 50.5818 74.5001 48.7879 75.9523C47.8348 76.7239 47.8117 76.6917 47.2905 75.554C47.2208 75.4017 47.1162 75.2654 47.0278 75.1215C46.4046 74.0229 45.7046 72.9863 44.6619 72.228L44.6617 72.2282Z" fill="#A1D7EA"/>
<path d="M41.6847 75.1812C42.4834 75.8794 42.5758 77.1757 43.8048 77.5354C44.9858 77.8812 45.8466 77.467 46.6062 76.6307C46.7644 76.4566 46.9263 76.2859 47.0864 76.1135C47.4636 76.583 47.4046 76.9499 46.8657 77.2651C45.991 77.777 44.9978 78.0739 44.2051 78.7382C44.014 78.8982 43.7642 78.9174 43.5909 78.6585C43.5725 78.6311 43.5637 78.5962 43.5563 78.5635C43.3746 77.765 42.2746 78.861 42.2454 77.9844C42.2148 77.0708 41.6653 77.179 41.0949 77.2067C40.7857 77.2217 40.7055 77.028 40.6261 76.7856C40.5122 76.438 40.4897 76.1239 40.8073 75.8705C41.098 75.6386 41.3921 75.4109 41.6847 75.1814V75.1812Z" fill="#A1D7EA"/>
<path d="M44.6617 72.2282C44.8239 72.0516 45.0018 72.0102 45.165 72.2113C45.8951 73.1116 46.8241 73.887 47.0276 75.1217C46.9352 75.0995 46.8429 75.077 46.7505 75.0548C46.1847 74.0169 45.3981 73.1411 44.6615 72.2282H44.6617Z" fill="#453667"/>
<path d="M39.0266 75.7988C39.6699 75.3766 40.2335 74.7111 41.1459 75.1107C40.4626 75.4107 39.9417 76.2064 39.0266 75.7988Z" fill="#9FCDE2"/>
<path opacity="0.1" d="M39.2594 76.0958C39.2314 76.0908 39.2025 76.0861 39.1731 76.0817C39.0443 76.0629 38.937 76.0148 38.8527 75.9465L39.2592 76.0958H39.2594Z" fill="white"/>
<path opacity="0.1" d="M42.6254 78.556C42.42 78.4783 42.236 78.3636 42.1089 78.1521L42.6254 78.556Z" fill="white"/>
<path opacity="0.1" d="M47.9235 76.6971C47.85 76.7573 47.7754 76.8157 47.6998 76.8725L47.922 76.698L47.9235 76.6971Z" fill="white"/>
<path d="M46.6085 60.8413C46.6085 60.8413 46.6399 61.7245 46.7444 62.2638L46.3823 62.2256L46.2924 61.2667L46.6085 60.8413Z" fill="#38295E"/>
<path d="M41.4251 59.1329C41.4251 59.1329 41.4238 59.131 41.4229 59.1304C41.4229 59.1304 41.4238 59.131 41.4251 59.1329Z" fill="#F8F7FA"/>
<path d="M35.3813 59.4032L35.0881 59.4173C35.1412 59.022 35.2657 58.6453 35.2842 58.5905C35.2842 58.5905 35.2847 58.5905 35.2849 58.5907L35.2347 58.8287V59.0941L35.3813 59.4032Z" fill="#36255E"/>
<path d="M35.2865 58.584L35.285 58.5913C35.285 58.5913 35.2844 58.5911 35.2842 58.5911C35.2854 58.5872 35.2863 58.5849 35.2865 58.584Z" fill="#69519D"/>
<path d="M28.9468 60.2195C28.8314 60.3649 28.735 60.5719 28.6584 60.7812C28.6216 60.7744 28.5468 60.7897 28.5468 60.7897C28.5403 60.7916 28.534 60.7937 28.5277 60.7958L28.4303 60.4019L28.3639 60.1326L28.7342 60.1075L28.9468 60.2195Z" fill="#FFFEFF"/>
<path d="M30.1794 77.8462L30.2443 78.3467L30.0341 78.4889C30.0341 78.4889 30.0139 78.099 29.7999 77.7002L30.1796 77.8462H30.1794Z" fill="#38295E"/>
<path d="M30.4403 79.8658C30.4403 79.8658 30.5443 80.7673 30.6871 81.1878L30.4933 81.2049C30.4933 81.2049 30.4321 80.3194 30.3859 80.1063L30.4403 79.8658Z" fill="#38295E"/>
<path d="M48.0919 80.0145C48.0919 80.0145 47.7381 80.4724 47.0864 80.4627C47.0864 80.4627 46.7533 80.5469 47.0001 81.1098C47.0001 81.1098 47.5697 83.5558 47.8551 84.5622L47.6756 84.5586C47.5665 84.3143 47.4479 84.0738 47.3492 83.8256C46.8907 82.6723 46.1723 82.4415 45.1938 83.133L44.9961 82.9614C45.3847 82.6508 45.7504 82.3042 46.1679 82.0385C46.6836 81.7103 46.7165 81.345 46.3906 80.8834C46.271 80.2667 46.1511 79.65 46.0314 79.0334C46.0387 78.9889 46.0459 78.9446 46.0528 78.9001L46.2257 78.7288C46.2328 78.7431 46.2399 78.7575 46.2471 78.7718C46.2922 78.8617 46.3382 78.9512 46.3821 79.0419C46.5506 79.3906 46.2992 80.0791 46.9772 80.0097C47.6922 79.9365 47.8581 79.37 47.7787 78.7153C47.7222 78.2492 47.6655 77.7829 47.6094 77.3166L47.9885 77.0189C47.9885 77.0189 48.4038 79.4402 48.0919 80.0145Z" fill="#36285D"/>
<path d="M47.6968 83.9733L48.1001 85.0567L47.8254 84.6951L47.6176 84.0351L47.6968 83.9733Z" fill="#36285D"/>
<path d="M46.1891 68.247C46.1891 68.247 46.6863 67.4008 48.4224 67.224L47.8535 67.7658C47.8535 67.7658 47.1574 67.7624 46.7012 68.247H46.1891Z" fill="#36285D"/>
<path d="M38.9383 79.6639L38.9032 79.6765L38.8822 79.683C38.9003 79.6771 38.919 79.6708 38.9383 79.6639Z" fill="#38295E"/>
<path d="M39.9348 77.82C39.9348 77.82 39.9348 77.8183 39.9348 77.8175C39.9342 77.7884 39.9323 77.7726 39.9323 77.7726C39.9323 77.7732 39.9319 77.7736 39.9318 77.7741C39.9295 77.7511 39.9262 77.7283 39.922 77.7059C39.922 77.7059 39.8989 77.9604 39.6859 78.2849C39.6853 78.2859 39.6846 78.2867 39.6844 78.2874C39.6844 78.2874 39.684 78.2878 39.684 78.288V78.2884C39.5067 78.498 39.2236 78.7039 38.8256 78.6191C38.8256 78.6191 38.7243 78.5952 38.6431 78.5469C38.4908 78.0684 38.0069 77.7586 37.4937 77.8376C37.3209 77.8643 37.165 77.9319 37.034 78.0287C37.0073 78.0321 36.9751 78.0369 36.9395 78.0433L36.9224 78.0467L36.9027 78.0507L36.8697 78.0587C36.8697 78.0587 36.8224 78.0701 36.7991 78.0783C36.7777 78.0846 36.7554 78.0918 36.7323 78.0996H36.7319C36.7319 78.0996 36.7311 78.1 36.7305 78.1002C36.4196 78.2066 35.9638 78.4568 35.6507 79.0408V79.0412C35.5845 79.1556 35.5353 79.2659 35.4988 79.3691C35.4988 79.3691 35.4898 79.3932 35.4772 79.4339C35.4757 79.4388 35.474 79.4442 35.4725 79.4499C35.4576 79.4978 35.4459 79.5432 35.4364 79.5866C35.4328 79.6033 35.4291 79.6206 35.4255 79.6384C35.4141 79.6957 35.4045 79.7584 35.3995 79.8227C35.3957 79.8711 35.3946 79.9204 35.3971 79.9688C35.3971 79.9696 35.3971 79.9704 35.3971 79.9713C35.3982 80.0004 35.4003 80.0162 35.4003 80.0162C35.4003 80.0156 35.4003 80.0152 35.4007 80.0145C35.4034 80.0377 35.4068 80.0605 35.4114 80.0827C35.4114 80.0827 35.4314 79.8278 35.6406 79.501C35.6412 79.5001 35.642 79.4993 35.6422 79.4983C35.6422 79.4983 35.6423 79.498 35.6425 79.4978V79.4972C35.7928 79.3155 36.0207 79.1356 36.3345 79.1389C36.3864 79.1394 36.4404 79.1448 36.4969 79.156C36.4969 79.156 36.578 79.1744 36.6534 79.2121C36.6538 79.2121 36.654 79.2121 36.6542 79.2122C36.6693 79.2178 36.6786 79.2214 36.6786 79.2214C36.6792 79.2229 36.6798 79.2242 36.6803 79.2257C36.8496 79.6746 37.3169 79.9591 37.8115 79.8831C37.9499 79.8618 38.0779 79.8139 38.1908 79.7459H38.195C38.1961 79.7457 38.1974 79.7459 38.199 79.7457C38.2213 79.7447 38.2862 79.7407 38.3696 79.7261L38.3866 79.7229L38.4064 79.7192L38.4397 79.7116C38.4397 79.7116 38.487 79.7006 38.5105 79.693C38.8207 79.6044 39.3259 79.3687 39.6702 78.7442C39.6702 78.7442 39.6703 78.7441 39.6704 78.7438C39.738 78.6302 39.7884 78.5203 39.8264 78.4178C39.8264 78.4178 39.8355 78.3939 39.8487 78.3532C39.8504 78.3481 39.8522 78.3429 39.8539 78.3374C39.8691 78.2899 39.8814 78.2441 39.8917 78.2009C39.8955 78.1844 39.8993 78.1671 39.9031 78.1494C39.9243 78.049 39.9402 77.9319 39.9354 77.8192L39.9348 77.82ZM38.0537 78.3422C37.7435 78.0595 37.3427 78.2462 37.3427 78.2462C37.7937 77.8639 38.0537 78.3422 38.0537 78.3422ZM37.7525 79.5354C37.537 79.4989 37.3751 79.3841 37.3499 79.3655C37.3478 79.3638 37.3465 79.363 37.3465 79.363C37.2085 79.2811 37.1071 79.141 37.0804 78.9706C37.0344 78.6745 37.2327 78.3967 37.5257 78.3406C37.5324 78.3395 37.5391 78.3382 37.546 78.3372C37.6834 78.3161 37.817 78.3469 37.9264 78.4152C37.9268 78.4155 37.9275 78.4157 37.9281 78.4165C38.0596 78.4992 38.1558 78.6359 38.1816 78.8011C38.2236 79.0718 38.0615 79.3269 37.8096 79.4115C37.7905 79.4179 37.771 79.4233 37.7508 79.4276C37.7494 79.428 37.7489 79.428 37.7489 79.428C37.7502 79.4286 37.7514 79.429 37.7527 79.4293C37.9335 79.4947 38.1035 79.4636 38.2182 79.4234C38.3041 79.3934 38.3587 79.3584 38.3637 79.3552C38.1547 79.5409 37.9344 79.5658 37.7525 79.5352V79.5354Z" fill="#38295E"/>
<path d="M39.4015 78.0804C39.376 78.1551 39.3479 78.2253 39.3174 78.2914C39.2693 78.3207 39.2221 78.3418 39.1769 78.3568C39.0247 78.4078 38.8951 78.3888 38.8224 78.3688C38.7909 78.2817 38.7489 78.2002 38.6991 78.1249H38.6985C38.6926 78.1152 38.6865 78.1059 38.6808 78.0971C39.3303 78.0224 39.4962 77.2261 39.4962 77.2261C39.5523 77.4738 39.4015 78.0804 39.4015 78.0804Z" fill="#38295E"/>
<path d="M36.6481 79.6595C36.0247 79.7559 35.8643 80.5264 35.8643 80.5264C35.8082 80.2789 35.9588 79.6723 35.9588 79.6723L36.0254 79.4609C36.0298 79.4569 36.1041 79.3904 36.2411 79.3763C36.2411 79.3763 36.2423 79.3763 36.2448 79.3759C36.2474 79.3755 36.2501 79.3753 36.2528 79.3752C36.2579 79.3748 36.2652 79.3742 36.2738 79.3738C36.3179 79.3717 36.4001 79.3734 36.4816 79.4016L36.4834 79.4054C36.5204 79.4828 36.565 79.5552 36.6168 79.6217C36.6269 79.6352 36.6364 79.6476 36.6443 79.6559C36.6445 79.6563 36.6448 79.6565 36.645 79.6569C36.6458 79.6578 36.6469 79.6588 36.6477 79.6595H36.6481Z" fill="#38295E"/>
<path d="M36.9656 79.367V79.3674C36.9558 79.3633 36.9459 79.3595 36.9359 79.3558C36.9526 79.3597 36.9631 79.3623 36.9631 79.3623C36.9639 79.3638 36.9648 79.3653 36.9656 79.3668V79.367Z" fill="#38295E"/>
<path d="M36.5225 79.5799C36.5193 79.5803 36.5158 79.581 36.5127 79.5821C36.5151 79.5814 36.5184 79.5808 36.5225 79.5799Z" fill="#38295E"/>
<path d="M38.1568 79.4471C38.1551 79.4469 38.1538 79.4465 38.1521 79.4463C38.1538 79.4463 38.1551 79.4467 38.1568 79.4471Z" fill="#38295E"/>
<path d="M38.216 79.42C38.1961 79.4295 38.1757 79.4381 38.1543 79.4453C38.1608 79.4425 38.1831 79.4335 38.216 79.42Z" fill="#38295E"/>
<path d="M40.3376 71.5032C40.3376 71.5032 40.3925 71.4197 40.2847 71.3233L39.6267 70.6074C39.6267 70.6074 39.4757 70.3647 39.5706 70.0615C39.5706 70.0615 39.7315 69.5906 40.0946 69.4646C40.0946 69.4646 40.6428 69.3505 40.9694 69.5714C40.9694 69.5714 41.9795 70.2179 42.3985 70.3559L40.3376 71.5034V71.5032Z" fill="#36255E"/>
<path d="M41.4524 72.305L39.7992 70.4244C39.7992 70.4244 39.6715 70.0269 40.0296 69.7434C40.0296 69.7434 40.424 69.3803 40.9304 69.8029L43.1308 71.1872C43.1308 71.1872 43.5832 71.3401 43.7928 71.2821L41.579 72.8764C41.579 72.8764 41.6738 72.6882 41.4526 72.305H41.4524Z" fill="white"/>
<path d="M43.645 70.8473C43.6378 70.8485 43.2718 70.9439 42.3982 70.3559L42.782 70.0907L43.645 70.8473Z" fill="#FEFEFF"/>
<path d="M39.841 70.4721L41.5874 72.2375C41.5874 72.2375 41.7762 72.5128 41.599 72.7546L41.3081 72.7228L41.2715 72.1404L40.4114 71.2372L39.6901 70.4721H39.8412H39.841Z" fill="#36255E"/>
<path d="M39.841 70.4721C39.841 70.4721 39.724 70.3865 39.841 70.0712C39.841 70.0712 39.9286 69.7702 40.2649 69.6683C40.2649 69.6683 40.6064 69.5826 41.3348 70.0575L40.8108 69.6345L40.4503 69.518L40.0019 69.6248L39.7095 70.1151L39.7769 70.4723H39.841V70.4721Z" fill="#36255E"/>
<path d="M39.8911 70.5226C39.8911 70.5226 41.2814 71.5256 41.6748 72.4252L41.178 71.9851L40.0277 70.9302L39.8909 70.5226H39.8911Z" fill="#36255E"/>
<path d="M39.9146 69.9257C39.9146 69.9257 39.6477 70.3785 40.0587 70.6494L39.944 70.68L39.6368 70.4253L39.7096 70.1147L39.8913 69.8102L39.9148 69.9255L39.9146 69.9257Z" fill="#36255E"/>
</g>
</g>
<rect x="0.5" y="0.5" width="299" height="112" rx="7.5" stroke="white"/>
<defs>
<radialGradient id="paint0_radial_2_289" cx="0" cy="0" r="1" gradientUnits="userSpaceOnUse" gradientTransform="translate(24.3843 112.893) rotate(13.3357) scale(124.636 93.4508)">
<stop stop-color="#A366FF" stop-opacity="0.12"/>
<stop offset="1" stop-color="#1E1E1E" stop-opacity="0"/>
</radialGradient>
<clipPath id="clip0_2_289">
<rect width="300" height="113" rx="8" fill="white"/>
</clipPath>
<clipPath id="clip1_2_289">
<rect width="141" height="30" fill="white" transform="translate(79 41)"/>
</clipPath>
<clipPath id="clip2_2_289">
<rect width="43" height="48" fill="white" transform="translate(12 54)"/>
</clipPath>
</defs>
</svg>
