<svg width="300" height="113" viewBox="0 0 300 113" fill="none" xmlns="http://www.w3.org/2000/svg">
<g clip-path="url(#clip0_2_289)">
<rect width="300" height="113" rx="8" fill="#0B090B"/>
<ellipse cx="84.5" cy="87" rx="185.5" ry="109" fill="url(#paint0_radial_2_289)"/>
<circle cx="238.5" cy="67.5" r="0.5" fill="white"/>
<circle cx="91.5" cy="87.5" r="0.5" fill="white"/>
<circle cx="237.5" cy="17.5" r="0.5" fill="white"/>
<circle cx="180.5" cy="86.5" r="0.5" fill="white"/>
<circle cx="81.5" cy="99.5" r="0.5" fill="white"/>
<circle cx="218.5" cy="84.5" r="0.5" fill="white"/>
<circle cx="258.5" cy="85.5" r="0.5" fill="white"/>
<circle cx="139.5" cy="22.5" r="0.5" fill="white"/>
<circle cx="70" cy="42" r="1" fill="white"/>
<circle cx="83" cy="12" r="1" fill="white"/>
<circle cx="245" cy="24" r="1" fill="white"/>
<circle cx="267" cy="80" r="1" fill="white"/>
<g clip-path="url(#clip1_2_289)">
<path d="M138.798 68.0704C138.76 67.8707 139.069 67.822 139.205 67.4665C139.54 66.5924 138.154 65.6136 138.47 64.9343C138.627 64.5958 139 64.7736 139.376 64.3523C139.88 63.7874 139.766 62.7283 139.381 62.0441C139.16 61.6521 138.886 61.4451 138.473 61.1334C137.351 60.2885 136.626 60.347 136.592 59.9891C136.54 59.4144 138.359 58.7205 138.801 58.6182C138.817 58.6134 138.965 58.5817 139.157 58.5257C139.328 58.4746 139.533 58.4064 139.771 58.3066C139.856 58.27 139.947 58.2238 140.053 58.1556C140.22 58.0509 141.076 57.5128 141.325 56.5364C141.632 55.3409 140.855 54.1551 140.417 53.4831C140.272 53.2639 140.153 53.1154 139.916 52.7258C139.519 52.0782 139.274 51.6642 139.164 51.0994C139.072 50.627 139.012 50.3178 139.164 50.0572C139.492 49.4923 140.519 49.6457 142.625 49.675C143.636 49.6896 144.461 49.6676 144.998 49.6482C146.02 51.4719 147.432 53.8508 149.231 56.7872C151.031 59.7237 152.483 62.1536 153.589 64.0796L154.085 51.1919C154.095 50.8875 154.1 50.3713 154.1 49.6506C154.951 49.6701 155.593 49.6774 156.028 49.6774C156.199 49.6774 156.833 49.6676 157.929 49.6506L157.592 54.7468L157.173 63.4685L157.012 68.6085C156.07 68.589 155.272 68.5817 154.611 68.5817C154.085 68.5817 153.237 68.5914 152.063 68.6085C151.611 67.7855 151.266 67.1743 151.031 66.775C150.66 66.1639 149.869 64.905 148.656 62.9961C147.86 61.7373 146.866 60.1254 145.673 58.1629C144.796 56.719 144.045 55.4602 143.422 54.384C143.351 55.8839 143.239 58.6669 143.087 62.7307C143.025 64.3889 142.975 66.3465 142.939 68.606C142.476 68.6182 141.843 68.6231 141.092 68.5793C140.015 68.516 138.874 68.4429 138.805 68.0752L138.798 68.0704Z" fill="#7C68AC"/>
<path d="M173.002 65.4504C172.886 65.9959 172.717 66.9771 172.501 68.3942C171.524 68.606 170.701 68.7497 170.033 68.8252C169.365 68.8982 168.69 68.9372 168.013 68.9372C166.829 68.9372 165.769 68.8179 164.832 68.5768C163.896 68.3358 163.076 67.8951 162.372 67.2522C161.666 66.6094 161.148 65.8205 160.813 64.8856C160.477 63.9506 160.311 62.9717 160.311 61.9442C160.311 60.8072 160.506 59.7042 160.893 58.6353C161.281 57.5663 161.828 56.6922 162.527 56.0129C163.228 55.3336 164.024 54.8515 164.92 54.569C165.816 54.2866 166.751 54.1454 167.728 54.1454C168.65 54.1454 169.527 54.2622 170.359 54.4984C171.191 54.7346 171.89 55.1193 172.453 55.655C173.019 56.1906 173.452 56.8359 173.756 57.5883C174.058 58.3406 174.21 59.1807 174.21 60.1035C174.21 60.5369 174.165 60.9849 174.074 61.4475L164.136 61.4621C164.117 61.8054 164.11 62.0782 164.11 62.2827C164.11 62.9036 164.214 63.4733 164.421 63.992C164.628 64.5106 164.932 64.9513 165.329 65.3117C165.726 65.672 166.202 65.9399 166.753 66.1103C167.305 66.2807 167.847 66.3684 168.379 66.3684C169.002 66.3684 169.679 66.2978 170.407 66.159C171.134 66.0202 171.999 65.784 173.002 65.4504ZM164.243 59.8405L170.59 59.8551C170.59 59.412 170.575 59.0857 170.549 58.8739C170.523 58.662 170.461 58.421 170.366 58.1483C170.271 57.8756 170.143 57.637 169.979 57.43C169.817 57.223 169.627 57.0502 169.408 56.9114C169.192 56.7726 168.94 56.6679 168.655 56.5924C168.369 56.5194 168.065 56.4828 167.74 56.4828C167.359 56.4828 166.991 56.5437 166.634 56.663C166.278 56.7823 165.95 56.9576 165.65 57.1889C165.353 57.4203 165.11 57.6783 164.925 57.9632C164.74 58.2481 164.602 58.5232 164.511 58.7862C164.421 59.0492 164.331 59.4022 164.24 59.8454L164.243 59.8405Z" fill="#7C68AC"/>
<path d="M174.588 68.6036C176.487 66.2467 178.417 63.7972 180.376 61.2503L179.138 59.3292C178.734 58.7034 178.199 57.9024 177.531 56.926L175.864 54.4789C176.858 54.4984 177.652 54.5057 178.249 54.5057C179.033 54.5057 179.734 54.496 180.348 54.4789C180.766 55.1388 181.246 55.8644 181.788 56.6508L182.808 58.1872L185.72 54.4789C186.362 54.4984 187.049 54.5057 187.781 54.5057C188.468 54.5057 189.179 54.496 189.911 54.4789L187.645 57.3521C187.132 58.0144 186.174 59.2659 184.771 61.1067L186.897 64.3742L189.763 68.606C188.984 68.5866 188.266 68.5793 187.605 68.5793C186.809 68.5793 186.034 68.589 185.283 68.606C184.719 67.6711 184.158 66.814 183.6 66.03C183.041 65.2459 182.627 64.6348 182.361 64.1989C181.997 64.6883 181.512 65.3092 180.906 66.064C180.3 66.8164 179.646 67.6662 178.948 68.606C178.187 68.5866 177.5 68.5793 176.884 68.5793C176.197 68.5793 175.432 68.589 174.59 68.606L174.588 68.6036Z" fill="#7C68AC"/>
<path d="M205.695 68.6036C204.898 68.5841 204.287 68.5768 203.862 68.5768C203.327 68.5768 202.723 68.5866 202.043 68.6036L202.067 66.2978C201.815 66.6874 201.592 66.999 201.404 67.2352C201.216 67.4714 200.967 67.7027 200.658 67.9291C200.351 68.1556 200.016 68.3358 199.654 68.4697C199.293 68.6036 198.88 68.7156 198.414 68.8033C197.948 68.8909 197.453 68.9347 196.93 68.9347C195.918 68.9347 195.038 68.7838 194.287 68.4843C193.536 68.1824 192.942 67.7271 192.504 67.1159C192.067 66.5047 191.846 65.6306 191.846 64.4911V64.1989L192.064 60.6148L192.271 55.8936C192.281 55.5138 192.285 55.0414 192.285 54.4765C193.144 54.496 193.816 54.5033 194.304 54.5033C194.817 54.5033 195.44 54.4935 196.172 54.4765L195.72 60.8096C195.692 61.3014 195.673 61.7154 195.659 62.0538C195.644 62.3923 195.637 62.6357 195.637 62.7818C195.637 63.449 195.735 64.0017 195.927 64.4424C196.122 64.8831 196.46 65.2191 196.942 65.4504C197.425 65.6818 197.943 65.7986 198.494 65.7986C199.046 65.7986 199.514 65.6964 199.985 65.4943C200.41 65.3092 200.772 65.0487 201.076 64.7176C201.378 64.384 201.635 63.936 201.841 63.3711C201.996 62.9644 202.112 62.3996 202.193 61.6764C202.257 61.1675 202.314 60.2934 202.369 59.0516C202.445 57.5517 202.495 56.0275 202.524 54.4814C203.42 54.5009 204.102 54.5082 204.573 54.5082C205.108 54.5082 205.709 54.4984 206.379 54.4814C206.27 55.8059 206.158 57.4616 206.042 59.4461C205.925 61.4329 205.844 63.0716 205.799 64.3621C205.754 65.6525 205.718 67.0672 205.692 68.606L205.695 68.6036Z" fill="#7C68AC"/>
<path d="M208.69 68.3382L208.393 65.2825C209.279 65.6526 210.028 65.9107 210.644 66.0543C211.259 66.198 211.823 66.2686 212.339 66.2686C212.855 66.2686 213.287 66.2053 213.641 66.0811C213.996 65.9569 214.257 65.7719 214.428 65.5259C214.599 65.28 214.685 65.0244 214.685 64.7541C214.685 64.6348 214.673 64.5228 214.652 64.4205C214.628 64.3183 214.587 64.2111 214.53 64.1016C214.471 63.9895 214.404 63.8873 214.326 63.7899C214.25 63.6925 214.143 63.5805 214.007 63.4563C213.872 63.3321 213.677 63.1714 213.425 62.9766L212.693 62.3801C211.987 61.8152 211.45 61.3721 211.079 61.0458C210.708 60.722 210.397 60.3908 210.142 60.0524C209.888 59.7139 209.698 59.3584 209.567 58.9835C209.436 58.6085 209.37 58.2262 209.37 57.8366C209.37 57.1597 209.572 56.5169 209.973 55.9058C210.375 55.2946 210.96 54.8491 211.73 54.5666C212.498 54.2842 213.404 54.1429 214.442 54.1429C215.626 54.1429 216.991 54.2866 218.538 54.5739L218.714 57.4763C217.666 57.0404 216.658 56.8237 215.69 56.8237C215.165 56.8237 214.706 56.8773 214.314 56.9844C213.922 57.0916 213.639 57.2523 213.468 57.4714C213.297 57.6881 213.211 57.9316 213.211 58.1994C213.211 58.3577 213.237 58.5111 213.292 58.6645C213.347 58.8179 213.442 58.9762 213.577 59.1442C213.713 59.3097 213.87 59.468 214.045 59.6165C214.221 59.7651 214.59 60.0572 215.151 60.4906C215.712 60.9265 216.201 61.3185 216.622 61.6716C217.043 62.0246 217.388 62.3777 217.659 62.7332C217.93 63.0886 218.139 63.4709 218.281 63.88C218.426 64.2866 218.498 64.7005 218.498 65.1169C218.498 65.8108 218.289 66.4561 217.875 67.0477C217.459 67.6394 216.831 68.102 215.99 68.4356C215.148 68.7692 214.209 68.9348 213.171 68.9348C212.629 68.9348 211.968 68.8909 211.191 68.8033C210.413 68.7156 209.581 68.5598 208.695 68.3382H208.69Z" fill="#7C68AC"/>
<path d="M134.006 59.3925C133.588 59.1904 133.155 58.9835 132.556 58.9177C132.478 58.9104 131.025 58.7619 130.842 59.3C130.745 59.5849 131.02 60.0256 131.372 60.2106C131.852 60.4614 132.219 60.1084 133.091 60.0012C134.291 59.8527 135.114 60.3372 135.169 60.1838C135.223 60.0353 134.443 59.6019 134.006 59.3925Z" fill="#7C68AC"/>
<path d="M137.22 64.8953C137.184 64.9391 136.906 64.5228 136.317 64.3767C135.646 64.2111 135.185 64.5398 134.981 64.2744C134.874 64.1381 134.886 63.9019 134.981 63.7777C135.154 63.5537 135.608 63.6828 135.796 63.7363C136.704 63.9944 137.27 64.8344 137.22 64.8953Z" fill="#7C68AC"/>
<path d="M140.087 68.0704C140.049 67.8707 140.358 67.822 140.493 67.4665C140.828 66.5924 139.443 65.6136 139.759 64.9343C139.916 64.5958 140.289 64.7736 140.664 64.3523C141.168 63.7874 141.054 62.7283 140.669 62.0441C140.448 61.6521 140.175 61.4451 139.761 61.1334C138.639 60.2885 137.914 60.347 137.881 59.9891C137.828 59.4144 139.647 58.7205 140.089 58.6182C140.106 58.6134 140.253 58.5817 140.446 58.5257C140.617 58.4746 140.821 58.4064 141.059 58.3066C141.145 58.27 141.235 58.2238 141.342 58.1556C141.508 58.0509 142.364 57.5128 142.614 56.5364C142.92 55.3409 142.143 54.1551 141.705 53.4831C141.56 53.2639 141.442 53.1154 141.204 52.7258C140.807 52.0782 140.562 51.6642 140.453 51.0994C140.36 50.627 140.301 50.3178 140.453 50.0572C140.781 49.4923 141.808 49.6457 143.914 49.675C144.924 49.6896 145.749 49.6676 146.286 49.6482C147.308 51.4719 148.72 53.8508 150.52 56.7872C152.319 59.7237 153.772 62.1536 154.877 64.0796L155.374 51.1919C155.383 50.8875 155.388 50.3713 155.388 49.6506C156.239 49.6701 156.881 49.6774 157.316 49.6774C157.487 49.6774 158.122 49.6676 159.218 49.6506L158.88 54.7468L158.462 63.4685L158.3 68.6085C157.359 68.589 156.56 68.5817 155.899 68.5817C155.374 68.5817 154.525 68.5914 153.351 68.6085C152.899 67.7855 152.555 67.1743 152.319 66.775C151.948 66.1639 151.157 64.905 149.945 62.9961C149.148 61.7373 148.155 60.1254 146.961 58.1629C146.084 56.719 145.333 55.4602 144.71 54.384C144.639 55.8839 144.527 58.6669 144.375 62.7307C144.313 64.3889 144.263 66.3465 144.228 68.606C143.764 68.6182 143.132 68.6231 142.381 68.5793C141.304 68.516 140.163 68.4429 140.094 68.0752L140.087 68.0704Z" fill="white"/>
<path d="M174.291 65.4504C174.174 65.9959 174.006 66.9771 173.789 68.3942C172.812 68.606 171.99 68.7497 171.322 68.8252C170.654 68.8982 169.979 68.9372 169.301 68.9372C168.117 68.9372 167.057 68.8179 166.121 68.5768C165.184 68.3358 164.364 67.8951 163.66 67.2522C162.954 66.6094 162.436 65.8205 162.101 64.8856C161.766 63.9506 161.599 62.9717 161.599 61.9442C161.599 60.8072 161.794 59.7042 162.182 58.6353C162.569 57.5663 163.116 56.6922 163.815 56.0129C164.516 55.3336 165.312 54.8515 166.209 54.569C167.105 54.2866 168.039 54.1454 169.016 54.1454C169.938 54.1454 170.815 54.2622 171.647 54.4984C172.479 54.7346 173.178 55.1193 173.742 55.655C174.307 56.1906 174.74 56.8359 175.044 57.5883C175.346 58.3406 175.498 59.1807 175.498 60.1035C175.498 60.5369 175.453 60.9849 175.363 61.4475L165.424 61.4621C165.405 61.8054 165.398 62.0782 165.398 62.2827C165.398 62.9036 165.503 63.4733 165.709 63.992C165.916 64.5106 166.221 64.9513 166.617 65.3117C167.014 65.672 167.49 65.9399 168.041 66.1103C168.593 66.2807 169.135 66.3684 169.667 66.3684C170.29 66.3684 170.968 66.2978 171.695 66.159C172.422 66.0202 173.288 65.784 174.291 65.4504ZM165.531 59.8405L171.878 59.8551C171.878 59.412 171.864 59.0857 171.838 58.8739C171.811 58.662 171.75 58.421 171.655 58.1483C171.559 57.8756 171.431 57.637 171.267 57.43C171.105 57.223 170.915 57.0502 170.697 56.9114C170.48 56.7726 170.228 56.6679 169.943 56.5924C169.658 56.5194 169.354 56.4828 169.028 56.4828C168.648 56.4828 168.279 56.5437 167.923 56.663C167.566 56.7823 167.238 56.9576 166.938 57.1889C166.641 57.4203 166.399 57.6783 166.213 57.9632C166.028 58.2481 165.89 58.5232 165.8 58.7862C165.709 59.0492 165.619 59.4022 165.529 59.8454L165.531 59.8405Z" fill="white"/>
<path d="M175.876 68.6036C177.776 66.2467 179.706 63.7972 181.665 61.2503L180.426 59.3292C180.022 58.7034 179.487 57.9024 178.819 56.926L177.153 54.4789C178.146 54.4984 178.94 54.5057 179.537 54.5057C180.321 54.5057 181.023 54.496 181.636 54.4789C182.054 55.1388 182.535 55.8644 183.077 56.6508L184.096 58.1872L187.008 54.4789C187.65 54.4984 188.337 54.5057 189.069 54.5057C189.756 54.5057 190.467 54.496 191.199 54.4789L188.934 57.3521C188.42 58.0144 187.462 59.2659 186.06 61.1067L188.185 64.3742L191.052 68.606C190.272 68.5866 189.554 68.5793 188.893 68.5793C188.097 68.5793 187.322 68.589 186.571 68.606C186.007 67.6711 185.446 66.814 184.888 66.03C184.329 65.2459 183.916 64.6348 183.649 64.1989C183.286 64.6883 182.801 65.3092 182.195 66.064C181.588 66.8164 180.935 67.6662 180.236 68.606C179.475 68.5866 178.788 68.5793 178.173 68.5793C177.486 68.5793 176.72 68.589 175.879 68.606L175.876 68.6036Z" fill="white"/>
<path d="M206.983 68.6036C206.187 68.5841 205.576 68.5768 205.15 68.5768C204.615 68.5768 204.012 68.5866 203.332 68.6036L203.356 66.2978C203.104 66.6874 202.88 66.999 202.692 67.2352C202.505 67.4714 202.255 67.7027 201.946 67.9291C201.639 68.1556 201.304 68.3358 200.943 68.4697C200.581 68.6036 200.168 68.7156 199.702 68.8033C199.236 68.8909 198.742 68.9347 198.219 68.9347C197.206 68.9347 196.326 68.7838 195.575 68.4843C194.824 68.1824 194.23 67.7271 193.792 67.1159C193.355 66.5047 193.134 65.6306 193.134 64.4911V64.1989L193.353 60.6148L193.56 55.8936C193.569 55.5138 193.574 55.0414 193.574 54.4765C194.432 54.496 195.105 54.5033 195.592 54.5033C196.105 54.5033 196.728 54.4935 197.46 54.4765L197.009 60.8096C196.98 61.3014 196.961 61.7154 196.947 62.0538C196.933 62.3923 196.926 62.6357 196.926 62.7818C196.926 63.449 197.023 64.0017 197.216 64.4424C197.41 64.8831 197.748 65.2191 198.231 65.4504C198.713 65.6818 199.231 65.7986 199.783 65.7986C200.334 65.7986 200.803 65.6964 201.273 65.4943C201.699 65.3092 202.06 65.0487 202.364 64.7176C202.666 64.384 202.923 63.936 203.13 63.3711C203.284 62.9644 203.401 62.3996 203.482 61.6764C203.546 61.1675 203.603 60.2934 203.657 59.0516C203.734 57.5517 203.783 56.0275 203.812 54.4814C204.708 54.5009 205.39 54.5082 205.861 54.5082C206.396 54.5082 206.997 54.4984 207.668 54.4814C207.558 55.8059 207.447 57.4616 207.33 59.4461C207.214 61.4329 207.133 63.0716 207.088 64.3621C207.042 65.6525 207.007 67.0672 206.981 68.606L206.983 68.6036Z" fill="white"/>
<path d="M209.978 68.3406L209.681 65.2849C210.568 65.655 211.316 65.9131 211.932 66.0567C212.548 66.2004 213.111 66.271 213.627 66.271C214.143 66.271 214.575 66.2077 214.93 66.0835C215.284 65.9593 215.545 65.7743 215.716 65.5284C215.888 65.2824 215.973 65.0268 215.973 64.7565C215.973 64.6372 215.961 64.5252 215.94 64.4229C215.916 64.3207 215.876 64.2135 215.819 64.104C215.759 63.992 215.693 63.8897 215.614 63.7923C215.538 63.6949 215.431 63.5829 215.296 63.4587C215.16 63.3345 214.965 63.1738 214.713 62.9791L213.981 62.3825C213.275 61.8176 212.738 61.3745 212.367 61.0482C211.996 60.7244 211.685 60.3932 211.431 60.0548C211.176 59.7163 210.986 59.3608 210.855 58.9859C210.725 58.6109 210.658 58.2286 210.658 57.839C210.658 57.1622 210.86 56.5194 211.262 55.9082C211.664 55.297 212.248 54.8515 213.018 54.569C213.786 54.2866 214.692 54.1454 215.731 54.1454C216.915 54.1454 218.279 54.289 219.826 54.5763L220.002 57.4787C218.954 57.0428 217.946 56.8261 216.979 56.8261C216.453 56.8261 215.995 56.8797 215.602 56.9868C215.21 57.094 214.927 57.2547 214.756 57.4738C214.585 57.6905 214.499 57.934 214.499 58.2018C214.499 58.3601 214.526 58.5135 214.58 58.6669C214.635 58.8203 214.73 58.9786 214.865 59.1466C215.001 59.3121 215.158 59.4704 215.334 59.6189C215.51 59.7675 215.878 60.0596 216.439 60.4931C217 60.9289 217.49 61.3209 217.911 61.674C218.331 62.027 218.676 62.3801 218.947 62.7356C219.218 63.0911 219.427 63.4733 219.57 63.8824C219.715 64.289 219.786 64.7029 219.786 65.1193C219.786 65.8132 219.577 66.4585 219.163 67.0502C218.747 67.6418 218.12 68.1044 217.278 68.438C216.437 68.7716 215.498 68.9372 214.459 68.9372C213.917 68.9372 213.256 68.8933 212.479 68.8057C211.702 68.718 210.87 68.5622 209.983 68.3406H209.978Z" fill="white"/>
<path d="M135.425 58.9688C135.007 58.7667 134.574 58.5598 133.975 58.494C133.897 58.4867 132.444 58.3382 132.261 58.8763C132.164 59.1612 132.44 59.6019 132.791 59.7869C133.272 60.0377 133.638 59.6847 134.51 59.5775C135.71 59.429 136.533 59.9136 136.588 59.7602C136.642 59.6116 135.863 59.1782 135.425 58.9688Z" fill="white"/>
<path d="M138.637 64.4716C138.601 64.5155 138.323 64.0991 137.733 63.953C137.063 63.7874 136.602 64.1162 136.397 63.8508C136.291 63.7144 136.302 63.4782 136.397 63.354C136.571 63.13 137.025 63.2591 137.213 63.3126C138.121 63.5707 138.687 64.4108 138.637 64.4716Z" fill="white"/>
<path d="M130.947 50.9703C130.947 50.9703 130.281 53.7168 127.479 56.9114C127.467 56.9211 127.462 56.9284 127.457 56.9333C127.453 56.9382 127.453 56.9382 127.448 56.9382V56.943C125.82 58.4015 123.595 59.7383 120.92 59.7383C119.929 59.7383 118.874 59.5532 117.766 59.1222C117.766 59.1222 116.725 58.684 115.94 58.0217C115.111 52.5311 110.475 48.3212 104.88 48.3212C102.997 48.3212 101.226 48.796 99.6691 49.636C99.3814 49.6311 99.0296 49.6263 98.6398 49.6409L98.4567 49.6506L98.238 49.6603L97.8743 49.6896C97.8743 49.6896 97.3514 49.7358 97.0923 49.7845C96.8498 49.8186 96.6026 49.8576 96.3435 49.9038H96.3387C96.3387 49.9038 96.3292 49.9087 96.3269 49.9087C92.842 50.5515 87.572 52.5189 83.2742 58.382V58.3869C82.3828 59.5264 81.6768 60.6538 81.1158 61.7227C81.1158 61.7227 80.9827 61.971 80.7806 62.3947C80.7545 62.4458 80.7307 62.5018 80.7022 62.5627C80.4669 63.0594 80.2672 63.5391 80.096 63.9993C80.0295 64.1746 79.9629 64.3596 79.8963 64.5471C79.6777 65.1558 79.4732 65.8254 79.314 66.5242C79.1927 67.0477 79.0953 67.5834 79.0453 68.1191C79.0453 68.1288 79.0406 68.1361 79.0406 68.1459C79.0026 68.4673 78.9978 68.6426 78.9978 68.6426C78.9978 68.6377 79.0026 68.6328 79.0073 68.6255C78.9954 68.8836 78.9954 69.1393 79.0073 69.3925C79.0073 69.3925 79.6444 66.6362 82.4089 63.41C82.4184 63.4003 82.4256 63.393 82.4303 63.3833L82.4351 63.3784V63.3735C84.0682 61.8809 86.3098 60.5028 89.022 60.5028C89.4665 60.5028 89.9206 60.5369 90.3912 60.6197C90.9427 60.7146 91.5132 60.8632 92.0932 61.0823C92.0932 61.0823 92.9252 61.4208 93.6669 61.9613H93.6764C93.8261 62.0465 93.9189 62.1025 93.9189 62.1025C93.9236 62.1196 93.9284 62.1366 93.9307 62.1536C94.9885 67.3521 99.4932 71.2576 104.882 71.2576C106.391 71.2576 107.832 70.9484 109.147 70.3957L109.192 70.4005C109.204 70.4054 109.218 70.4054 109.235 70.4103C109.472 70.4371 110.169 70.5004 111.084 70.4833L111.267 70.4736L111.486 70.4687L111.849 70.4419C111.849 70.4419 112.372 70.3981 112.631 70.3567C116.081 69.9111 121.85 68.1848 126.545 61.9296L126.549 61.9248C127.457 60.7926 128.173 59.6798 128.746 58.6158C128.746 58.6158 128.884 58.3723 129.088 57.9462C129.117 57.8951 129.143 57.8391 129.171 57.7831C129.409 57.2863 129.618 56.8091 129.794 56.3514C129.865 56.176 129.932 55.9959 130.003 55.8059C130.393 54.7419 130.757 53.488 130.895 52.2437V52.217C130.937 51.8956 130.945 51.7202 130.945 51.7202C130.94 51.73 130.94 51.7324 130.935 51.7373C130.947 51.4841 130.952 51.2284 130.945 50.9752L130.947 50.9703ZM110.007 54.776C107.245 51.2649 102.847 52.4653 102.61 52.5311C107.908 49.1953 109.917 54.5203 110.007 54.776ZM111.338 66.59C111.155 66.702 110.975 66.8042 110.794 66.8992C110.611 66.9966 110.421 67.0843 110.242 67.1597C110.166 67.1938 110.093 67.223 110.017 67.2547C109.439 67.4811 108.878 67.6272 108.331 67.7051C108.177 67.7271 108.022 67.7441 107.87 67.7563C106.769 67.8342 105.74 67.6491 104.832 67.3399C102.602 66.5778 101.069 65.0463 100.831 64.8028L100.798 64.7687C99.467 63.6365 98.6184 61.9321 98.6184 60.0231C98.6184 56.7044 101.188 54.0017 104.397 53.88C104.473 53.8751 104.544 53.8751 104.618 53.8751C106.116 53.8751 107.49 54.4376 108.538 55.3677C108.543 55.3774 108.55 55.3798 108.555 55.3896C109.819 56.5121 110.618 58.1702 110.618 60.0231C110.618 63.057 108.471 65.5771 105.647 66.0787C105.434 66.1176 105.22 66.142 104.994 66.1566C104.982 66.1614 104.972 66.1614 104.972 66.1614C104.984 66.1663 104.999 66.1736 105.01 66.1785C106.822 67.1987 108.688 67.1427 109.974 66.9016C110.154 66.8676 110.326 66.8286 110.48 66.7848C110.635 66.7507 110.782 66.7069 110.908 66.6655C110.951 66.6533 110.991 66.6387 111.029 66.6265C111.108 66.5997 111.184 66.5754 111.248 66.5535C111.353 66.5145 111.44 66.4804 111.502 66.4585C111.536 66.4414 111.564 66.4293 111.585 66.4195C111.597 66.4147 111.612 66.4098 111.619 66.4074C111.524 66.4707 111.431 66.5315 111.338 66.5875V66.59Z" fill="white"/>
<path d="M124.79 54.1916C124.395 54.9659 123.979 55.6866 123.544 56.3587C122.983 56.5973 122.449 56.7507 121.942 56.8383C120.24 57.1378 118.89 56.7141 118.148 56.3708C117.956 55.3652 117.647 54.401 117.24 53.4928H117.236C117.188 53.3759 117.141 53.2639 117.093 53.1568C124.127 53.4368 127.208 45 127.208 45C127.395 47.805 124.788 54.1916 124.788 54.1916H124.79Z" fill="white"/>
<path d="M92.8751 66.8334C86.0814 66.8383 83.1005 75 83.1005 75C82.9127 72.195 85.518 65.8108 85.518 65.8108L86.5782 63.6097C86.6305 63.5732 87.5314 62.9717 89.0124 63.0472C89.0124 63.0472 89.0266 63.0472 89.0528 63.0472C89.0813 63.0472 89.1122 63.0472 89.1383 63.0521C89.1954 63.057 89.2715 63.0618 89.3642 63.074C89.8372 63.1251 90.7096 63.281 91.5297 63.729L91.5416 63.7728C91.8078 64.6835 92.1644 65.5503 92.6041 66.366C92.6897 66.5315 92.7705 66.6825 92.8419 66.7872C92.8419 66.7921 92.8466 66.7945 92.849 66.7994C92.8561 66.8115 92.8656 66.8213 92.8728 66.8334H92.8751Z" fill="white"/>
<path d="M93.9306 62.1463V62.1512C93.845 62.083 93.7618 62.0173 93.6738 61.954C93.8236 62.0392 93.9187 62.0952 93.9187 62.0952C93.9234 62.1122 93.9258 62.1293 93.9306 62.1463Z" fill="white"/>
<path d="M105.013 66.1809C104.999 66.176 104.989 66.1663 104.975 66.1614C104.989 66.1663 104.999 66.1736 105.013 66.1809Z" fill="white"/>
<path d="M105.65 66.0786C105.436 66.1176 105.219 66.1444 104.996 66.1566C105.065 66.1468 105.3 66.12 105.65 66.0786Z" fill="white"/>
</g>
<g clip-path="url(#clip2_2_289)">
<path d="M8.07796 65.283L6.97888 64.7507L6.49944 64.0379L6.17981 62.3838L6.39491 60.8224L7.36235 59.102L7.86933 58.7282C7.57828 59.008 7.3129 59.3321 7.07172 59.7011C6.10491 61.1805 6.21674 62.6737 6.87247 64.2045C6.9601 64.4088 7.04919 64.6713 7.25031 64.7513C7.58099 64.8827 7.84951 65.066 8.07796 65.283Z" fill="white"/>
<path d="M10.2034 57.516C9.71392 57.616 9.2641 57.7784 8.85205 58.0041L8.9764 57.9123L9.90336 57.5104L10.2034 57.516Z" fill="white"/>
<path d="M13.6933 71.296C13.3441 71.1359 13.0835 71.0156 13.0835 71.0156L11.0539 69.5436L9.39191 67.4975L8.16431 65.3684C8.71134 65.932 9.02534 66.6906 9.45012 67.3547C10.6099 69.1666 12.0359 70.4564 13.6933 71.296Z" fill="white"/>
<path d="M19.1604 72.5351L17.9574 72.6394C17.9574 72.6394 15.5443 72.0928 15.4805 72.0928C15.4523 72.0928 14.9796 71.8819 14.4613 71.6466C15.8817 72.2267 17.4546 72.5097 19.1604 72.5351Z" fill="white"/>
<path d="M22.7944 71.2121L22.5757 71.2568L21.2449 71.8787C21.3559 71.8126 21.4664 71.7463 21.5776 71.6818C22.1658 71.3414 22.5332 71.1701 22.7944 71.2121Z" fill="white"/>
<path d="M24.3549 76.1229C24.158 75.611 24 75.2117 24 75.2117L23.0026 71.3078C23.1981 71.4709 23.3295 71.8346 23.492 72.4362C23.8215 73.6553 24.0678 74.8942 24.3549 76.1229Z" fill="white"/>
<path d="M26.5222 79.4444L25.5642 78.8775C25.5642 78.8775 25.0745 78.4115 25.0829 78.3277C25.284 78.6187 25.5659 78.8623 25.989 79.0382C26.2214 79.135 26.3958 79.275 26.5222 79.4444Z" fill="white"/>
<path d="M25.9614 91.681C26.0113 91.7322 26.0624 91.7822 26.1144 91.8307C26.0547 91.7904 26.018 91.7637 26.0117 91.7555C26.0063 91.7484 25.9885 91.7221 25.9614 91.681Z" fill="white"/>
<path d="M27.8164 92.9274C28.0638 93.0382 28.319 93.1377 28.5796 93.229C28.2485 93.1467 28.0215 93.0846 28.0092 93.0661C28.0004 93.0529 27.9282 93.0021 27.8164 92.9274Z" fill="white"/>
<path d="M31.7026 89.4504C30.2485 90.3922 28.6643 90.8502 26.9262 90.7503C25.8248 90.6869 25.1413 90.3641 24.8313 89.7228L24.6533 88.963L24.7718 87.7256L26.1236 83.4185L26.0555 83.3893C26.1945 82.9873 26.336 82.5858 26.4651 82.1792C26.4691 82.1437 26.4734 82.1095 26.4787 82.0763C26.4691 82.1089 26.4593 82.1414 26.4494 82.1737C26.323 82.5797 26.1768 82.9796 26.0422 83.3836L25.9383 83.3389L26.2512 82.7199L26.5231 81.4498L26.6426 79.6425C26.8448 80.0556 26.8363 80.5852 26.7236 81.0886C26.6787 81.2888 26.6328 81.4914 26.5823 81.6929C26.8118 81.1582 27.3163 81.1394 27.9806 81.3289C29.3221 81.712 30.5556 82.2942 31.6655 83.1441C32.4381 83.8645 32.6304 84.7347 32.2668 85.7125C31.9407 86.5892 32.0717 87.4975 32.0202 88.3935C32.0079 88.7745 31.9778 89.1502 31.7026 89.4504Z" fill="white"/>
<path d="M32.6551 94.2485L31.3812 93.8778C31.3812 93.8778 31.1901 93.8352 30.8988 93.7697C30.9747 93.7729 31.0509 93.7739 31.127 93.7727C31.7342 93.762 32.2489 93.9009 32.6551 94.2485Z" fill="white"/>
<path d="M33.964 95.3595C33.9999 95.3492 34.0339 95.3377 34.0658 95.3245L33.6982 95.5337L33.1868 95.0514L32.7524 94.3377C32.907 94.4895 33.0441 94.675 33.163 94.8981C33.321 95.1945 33.5475 95.4777 33.964 95.3595Z" fill="white"/>
<path d="M34.0339 84.4319L33.631 85.105C33.8067 84.571 34.0858 84.0956 34.4077 83.8502L34.0339 84.4319Z" fill="white"/>
<path d="M34.5546 94.5048C34.5897 93.864 34.6619 93.2313 34.7677 92.6031C34.7572 92.8279 34.6846 94.3476 34.6308 94.3923C34.5724 94.4406 34.5453 95.0514 34.5453 95.0514L34.2502 95.2193C34.4576 95.0581 34.5379 94.8058 34.5546 94.5048Z" fill="white"/>
<path d="M34.6664 88.2506C34.6305 88.1647 34.588 88.0841 34.5404 88.0079L34.6307 88.0898L34.7937 88.5247C34.752 88.4328 34.7092 88.3413 34.6664 88.2506Z" fill="white"/>
<path d="M35.2139 90.5788L35.2483 91.1407L34.7758 92.5548C34.8794 91.9476 35.0144 91.3441 35.177 90.7417C35.1916 90.6873 35.2039 90.6332 35.2139 90.5788Z" fill="white"/>
<path d="M35.8885 83.6613H34.7848C35.1384 83.545 35.5142 83.5511 35.8885 83.6613Z" fill="white"/>
<path d="M37.4037 84.7095C38.2082 85.6348 38.744 86.6725 39.0997 87.8026L38.3165 86.2557L37.12 84.4123C37.2172 84.5047 37.3119 84.604 37.4037 84.7095Z" fill="white"/>
<path d="M39.3436 88.7073C39.3603 89.0276 39.3768 89.3479 39.3926 89.6682L39.1633 88.0121C39.2303 88.2403 39.29 88.472 39.3436 88.7073Z" fill="white"/>
<path d="M40.7872 97.6728C40.5298 97.4973 40.2502 97.3183 40.2502 97.3183L39.7549 96.2251C39.7549 96.2251 39.5152 95.1158 39.5089 94.9871C39.5026 94.8585 39.3927 91.5987 39.3927 91.5987V89.6682C39.4772 91.3584 39.5527 93.0493 39.6314 94.7397C39.6865 95.9214 39.9437 96.9163 40.7872 97.6728Z" fill="white"/>
<path d="M42.2163 98.9857C42.1529 98.9167 41.2251 98.0739 41.2109 97.9992C41.605 98.2605 41.9366 98.6002 42.2163 98.9857Z" fill="white"/>
<path d="M11.7138 57.9354C11.5158 57.8976 11.3297 57.8292 11.1705 57.7033L11.7138 57.9354Z" fill="#FFFEFF"/>
<path d="M18.6522 62.5936C18.2247 62.5516 17.816 62.3417 17.4001 62.0785C16.0253 61.2078 14.7647 60.2158 13.9372 58.7708C13.5972 58.177 13.0973 57.9896 12.4409 57.9835C12.2356 57.9816 12.0249 57.9801 11.8234 57.9529L12.636 57.829L13.5949 58.061L14.1861 59.0378L15.5923 60.7099L17.9416 62.3175C17.9416 62.3175 18.3647 62.4892 18.6522 62.5936Z" fill="#FFFEFF"/>
<path d="M25.1696 50.2803C24.9397 50.5129 24.6574 50.6844 24.3549 50.8341C23.7568 51.1298 23.2049 51.4976 22.6948 51.9211L22.9913 51.6101L25.1696 50.2803Z" fill="#FFFEFF"/>
<path d="M30.9565 48.0648C29.6332 48.3033 28.3133 48.5612 27.01 48.9044C26.4634 49.0484 25.9714 49.2382 25.6213 49.6676L25.7793 49.3431C25.7793 49.3431 27.5458 48.5875 27.5938 48.5875C27.6255 48.5875 29.6225 48.2745 30.9565 48.0648Z" fill="#FFFEFF"/>
<path d="M36.5321 48.3045C36.3008 48.2313 36.0936 48.0894 35.9131 47.8352C35.7233 47.5672 35.4873 47.441 35.2319 47.3955L35.5267 47.3495L35.8557 47.7032L36.5321 48.3045Z" fill="#FFFEFF"/>
<path d="M42.7898 51.3773C42.6621 51.1025 42.53 50.8477 42.3923 50.6122L42.6473 50.8865L42.7898 51.3773Z" fill="#FFFEFF"/>
<path d="M43.9507 58.2186C43.8312 57.5389 44.0325 56.7893 43.5161 56.2035C42.5441 56.036 42.0186 55.2753 41.4828 54.5831C40.6545 53.5126 39.6236 52.7954 38.3278 52.4478C37.6026 52.1098 37.1618 51.4079 36.4608 51.0192C34.5593 49.9653 32.5343 50.1848 30.5454 50.4682C27.8325 50.8546 25.854 52.4954 24.2302 54.6221C24.2238 54.6265 24.2171 54.6309 24.2106 54.6358C24.1288 54.8937 24.0322 55.2344 23.9219 55.683L23.7358 55.0652C23.2682 55.6047 23.0139 56.2948 22.6227 56.8909C22.257 57.448 22.0638 58.3651 21.0352 58.0538C20.9903 57.8086 20.9586 57.5628 20.9374 57.3166C20.9488 58.0773 20.9989 58.8361 21.1783 59.5892C21.4846 60.8732 20.7577 61.6192 19.7888 62.2734C19.5552 62.4313 19.3313 62.5255 19.1139 62.57C19.3939 62.4241 19.8591 62.1729 19.8591 62.1729L20.9459 61.1922L21.1057 59.8256L20.7542 56.6905L20.9351 55.3553C20.9351 55.3645 20.9355 55.3736 20.9355 55.3828C20.9365 55.3639 20.9378 55.345 20.939 55.3261C20.9501 55.1481 20.9628 54.9706 20.9764 54.7934C21.0002 54.4815 21.0648 54.1826 21.1656 53.8988C21.1666 53.8954 21.1679 53.8921 21.1691 53.8887C21.2513 53.6597 21.3571 53.4408 21.4844 53.2326L21.5053 53.1694L21.5641 53.1077C21.7099 52.8881 21.8802 52.6816 22.0719 52.4889C22.0736 52.4872 22.075 52.4857 22.0769 52.4841C22.1526 52.4081 22.2315 52.3344 22.3137 52.263C22.4078 52.1812 22.5027 52.101 22.5985 52.0223C23.6106 51.19 24.7178 50.5385 26.038 50.2803C28.8252 49.7354 31.5278 48.7862 34.3644 48.4834C35.1132 48.4034 35.8639 48.3475 36.6147 48.3274C36.5976 48.3234 36.5805 48.3188 36.5636 48.314C36.6804 48.314 37.2665 48.315 37.7578 48.323C37.7482 48.3236 37.7384 48.3245 37.7288 48.3251C37.9746 48.331 38.2204 48.3413 38.4659 48.3566C38.8467 48.3801 39.227 48.4153 39.6067 48.4638C39.8164 48.4907 40.0148 48.5367 40.2026 48.6003C40.8293 48.8108 41.3395 49.2123 41.7665 49.7239C41.7669 49.7243 41.7676 49.7249 41.768 49.7255C41.9153 49.9023 42.0528 50.092 42.1817 50.2917C42.242 50.3848 42.3002 50.4789 42.3563 50.5735C42.5251 50.858 42.676 51.1491 42.8099 51.4467C43.1665 52.2387 43.4028 53.0766 43.5372 53.9521C43.5372 53.9521 43.9737 57.4944 43.9257 57.5748C43.9031 57.6128 43.9232 57.9123 43.9507 58.2186Z" fill="#FFFEFF"/>
<path d="M45.186 59.5957C44.7502 59.5147 44.4667 59.3394 44.2716 59.0601L45.186 59.5957Z" fill="#FFFEFF"/>
<path d="M47.0385 88.6979C46.775 88.1477 46.9444 87.5203 46.8305 86.9412C46.4164 84.8338 45.8326 82.7845 44.9778 80.8152C44.691 79.9914 44.4515 79.1528 44.2251 78.3107L45.1268 80.887L45.8115 82.6074L46.5526 84.6331L46.8261 86.691L47.0385 88.6979Z" fill="#FFFEFF"/>
<path d="M48.4105 60.5197C48.1674 60.4108 47.9189 60.3113 47.664 60.2235C46.8499 59.9662 46.0224 59.7511 45.186 59.5957L47.4134 60.0122L48.4105 60.5197Z" fill="#FFFEFF"/>
<path d="M43.8264 54.5898C43.818 54.7965 43.7533 54.9529 43.4821 55.0236C43.3799 53.6775 43.0615 52.3952 42.4548 51.1894C41.5349 49.3611 40.092 48.4936 38.0355 48.5169C34.6025 48.5559 31.2889 49.2704 27.9954 50.1441C26.5936 50.516 25.1415 50.682 23.842 51.4337C21.8996 52.5569 20.9542 54.193 21.064 56.4411C21.0913 57.003 21.1514 57.5634 21.1965 58.1245C21.6181 58.5754 21.3692 59.2911 21.8278 59.7772C22.259 58.9446 22.0385 57.7005 23.3475 57.5227C24.2692 57.8923 24.3151 58.513 23.8488 59.2802C23.4205 59.4217 23.499 58.8694 23.1032 58.7609C22.8943 60.1647 23.0596 61.3735 24.2446 62.2753C24.5334 62.5733 24.1543 62.9346 24.3383 63.2444C24.8976 65.5141 26.1544 67.1206 28.5018 67.6951C31.1723 68.426 33.6742 68.0014 36.0326 66.5923C37.922 65.6287 39.0059 64.0372 39.5654 62.0291C39.6844 61.6019 39.6908 61.1271 40.0361 60.7844C40.2095 60.7134 40.3741 60.7266 40.5295 60.8347C40.8585 62.9245 40.2153 64.7433 38.6773 66.0911C35.7397 68.6655 32.3565 69.8374 28.4302 68.8718C25.8559 68.2388 24.1211 66.7462 23.4618 64.0964C23.3767 63.7538 23.4247 63.3235 23.0199 63.1187C22.4224 62.9472 22.8948 62.3139 22.5526 62.0289C22.4224 61.9476 22.3525 61.8259 22.3056 61.6859C22.2121 61.1771 21.9972 61.0929 21.5551 61.3939C20.7394 61.9491 20.0198 62.643 19.132 63.0954C18.9184 63.1468 18.7039 63.146 18.4882 63.1101C17.4868 62.7988 16.6508 62.2197 15.9061 61.4928C15.5851 61.1504 15.2577 60.8152 14.8559 60.5646C14.2632 60.1826 13.9517 59.5804 13.6191 58.9893C13.4706 58.7252 13.2408 58.4154 12.9181 58.6749C12.5914 58.9374 12.722 59.2806 12.9949 59.5518C13.2369 59.7926 13.7628 59.8618 13.5432 60.3828C13.4349 60.6397 13.1664 60.7587 12.8926 60.7529C12.4186 60.743 12.161 60.425 11.9918 60.0216C11.8897 59.7787 11.847 59.5159 11.7691 59.2647C11.475 58.3159 10.8797 57.8672 9.93567 58.0347C8.47586 58.2941 7.59438 59.2997 7.02752 60.598C6.48027 61.8517 6.55392 63.0599 7.44437 64.2244C7.58019 63.8865 7.33254 63.7551 7.2541 63.5651C7.07655 63.135 7.06299 62.787 7.66156 62.8441C8.74103 62.947 8.45771 62.4077 8.15414 61.8425C8.11868 61.7763 8.07319 61.7155 8.04106 61.6477C7.89898 61.3488 7.61232 60.9768 7.9163 60.7279C8.2643 60.4426 8.48212 60.8897 8.71286 61.1007C8.87205 61.2463 8.99953 61.4382 9.26887 61.4271C9.4604 60.9221 9.12262 60.4473 9.25615 59.9716C9.30705 59.7905 9.33564 59.5755 9.54072 59.5205C9.80298 59.4504 9.94547 59.6494 10.0629 59.8446C10.2983 60.2359 10.1531 60.8482 10.7806 61.0669C11.0738 60.5812 10.687 60.2082 10.6116 59.8008C10.5716 59.5829 10.4779 59.3295 10.7564 59.2179C10.9934 59.1228 11.1787 59.2764 11.3387 59.4504C12.4046 60.6089 12.061 61.8614 10.5941 62.5335C8.97032 63.2773 8.06777 65.1537 9.7358 66.7418C10.3383 65.4257 11.1023 64.2355 11.9955 63.1407C12.6043 62.3947 13.1659 61.5719 14.1225 61.2016C14.9166 61.6353 14.1987 61.9642 13.9907 62.2018C13.2486 63.049 12.5359 63.9154 11.8866 64.8363C11.3237 65.6347 10.8167 66.4618 10.5749 67.3312C11.3012 65.1507 12.9715 63.579 14.627 62.0026C14.8941 61.7484 15.2485 61.3622 15.6111 61.9415C15.3652 62.6476 14.7393 63.0339 14.2604 63.5387C13.128 64.7332 12.1699 66.047 11.4309 67.5209C10.9982 68.2575 11.1668 68.8769 11.7731 69.4308C13.9456 71.4152 16.5713 72.2028 19.4129 72.0126C21.0173 71.9053 22.1541 70.5701 23.4497 69.6963C23.9242 69.3767 23.2367 68.6844 23.8803 68.4413C24.7136 68.7768 24.9679 69.4277 24.8686 70.2715C24.8111 70.3728 24.7264 70.444 24.6183 70.4856C23.9832 70.6279 23.5997 71.0002 23.7447 71.6788C24.1824 73.7241 24.6179 75.7719 25.3214 77.7479C25.3967 77.9591 25.5164 78.1488 25.7493 78.2168C26.433 77.9715 25.5356 76.9499 26.4419 76.8281C27.2293 77.5544 27.1632 78.5313 27.2147 79.4737C26.9168 80.2552 27.2565 80.6613 27.9917 80.8931C29.0983 81.2419 30.1911 81.647 31.1389 82.334C31.4151 82.5341 32.0909 82.7112 31.5178 83.303C30.3883 82.6128 29.2391 81.9888 27.9499 81.6122C27.1607 81.3817 26.6973 81.4546 26.5373 82.3227C26.2899 83.1501 26.0424 83.9774 25.795 84.8046C25.7495 84.9568 25.3124 86.1708 25.3124 86.1708C25.1488 86.8102 24.9803 87.4489 24.8605 88.0967C24.5901 89.5593 24.959 90.0737 26.4038 90.401C28.2443 90.818 29.8408 90.025 31.4673 89.3781C31.775 90.071 31.1905 90.2177 30.793 90.4094C29.5293 91.0189 28.2158 91.3575 26.8271 91.181C26.6685 91.1566 26.5098 91.1295 26.3508 91.1006C26.5106 91.1341 26.6694 91.161 26.8271 91.181C28.0376 91.3661 29.2412 91.39 30.4269 90.9161C30.6328 90.8336 30.8562 90.7832 31.0761 90.8961C31.3102 91.6276 30.7463 91.8111 30.2773 91.9981C29.4792 92.3161 28.6332 92.3967 27.6218 92.2962C29.3516 93.0755 30.961 93.5728 32.7141 93.1889C34.4501 92.2013 35.0462 90.8646 34.5745 89.002C34.5102 88.7484 34.4262 88.4997 34.4846 88.2318C34.549 88.0622 34.6404 87.9325 34.8516 87.9808C35.4898 89.1858 35.7209 90.3749 35.1939 91.7431C34.8824 92.552 34.9233 93.5121 34.8812 94.408C34.8495 95.0805 34.6575 95.6017 33.9822 95.7912C33.3083 95.9803 33.0273 95.4336 32.8236 94.9741C32.5363 94.3251 32.0809 94.1437 31.422 94.0917C29.9674 93.9764 28.5592 93.6779 27.24 92.9733C24.8106 91.6755 23.9569 89.7417 24.7368 87.0669C24.8148 86.7993 24.867 86.5195 24.9686 86.2556C24.9686 86.2556 24.9688 86.255 24.9694 86.2535C24.9696 86.2527 24.97 86.2514 24.9707 86.25C24.9715 86.2477 24.9725 86.2447 24.974 86.2411C25.0216 86.1121 25.3754 85.1425 25.5678 84.2912C25.5878 84.2028 25.606 84.1159 25.622 84.0311C25.6222 84.0298 25.6224 84.0284 25.6228 84.0271C25.7635 83.4411 26.0145 82.8802 26.2517 82.3162C26.3378 81.7222 26.4843 81.1288 26.4935 80.5335C26.5035 79.8923 26.4278 79.2773 25.5505 79.1326C24.8757 79.0214 24.6702 78.3743 24.52 77.7811C23.9763 75.6363 23.4462 73.488 22.9114 71.3426C22.81 71.3566 22.7258 71.3447 22.6701 71.3793C21.1385 72.3348 19.6551 73.1727 17.6639 72.7938C14.9813 72.2831 12.5649 71.3921 10.6479 69.3716C9.99972 68.6884 9.45122 67.9334 8.95843 67.1295C8.46522 66.3249 8.01957 65.5789 7.15854 64.9576C6.00459 64.1249 5.83455 62.5729 6.12247 61.1332C6.51199 59.1874 8.72497 56.9003 10.8288 57.2333C11.2486 57.4667 11.6456 57.8289 12.1651 57.7022C13.2715 57.4324 13.8421 57.9354 14.3919 58.8782C15.3211 60.4722 16.8266 61.5089 18.43 62.3456C19.1819 62.7379 21.0277 61.196 20.9588 60.2867C20.8622 59.0134 20.7375 57.7423 20.6158 56.4711C20.3553 53.7495 21.6619 51.9576 23.965 50.767C24.5594 50.4597 25.1799 50.2517 25.3635 49.4558C25.4745 48.9739 26.009 48.8616 26.4394 48.7457C29.2205 47.9966 32.0644 47.5625 34.8956 47.0661C35.2584 47.0025 35.7587 46.8811 35.8983 47.3051C36.2271 48.3045 36.9825 48.1494 37.7228 48.1387C41.3407 48.087 43.9768 50.8772 43.8264 54.5898Z" fill="#38295E"/>
<path d="M24.9688 86.2561C24.9688 86.2561 24.969 86.2553 24.9698 86.2536C24.9693 86.2546 24.9688 86.2553 24.9688 86.2561Z" fill="#38295E"/>
<path d="M26.8273 91.181C26.6695 91.1611 26.5108 91.1342 26.351 91.1006C26.5099 91.1296 26.6687 91.1567 26.8273 91.181Z" fill="#38295E"/>
<path d="M47.0155 90.519C46.8931 92.5605 46.1441 94.3833 45.0129 96.0438C44.5998 96.6502 44.4775 97.2094 44.6096 97.9276C44.9613 99.8392 44.3062 100.381 42.4934 99.7479C41.842 99.0817 41.2454 98.3684 40.483 97.8063C39.6405 97.185 39.3737 96.239 39.3368 95.2256C39.2575 93.0498 39.1857 90.8737 39.111 88.6979C38.9961 88.4359 39.1551 88.3921 39.3585 88.383C39.5738 88.5216 39.6914 88.7312 39.7782 88.9634C39.8573 89.786 40.3697 90.091 41.1277 90.1363C42.2829 90.2054 43.4199 90.1705 44.5386 89.8074C44.9177 89.6844 45.3872 89.3903 45.7001 89.9674C45.0825 90.9346 44.0753 91.0937 43.0715 91.1911C42.2923 91.2669 41.4999 91.2618 40.7202 91.1516C40.1388 91.0693 39.8778 91.2891 39.8821 91.877C39.8915 93.1167 39.812 94.3585 40.1144 95.5826C40.3023 96.3437 40.5531 97.0536 41.3824 97.2956C42.2289 97.5427 42.884 97.1567 43.5076 96.5952C44.9494 95.297 45.5461 93.5716 46.0218 91.7736C46.1566 91.2639 46.2313 90.7419 46.3371 90.2251C46.5113 89.8378 46.3924 89.3169 46.8582 89.0629C47.2982 89.506 47.0702 90.0221 47.0155 90.5192V90.519Z" fill="#39295F"/>
<path d="M31.518 83.303C31.8564 82.8769 31.3855 82.82 31.2065 82.6853C30.1896 81.9193 29.0164 81.4678 27.8101 81.1274C26.9779 80.8925 26.6038 80.4872 26.9535 79.6182C27.6393 79.8713 28.4828 79.5059 29.0651 80.1633C28.9499 80.5283 28.7262 80.4826 28.6234 80.4234C30.9887 80.3531 31.9309 82.6977 33.6479 83.9031C34.0401 84.1785 33.9692 84.6195 33.7917 85.0313C33.4816 85.7511 33.1447 86.4599 32.8912 87.203C32.8666 87.31 32.833 87.4145 32.7958 87.5178C32.6486 87.8665 32.5666 88.255 32.2286 88.4918C32.0665 88.5596 31.9135 88.5619 31.7811 88.4259C31.6688 87.4196 31.5714 86.428 32.0322 85.4553C32.4211 84.6346 32.0425 83.9363 31.518 83.3032V83.303Z" fill="#A2D7EA"/>
<path d="M32.5703 87.5489C32.5069 86.6087 33.2058 85.9799 33.538 85.2034C33.8146 84.5569 33.9254 84.0763 33.1011 83.7979C32.8689 83.7194 32.6651 83.5135 32.4842 83.3299C31.1493 81.9746 29.7271 81.0068 28.2174 80.4265C28.4029 80.0884 28.7242 80.2641 28.9683 80.204C30.2023 79.9887 31.1838 80.7248 31.7429 81.5331C32.8764 83.1716 34.3738 83.2745 36.0549 83.1609C36.4246 83.1359 36.796 83.0889 37.1674 83.1235C37.28 83.1441 37.3654 83.2073 37.4259 83.3038C37.4378 83.8788 37.5365 84.4232 37.9913 84.8355C38.5389 85.5504 39.0516 86.2922 39.3048 87.1654C39.4217 87.5682 39.6946 88.0077 39.3103 88.4279C39.2435 88.518 39.1769 88.6078 39.1102 88.6979C38.7298 87.2672 38.0459 86.0181 37.1611 84.8191C36.5678 84.015 35.9333 83.8735 35.0618 83.8932C34.1409 83.9142 34.1718 84.6785 33.9348 85.2127C33.7093 85.7208 33.1819 86.2309 33.7381 86.848C33.829 87.0411 33.702 87.1234 33.5628 87.2006C33.2161 87.2699 32.9259 87.505 32.5699 87.5487L32.5703 87.5489Z" fill="#392B5F"/>
<path d="M31.781 88.4256C31.9313 88.426 32.0813 88.4263 32.2315 88.4267C32.408 89.6101 32.0591 90.3351 31.0081 90.9707C28.827 91.9207 26.1932 91.8038 25.3416 90.5473C27.3257 91.2513 29.0945 90.9489 30.7938 90.0897C31.0938 89.9382 31.582 89.938 31.4677 89.3779C31.8294 89.1462 31.635 88.7291 31.7812 88.4256H31.781Z" fill="#A1D1E5"/>
<path d="M25.6222 84.0312C25.6062 84.116 25.588 84.2029 25.568 84.2912C25.5834 84.2039 25.6016 84.1172 25.6222 84.0312Z" fill="#5A4B78"/>
<path d="M33.529 87.0651C33.5989 86.9929 33.6686 86.9204 33.7385 86.8482C34.1495 87.1862 34.6073 87.4775 34.8518 87.9811C34.7669 88.0692 34.6822 88.1576 34.5972 88.2458C33.9601 88.1097 33.4886 87.8218 33.529 87.0651Z" fill="#38295E"/>
<path d="M40.4242 60.8614C40.2963 60.8608 40.1684 60.8604 40.0405 60.8598C38.7509 61.25 38.415 62.5803 37.5653 63.4059C35.3834 65.4549 32.8186 66.3841 29.8302 66.1287C28.7705 66.0382 27.7995 65.7202 26.8878 65.1911C25.8165 64.6758 25.2371 63.4758 24.0487 63.1196C23.6554 62.7281 24.312 62.6565 24.2734 62.3731C23.5689 61.442 23.1821 60.4471 23.6586 59.2784C23.9206 58.6058 24.1601 57.9405 23.1458 57.6833C23.3433 56.5866 23.5205 55.4838 24.0863 54.497C26.5557 50.6869 30.2101 49.6307 34.4583 50.0312C36.0986 50.1859 37.3352 51.1628 38.4659 52.284C38.796 52.4667 39.1388 52.6671 39.2744 53.0284C39.8139 54.4672 40.8957 55.6072 41.4361 57.0412C41.5445 57.3294 41.671 57.6038 41.9282 57.7706C42.386 58.0677 42.8683 58.6613 43.3814 58.3991C43.8166 58.1768 43.4965 57.5106 43.4496 57.0404C43.4164 56.7083 43.3131 56.371 43.5808 56.0824C43.6038 55.9038 43.6267 55.7254 43.6691 55.3944C44.2439 56.3656 44.0657 57.3479 44.2436 58.2471C44.3724 58.8974 44.5937 59.2129 45.276 59.3262C46.1533 59.4721 47.0047 59.776 47.8674 60.012C47.8755 60.3321 47.6273 60.3531 47.4103 60.4112C46.7783 60.4211 46.1758 60.2311 45.5637 60.1138C43.813 59.7783 43.7102 59.8264 43.0085 61.5025C42.5481 62.365 42.7653 63.4474 42.1283 64.2511C41.468 64.2654 41.6071 63.7516 41.6153 63.3926C41.6388 62.3616 42.0903 61.4534 42.4377 60.6417C41.8199 61.5373 41.8143 62.7858 41.3004 63.8481C40.8696 63.6957 40.904 63.3095 40.8552 62.964C40.8227 62.1788 41.0054 61.4408 41.343 60.7384C41.5231 60.3692 41.7718 60.0426 42.006 59.7066C42.2072 59.4182 42.2322 59.1436 41.8763 58.9623C41.5262 58.7838 41.3132 58.9417 41.207 59.291C41.1093 59.6121 41.0359 59.9408 40.917 60.2563C40.8083 60.5038 40.7117 60.7617 40.4246 60.8614H40.4242Z" fill="#36255E"/>
<path d="M43.5806 56.0824C43.6171 56.341 43.6853 56.5996 43.6843 56.858C43.6814 57.5459 44.2153 58.4004 43.5101 58.8693C43.0258 59.1911 41.3188 57.6873 41.1417 56.939C41.0818 56.6863 41.0549 56.3448 40.8838 56.2128C39.5786 55.2048 39.5252 53.4316 38.4659 52.2841C39.8477 52.4549 40.7903 53.3014 41.6226 54.3348C42.1773 55.0239 42.6941 55.7657 43.5806 56.0824Z" fill="#A0D6EA"/>
<path d="M24.2081 54.4876C24.0541 54.9133 23.9729 55.3473 23.9661 55.3849C23.9661 55.386 23.9656 55.3868 23.9656 55.3872C23.8528 56.2006 23.6915 56.9995 23.1455 57.6833C22.3771 58.1126 22.365 58.8804 22.3191 59.6151C22.2918 60.0531 22.1105 60.3686 21.6851 60.3644C21.2503 60.36 21.3921 59.9209 21.3515 59.6648C21.2703 59.1562 21.2451 58.6386 21.1967 58.1248C21.979 57.6779 22.335 56.9023 22.738 56.1502C23.0744 55.523 23.2705 54.7598 24.0652 54.5038C24.072 54.5014 24.0789 54.4991 24.086 54.497C24.086 54.497 24.1678 54.48 24.2081 54.4876Z" fill="#A1D6E9"/>
<path d="M44.9945 80.7418C45.06 80.7395 45.1253 80.7407 45.1906 80.746C46.4918 83.3001 47.1882 86.0093 47.254 88.8805C47.1442 89.4223 47.2855 90.001 47.0155 90.519C46.8765 90.0599 47.1628 89.5366 46.8052 89.1105C46.5842 88.7703 46.0057 88.7304 46.0328 88.179C46.4309 87.5277 46.4244 86.8503 46.2646 86.1197C45.9513 84.6865 45.5699 83.2772 45.0758 81.8965C44.9446 81.53 44.6513 81.1515 44.9945 80.7418Z" fill="#36285D"/>
<path d="M52.8011 63.3565C52.6374 63.4917 52.4736 63.6267 52.3098 63.7619C51.9101 63.2562 51.46 63.4669 51.0086 63.667C49.1459 64.4921 47.7224 65.8019 46.7241 67.5846C46.5989 67.8079 46.4737 68.1249 46.1883 68.0797C45.8816 68.0312 45.8839 67.7059 45.8918 67.4372C46.5298 65.6575 47.9225 64.5414 49.3508 63.4565C49.855 62.9982 50.695 62.9634 50.9391 62.1769C50.991 62.0323 51.0484 61.895 51.2435 61.9968C51.8327 62.369 52.3321 62.8454 52.8014 63.3567L52.8011 63.3565Z" fill="#392C5E"/>
<path d="M51.2433 61.9966C51.1765 62.0537 51.1098 62.1108 51.043 62.1679C50.8663 62.315 50.6862 62.248 50.5358 62.1416C49.6829 61.538 48.7935 61.0096 47.7979 60.6732C47.5935 60.6041 47.3863 60.4809 47.4165 60.1954C47.5667 60.1343 47.7172 60.0735 47.8674 60.0124C49.144 60.4131 50.2621 61.0871 51.2433 61.9968V61.9966Z" fill="#36255E"/>
<path d="M43.5898 76.6838C43.5631 76.7982 43.5195 76.8926 43.4638 76.9726C43.2503 77.2786 42.8594 77.3737 42.5545 77.5723C40.3655 78.6934 38.8377 80.4345 37.8292 82.6639C37.7203 82.9044 37.6228 83.1536 37.3322 83.2325C36.0698 83.5914 34.7742 83.3983 33.4961 83.4258C32.9117 83.4384 32.5716 82.8553 32.2236 82.4254C31.358 81.3553 30.2977 80.584 28.9691 80.204C28.6109 79.9087 28.1968 80.1037 27.8102 80.0773C27.4446 80.0523 27.0622 80.1066 26.9535 79.6176C26.8379 78.6799 26.8991 77.701 26.3291 76.8672C26.0218 76.5835 26.0078 76.1937 25.9519 75.8186C25.8999 75.0762 25.8092 74.3392 25.6264 73.6157C25.6022 73.5107 25.5865 73.4043 25.5744 73.2975C25.5071 72.2685 24.8484 71.3857 24.8526 70.3395C24.5724 69.663 24.5048 68.8673 23.7958 68.4311C22.9377 70.0421 21.3377 70.1418 19.8172 70.4077C18.7054 69.251 18.8642 67.7116 18.634 66.3033C18.4767 65.3414 18.6657 64.366 18.8594 63.4096C18.8977 63.2117 19.006 63.0511 19.1297 62.899C20.1846 62.1137 21.2395 61.3283 22.3043 60.5355C22.6358 60.9716 22.3688 61.3499 22.4746 61.6897C22.6598 62.515 22.3337 63.3765 22.6521 64.1917C22.7473 64.4388 22.7137 64.7169 22.8374 64.9566C23.03 65.3558 22.9033 65.8355 23.1257 66.1279C22.9407 65.7293 23.0091 65.168 22.7712 64.6808C22.7458 64.0876 22.4589 63.4663 22.969 62.9369C23.3813 62.59 23.4908 62.8412 23.6106 63.2256C25.0508 67.8482 28.1237 69.7346 32.9106 68.6912C35.8054 68.06 38.4497 66.8644 39.8919 63.9415C40.3829 62.9468 40.2508 61.8874 40.4242 60.8614C40.5293 60.628 40.6345 60.3946 40.7398 60.1612C41.2347 59.9797 41.5765 60.0812 41.6574 60.6641C41.4419 61.3761 41.0672 62.047 41.1093 62.8251C41.0889 64.0626 41.202 65.2851 41.5189 66.4836C41.6806 66.8174 41.7404 67.145 41.4534 67.4481C42.4556 67.7021 42.562 68.4804 42.6417 69.3513C42.7358 70.3796 42.6269 71.4283 42.9201 72.4377C43.3834 73.0768 43.3304 73.7819 43.2205 74.4939C43.213 74.543 43.2051 74.5919 43.1971 74.641C43.3279 75.3219 43.459 76.0029 43.5898 76.6838Z" fill="white"/>
<path d="M15.9852 61.3001C16.7997 61.8358 17.6144 62.3713 18.429 62.9069C18.5804 63.1397 18.4671 63.3582 18.3958 63.5795C17.9318 65.5357 18.3178 67.4391 18.749 69.3398C18.8012 69.7587 19.0052 70.1653 18.8556 70.6015C18.7018 70.9669 18.377 71.0759 18.0374 71.0689C15.418 71.0154 13.2164 70.0364 11.4983 68.0218C11.3531 67.8514 11.2995 67.6234 11.257 67.4015C12.2219 65.203 13.8113 63.507 15.5853 61.9599C15.6621 61.7052 15.4701 61.2857 15.9854 61.3006L15.9852 61.3001Z" fill="white"/>
<path d="M14.2227 61.251C12.259 62.9229 10.7435 64.9259 9.82135 67.3883C8.67449 66.5241 8.23886 65.195 8.56287 64.1151C8.74376 63.5118 9.38406 62.4403 10.4097 62.1618C11.9023 61.7567 11.9742 61.5852 11.4122 60.1297C11.2966 59.8302 11.1316 59.55 10.8848 59.0485C10.6959 59.7527 11.0502 60.0831 11.1533 60.4658C11.2576 60.8532 11.5117 61.335 10.9874 61.5423C10.4304 61.7627 10.2286 61.2369 10.0081 60.848C9.79694 60.4758 10.1024 59.9114 9.53177 59.6224C9.29101 60.2103 9.63045 60.6996 9.73164 61.2126C9.78338 61.4754 9.85307 61.777 9.60208 61.9311C9.34337 62.09 9.08341 61.8862 8.90524 61.7038C8.59709 61.3881 8.33066 61.0308 7.97974 60.6108C7.84872 61.2749 8.3436 61.5547 8.5297 61.964C8.69702 62.3318 9.02312 62.7174 8.73416 63.1118C8.43582 63.519 8.05089 63.126 7.70497 63.0807C7.56832 63.0629 7.43521 63.0188 7.21823 62.9669C7.27435 63.4835 7.74419 63.5736 7.86186 63.9048C7.95074 64.1554 8.3242 64.4148 7.94657 64.6734C7.59001 64.9176 7.31253 64.6902 7.11495 64.3747C6.60255 63.557 6.30629 62.6624 6.41895 61.6983C6.62341 59.9494 7.62715 58.7162 9.13787 57.9402C10.5305 57.2247 11.7998 57.9507 12.1157 59.5416C12.3137 60.5392 12.6227 60.6815 13.7095 60.0921C12.8534 60.0457 12.3139 59.7813 12.3936 58.9413C12.4251 58.6077 12.3777 58.2129 12.8084 58.1216C13.2104 58.0364 13.588 58.189 13.7168 58.5983C13.9682 59.3974 14.5984 59.8852 15.1181 60.4672C15.0879 61.0386 14.6569 61.1465 14.2229 61.2512L14.2227 61.251Z" fill="#FEFEFE"/>
<path d="M26.7818 64.897C30.7907 66.7941 34.3385 65.9343 37.5517 63.0738C38.2312 63.7077 38.1173 64.987 37.2844 65.8483C36.9518 66.1921 36.5319 66.4417 36.2074 66.7983C33.7435 68.3152 31.147 68.871 28.3398 67.8944C26.7651 67.0714 26.2863 66.1503 26.7818 64.897Z" fill="#FEFEFF"/>
<path d="M11.257 67.4013C12.6865 69.1739 14.5285 70.2617 16.7451 70.6985C17.4221 70.832 18.1246 70.9919 18.7761 70.5654C19.0659 70.5893 19.1003 70.8171 19.1531 71.033C19.0386 70.4103 18.681 69.8652 18.5783 69.2371C18.4267 68.5707 18.2606 67.908 18.2533 67.2194C18.2723 66.9859 18.3276 66.7748 18.5785 66.6854C19.1387 67.3829 18.8736 68.305 19.2151 69.0614C19.4243 69.5249 19.3432 70.1662 19.9948 70.3614C20.4669 70.1678 20.9273 69.9353 21.4135 69.789C22.3158 69.5173 23.1837 69.2075 23.7965 68.4319C24.4777 69.8244 23.2951 70.1842 22.5094 70.7308C21.1629 71.6672 19.8642 72.6461 18.0215 72.3481C15.6226 71.96 13.3675 71.3196 11.5113 69.6462C10.7564 68.9659 10.5756 68.238 11.2567 67.402L11.257 67.4013Z" fill="#A1D7EA"/>
<path d="M26.0929 78.6579C25.6915 78.7779 25.3372 78.6249 25.1897 78.2066C24.9283 77.4663 24.6636 76.7239 24.4651 75.9651C24.0959 74.5526 23.7491 73.1331 23.4399 71.7062C23.2173 70.6798 23.6137 70.2358 24.5678 70.3389C25.3437 71.1854 25.2139 72.4312 25.8705 73.3302C25.8983 73.3818 25.8983 73.4334 25.8705 73.4853C25.7155 74.288 26.1488 75.0331 26.0962 75.8257C26.1363 75.8643 26.1697 75.9044 26.1972 75.946L26.1782 75.9753L26.2801 76.7499L26.327 76.7572C26.327 76.7942 26.3274 76.8307 26.3291 76.8672C25.9811 77.2047 26.4207 77.5439 26.3268 77.8882C26.2552 78.1503 26.4956 78.5376 26.0929 78.6579Z" fill="#A1D6E9"/>
<path d="M36.2076 66.7983C36.6758 66.0038 37.5293 65.4597 37.6816 64.4564C37.7542 63.9778 37.938 63.5033 37.5514 63.0742C37.929 62.5257 38.3056 61.9769 38.6843 61.4296C39.0156 60.9509 39.3722 60.5287 40.0402 60.86C39.7788 63.5033 38.5527 65.5164 36.2074 66.7985L36.2076 66.7983Z" fill="#A0D6E9"/>
<path d="M26.7818 64.897C26.5836 66.2737 27.4577 67.0862 28.3399 67.8944C25.7889 67.3222 24.5755 65.533 24.0485 63.1195C24.5548 62.5912 24.8429 63.1519 25.1342 63.387C25.7127 63.8534 26.2358 64.3896 26.7818 64.897Z" fill="#A1D6EA"/>
<path d="M14.2226 61.251C14.5208 60.9895 14.8189 60.7279 15.1175 60.4668C15.4071 60.7449 15.6964 61.0226 15.9854 61.3003C15.8517 61.5203 15.7179 61.7405 15.5846 61.9601C15.1521 61.4806 14.9583 61.9955 14.7476 62.1993C13.0188 63.8716 11.3614 65.6014 10.5597 67.9586C10.524 68.0631 10.458 68.1574 10.3431 68.3763C10.2334 67.4597 10.4126 66.8048 11.0028 65.7439C11.7743 64.3573 12.8081 63.1735 13.8419 61.9848C14.0011 61.8018 14.569 61.7304 14.2224 61.251H14.2226Z" fill="#A2D3E7"/>
<path d="M25.7795 49.9625C25.8169 49.4059 26.2615 49.3582 26.6493 49.2445C29.3812 48.4433 32.2071 48.1188 34.9914 47.5839C35.2444 47.5352 35.5722 47.4628 35.6371 47.8157C35.6903 48.1053 35.3901 48.1383 35.1781 48.1572C32.2962 48.4124 29.5654 49.378 26.7532 49.9587C26.4403 50.0234 26.1073 50.1701 25.7797 49.9625H25.7795Z" fill="#A0D0E4"/>
<path d="M23.6585 59.2784C23.64 60.3549 24.0493 61.3455 24.2734 62.3731C23.4881 62.4714 23.2778 61.8757 23.0641 61.3247C22.7506 60.5164 22.6819 59.6688 22.8044 58.8132C22.8465 58.5185 22.9784 58.1411 23.2882 58.1428C23.7224 58.1451 23.5125 58.5918 23.5866 58.8428C23.6279 58.9828 23.6358 59.1329 23.6587 59.2786L23.6585 59.2784Z" fill="#EEEBF2"/>
<path d="M22.9691 62.9369C22.9691 63.5864 22.9691 64.2358 22.9691 64.8854C22.9244 64.977 22.8599 64.9946 22.7757 64.9383C22.4767 64.7683 22.5286 64.4637 22.4936 64.1926C22.3498 63.4336 22.1694 62.6704 22.7373 61.9909C23.3045 62.1846 22.4266 62.7371 22.9691 62.9369Z" fill="#A6D5E8"/>
<path d="M25.8705 73.3302C25.1786 73.3166 25.3983 72.6755 25.2393 72.3302C24.9483 71.6978 24.7845 71.006 24.5677 70.3389C24.6627 70.3389 24.7576 70.3393 24.8525 70.3395C25.3879 71.269 25.6854 72.2803 25.8705 73.3302Z" fill="#38295E"/>
<path d="M18.229 63.3299C18.2958 63.1888 18.3627 63.048 18.4293 62.9067C18.6628 62.904 18.8964 62.9013 19.1299 62.8987C19.1257 63.0518 19.1215 63.2046 19.1174 63.3576C18.8188 63.7732 18.9486 64.3284 18.6694 64.7505C18.1869 64.6833 18.2812 64.295 18.2449 63.9795C18.2417 63.7631 18.2426 63.5463 18.229 63.3297V63.3299Z" fill="#A2D3E7"/>
<path d="M22.7372 61.9909C22.4103 62.6972 22.5826 63.4596 22.4935 64.1926C21.8273 63.3634 22.3621 62.5249 22.4745 61.6897C22.5619 61.79 22.6496 61.8906 22.737 61.9909H22.7372Z" fill="#3E2F63"/>
<path d="M31.0081 90.9707C31.6118 90.2182 32.1553 89.4363 32.2307 88.4267C32.3385 88.1412 32.4455 87.8557 32.5526 87.5703C33.3333 87.6053 33.8077 88.0814 34.0195 88.7644C34.4601 90.1865 34.5966 92.3061 32.8338 93.4143C31.2517 93.95 28.4763 93.347 26.9167 92.0764C27.9413 92.0049 28.8929 91.9889 29.827 91.8525C30.3221 91.7801 30.988 91.7639 31.0085 90.9709L31.0081 90.9707Z" fill="#FEFEFF"/>
<path d="M32.8336 93.4144C33.5445 92.5676 34.0356 91.6781 34.0128 90.4835C33.9891 89.2247 33.7026 88.2069 32.5526 87.5701C32.5526 87.5701 32.5708 87.5483 32.5706 87.5487C32.8977 87.4032 32.8873 86.5804 33.529 87.0653C33.8852 87.4588 34.2411 87.8524 34.5972 88.246C35.4781 90.6059 34.8246 92.5206 32.8334 93.4146L32.8336 93.4144Z" fill="#A2D6E9"/>
<path d="M34.5482 93.0661C34.7816 93.6243 34.4497 94.1106 34.4145 94.6238C34.3913 94.9603 34.1883 95.221 33.8866 95.2787C33.5495 95.3434 33.3759 95.0121 33.2058 94.7783C32.9899 94.4813 32.9229 94.106 33.2328 93.8648C33.6331 93.5533 33.9941 93.14 34.5484 93.0661H34.5482Z" fill="#67509B"/>
<path d="M46.1204 88.4286C45.9416 88.8435 45.5651 88.9061 45.1847 88.9628C43.6629 89.5706 42.1236 89.9776 40.4984 89.3637C40.1683 89.2199 39.8126 89.1271 39.5268 88.8904C39.4548 88.7363 39.3828 88.582 39.3108 88.4279C39.2284 87.039 38.464 85.957 37.7267 84.8628C37.7715 83.938 38.2606 83.2167 38.7874 82.5119C39.5829 81.7779 40.0348 80.7506 40.8852 80.0544C41.3206 79.6975 41.7199 79.3117 42.2816 79.1677C43.352 78.4038 44.1373 78.6587 44.6375 79.9324C44.7453 80.2065 44.8749 80.4721 44.9942 80.7418C45.6141 82.6112 46.2087 84.4839 46.6222 86.4181C46.7981 87.2414 46.7261 87.8677 46.1204 88.4286Z" fill="white"/>
<path d="M46.6076 90.2463C46.2865 92.2179 45.8146 94.1368 44.6515 95.807C44.4599 96.082 44.24 96.34 44.0124 96.5862C43.239 97.4233 42.3304 98.0687 41.1573 97.6544C40.0642 97.2684 39.7968 96.2218 39.7233 95.1853C39.6361 93.9532 39.6616 92.7135 39.6015 91.4789C39.5679 90.7868 39.6853 90.6128 40.4702 90.7841C42.2501 91.1724 44.0276 91.1111 45.6055 89.9833C46.033 89.7102 46.5262 89.1834 46.6074 90.2463H46.6076Z" fill="white"/>
<path d="M46.6077 90.2463C46.446 89.494 45.9325 90.0986 45.6058 89.9835C45.2924 89.543 44.9809 89.9491 44.7368 90.0438C43.5142 90.5173 42.2641 90.5589 40.9854 90.4426C40.0307 90.3557 39.415 89.9774 39.527 88.8906C39.8341 88.9311 40.1757 88.7562 40.4448 89.0377C41.4429 90.0329 42.6061 89.7147 43.7487 89.4334C44.2952 89.2988 44.7541 88.9512 45.2361 88.6675C45.5311 88.5877 45.8259 88.5081 46.1209 88.4286C46.3965 88.6078 46.9398 88.5151 46.8056 89.1108C46.6951 89.4815 46.8636 89.9013 46.6081 90.2463H46.6077Z" fill="#A1D3E7"/>
<path d="M43.5758 99.2435C43.1232 99.0708 42.5468 98.8611 42.5789 98.3506C42.6113 97.8393 43.2789 97.6653 43.6947 97.5918C44.257 97.4923 44.1654 98.1484 44.2367 98.4769C44.3277 98.8949 43.9799 99.1276 43.5758 99.2435Z" fill="#67509C"/>
<path d="M43.3462 77.9591C42.8899 78.2526 42.4902 78.6352 42.0654 78.9782C40.9507 80.0863 39.7763 81.1412 38.9486 82.5062C38.5412 83.2915 38.1337 84.0769 37.7265 84.8626C37.1369 84.5185 37.0599 84.0291 37.3299 83.4417C38.2481 81.8834 38.9887 80.2154 40.4068 78.9874C41.0944 78.3922 42.0091 78.0859 42.5205 77.2791C42.877 77.0805 43.2334 76.8821 43.5897 76.6838C43.9458 77.1934 43.91 77.5968 43.3462 77.9591Z" fill="#A2D6E9"/>
<path d="M42.5204 77.2791C42.7251 77.6791 42.3679 77.8235 42.1564 77.9572C40.1814 79.2068 38.7803 80.9422 37.813 83.0559C37.7166 83.2667 37.5967 83.4474 37.3296 83.4417C37.3294 83.3718 37.33 83.3022 37.3319 83.2325C38.2866 80.5644 40.0235 78.5865 42.5202 77.2791H42.5204Z" fill="#3B2E60"/>
<path d="M49.5166 63.5851C48.106 64.6447 46.8538 65.8474 46.0568 67.4613C45.8536 67.6318 46.1722 68.1064 45.6829 68.1101C44.8851 67.373 43.8634 67.4746 42.9 67.3587C42.5223 67.2137 41.8514 67.4611 41.8424 66.8203C41.8305 65.9599 41.0609 65.0191 42.0306 64.2308C42.3481 63.2732 42.3256 62.2256 42.7946 61.3081C42.9223 61.2139 43.0746 61.1647 43.2121 61.2388C44.7539 62.0705 46.4924 62.2033 48.1388 62.6636C48.6772 62.8141 49.3628 62.82 49.5168 63.5851H49.5166Z" fill="white"/>
<path d="M38.8694 60.2565C38.5216 58.9885 38.1683 57.7893 37.2679 56.9006C36.6288 56.4134 36.411 56.8802 36.4023 56.9C36.4023 56.9 36.4023 56.9001 36.4023 56.9004C36.2961 57.2249 36.2619 57.5435 36.1292 57.7379C35.6161 58.821 35.5268 58.2339 35.5268 58.2339C35.5293 58.058 35.4914 57.9417 35.4432 57.8651C35.3616 57.7362 35.2502 57.7194 35.2502 57.7194C35.1845 57.736 35.125 57.7948 35.077 57.8613C35.0002 57.9669 34.952 58.0909 34.952 58.0909C34.753 58.4482 34.675 58.148 34.675 58.148C34.6658 58.025 34.6086 57.9163 34.5354 57.8256C34.3837 57.6371 34.1636 57.5265 34.1636 57.5265C34.0939 57.655 34.0328 57.7498 33.9794 57.8189C33.7121 58.1646 33.6383 57.8605 33.6383 57.8605C33.6621 57.7041 33.698 57.469 33.7399 57.1947C33.3641 57.0544 33.2352 57.5486 32.9076 57.5135C32.7282 57.1254 33.24 56.8553 33.0967 56.4533C32.897 56.5177 32.7036 56.5801 32.181 56.7486C33.0443 56.0872 32.511 55.5616 32.4169 55.0342C32.4167 54.9974 32.4124 54.964 32.4048 54.9334C32.3487 54.7065 32.114 54.6421 32.0189 54.6251C32.0189 54.6251 32.0187 54.6251 32.0184 54.6251C31.9938 54.6206 31.9788 54.6194 31.9788 54.6194C31.2037 54.5157 30.4155 54.6116 29.5741 54.6735C30.1145 54.1456 30.7627 54.0936 31.3629 53.9649C34.8189 53.2242 38.388 55.1019 39.2389 58.0769C39.4448 58.7966 39.4512 59.4746 38.8696 60.2565H38.8694Z" fill="#EC70A7"/>
<path d="M31.9786 54.6194C31.9786 54.6194 31.9934 54.6207 32.0176 54.625C32.0047 54.6229 31.9916 54.6211 31.9786 54.6194Z" fill="#EC70A7"/>
<path d="M32.4168 55.0342C32.4105 55.0006 32.4063 54.967 32.4047 54.9334C32.4122 54.9641 32.4166 54.9974 32.4168 55.0342Z" fill="#EC70A7"/>
<path d="M37.004 56.6624C36.9759 56.6389 36.9473 56.616 36.9181 56.5933C36.9454 56.6116 36.9742 56.6345 37.004 56.6624Z" fill="#EC70A7"/>
<path d="M39.5744 55.7571L37.9753 53.8721C37.9035 53.8356 37.8328 53.7943 37.7633 53.7552C36.0948 52.8195 34.3152 52.3262 32.3995 52.3493C32.0557 52.3535 31.7302 52.2838 31.4527 52.0611C31.3808 52.2049 31.3088 52.3489 31.2368 52.4927C28.849 52.7139 26.8985 53.7563 25.389 55.6349C25.1818 55.8927 24.983 56.1943 24.5718 56.1103C25.4188 53.0634 27.7038 51.555 30.508 50.8047C31.5458 50.527 32.687 50.2153 33.8324 50.4846C34.9976 50.7585 36.1409 51.105 37.1128 51.8199C37.472 52.0842 37.8582 52.3399 38.1599 52.6648C38.1605 52.6652 38.1609 52.6658 38.1614 52.6665C38.162 52.6669 38.1624 52.6675 38.163 52.6684C38.1843 52.694 38.3107 52.8487 38.4822 53.1075C38.8304 53.6331 39.3637 54.5873 39.5744 55.7571Z" fill="#69519D"/>
<path d="M38.4822 53.1075C38.3107 52.8487 38.1842 52.694 38.163 52.6684C38.2863 52.8012 38.3952 52.9459 38.4822 53.1075Z" fill="#69519D"/>
<path d="M49.5167 63.5851C48.83 62.9275 47.9066 62.8603 47.0623 62.7041C45.5689 62.4279 44.1199 62.077 42.7947 61.3083C43.5441 59.4792 43.6447 59.4251 45.4719 59.8094C46.1186 59.9454 46.7683 60.067 47.4165 60.1952C48.6959 60.7214 49.9416 61.3104 51.043 62.1679C51.3328 62.433 51.4584 62.6607 50.9731 62.87C50.4772 63.0839 50.0013 63.3448 49.5169 63.5853L49.5167 63.5851Z" fill="#A0D7EA"/>
<path d="M39.5548 56.9835C38.7991 56.2996 38.4085 55.4036 37.6209 54.8261C36.1714 53.7636 34.6093 53.1977 32.8393 53.3938C31.7471 53.5149 31.3513 53.0995 31.4527 52.0611C33.7201 51.8246 35.7904 52.3925 37.762 53.3642C37.7643 53.3654 37.7684 53.3675 37.7743 53.3705C37.8895 53.4305 38.643 53.8375 39.0995 54.4548C39.0995 54.455 39.0995 54.4552 39.0999 54.4555C39.5226 55.1855 39.7273 55.9944 39.5548 56.9835Z" fill="#83539D"/>
<path d="M31.4502 52.0687C31.4323 52.1224 31.3225 52.4574 31.2578 52.838C31.2497 52.8852 31.2424 52.9333 31.2359 52.9815C31.1514 53.3367 30.8539 53.5273 30.3816 53.6644C27.981 54.3619 25.8246 55.4519 24.5219 57.829C24.3711 57.2876 24.3877 56.7147 24.5718 56.1103C25.6577 54.8287 26.7668 53.5516 28.387 52.9526C28.9195 52.7559 29.4452 52.4329 30.0046 52.3178C30.0046 52.3178 30.0058 52.3174 30.0083 52.317C30.0774 52.2994 31.0811 52.0477 31.4502 52.0687Z" fill="#83539D"/>
<path d="M31.2579 52.838C31.2541 52.8886 31.2468 52.9364 31.236 52.9816C31.2424 52.9333 31.2497 52.8852 31.2579 52.838Z" fill="#83539D"/>
<path d="M42.0306 64.2308C41.6048 65.0989 42.1047 65.9539 42.0751 66.8193C42.0567 67.3562 42.6993 67.0563 42.9006 67.3587C42.4176 67.3887 41.9351 67.419 41.4531 67.4486C41.4865 67.2116 41.5445 66.9723 41.3705 66.7611C41.3492 65.767 40.8552 64.7786 41.3338 63.7782C41.4963 61.8629 41.8879 60.8144 42.8979 59.6982C42.9901 60.3086 42.5739 60.6805 42.4458 61.1333C42.1589 62.1473 41.4982 63.1063 42.0306 64.2306V64.2308Z" fill="#A6D5E8"/>
<path d="M41.6574 60.6641C41.4214 60.3676 41.1026 60.2236 40.7396 60.1616C40.8033 59.8701 40.855 59.5758 40.9334 59.2887C41.0182 58.9782 40.9864 58.5255 41.3883 58.478C41.8028 58.4291 42.1709 58.6938 42.4621 58.9984C42.8447 59.3984 42.3565 59.5811 42.2193 59.8367C42.0626 60.1291 41.8473 60.3896 41.6576 60.6639L41.6574 60.6641Z" fill="#9FD2E6"/>
<path d="M39.5258 60.0943C40.1026 58.8498 40.2781 57.5496 40.2337 56.1956C41.1934 57.3425 40.5963 58.5697 40.4335 59.7561C40.3695 60.2233 39.99 60.2895 39.5258 60.0943Z" fill="#E3DFE9"/>
<path d="M41.3338 63.7782C41.2347 64.774 41.6311 65.7635 41.3705 66.7611C40.6872 65.4891 40.8825 64.1582 41.1093 62.8251C41.238 63.1298 41.0699 63.5056 41.3338 63.7782Z" fill="#38295E"/>
<path d="M44.2309 75.7191C43.4898 75.7957 43.7646 75.0354 43.5803 74.6505C43.5323 74.5504 43.4821 74.4515 43.4328 74.3522C43.4249 74.3365 43.4172 74.3205 43.4095 74.3048C43.0108 73.4771 43.0208 72.6027 43.1339 71.7163C43.0819 70.7463 43.0118 69.7766 42.9868 68.8058C42.977 68.4225 42.7037 67.9028 43.4985 67.8478C44.2087 67.7987 44.3944 68.1091 44.4601 68.7176C44.6051 70.0612 44.7618 71.4035 44.9218 72.7454C44.9832 73.2603 45.0452 73.7752 45.1069 74.2899C45.1937 75.0128 45.0124 75.6383 44.2309 75.7191Z" fill="#A0D5E9"/>
<path d="M46.7603 68.5327C46.4776 68.7579 46.3833 69.0843 46.293 69.4122C46.0894 68.9775 45.8859 68.5434 45.6827 68.1097C45.8077 67.8933 45.9325 67.6767 46.057 67.4607C46.0781 67.6045 46.0549 67.8383 46.1286 67.8749C46.4034 68.0115 46.3756 67.6914 46.4351 67.5779C47.5093 65.5288 49.1625 64.1317 51.2604 63.252C51.7231 63.0581 52.3765 62.7317 52.31 63.7616C50.0532 64.0087 47.1065 66.542 46.7605 68.5325L46.7603 68.5327Z" fill="#A0CFE4"/>
<path d="M38.9487 82.5062C39.5322 80.9232 40.7244 79.8841 42.0655 78.9782C42.1375 79.0414 42.2094 79.1046 42.2814 79.1678C41.2631 80.1581 40.0563 80.9739 39.4085 82.3072C39.3113 82.5075 39.1386 82.526 38.9485 82.5062H38.9487Z" fill="#36285D"/>
<path d="M43.1341 71.7165C43.2339 72.5951 43.3334 73.4738 43.4331 74.3522C43.3545 74.4485 43.276 74.5449 43.1974 74.6412C42.9862 73.9219 42.8746 73.19 42.9203 72.4379C42.9689 72.1906 42.903 71.9089 43.1341 71.7165Z" fill="#302656"/>
<path d="M39.3745 76.2604C38.3829 77.2232 37.038 77.0475 35.8446 77.3517C35.4972 77.4403 35.1121 77.379 34.7445 77.3863C34.2421 77.4401 33.7289 77.6416 33.2571 77.2776C33.9177 76.4867 34.8895 76.8399 35.7061 76.6426C36.3814 76.4793 37.0814 76.3691 37.7691 76.2296C38.4974 76.0818 38.8316 75.6299 38.8189 74.8814C38.8074 74.2107 38.8093 73.5462 38.6441 72.8848C38.5368 72.4557 38.3449 72.223 37.8913 72.2605C35.6216 72.1675 33.374 72.3858 31.1339 72.7181C29.6663 72.9358 29.4673 73.1917 29.6044 74.704C29.6547 75.259 29.8276 75.8041 29.7412 76.3714C29.6665 76.6252 29.6265 76.9119 29.2628 76.9002C28.9209 75.1767 28.7465 73.4469 29.021 71.6928C29.1598 70.8065 29.6319 70.2589 30.529 70.1601C31.4491 70.0585 32.3742 70.0007 33.297 69.9237C33.4222 70.0881 33.8179 69.9048 33.7683 70.294C33.0902 70.9086 32.1954 70.5545 31.4333 70.817C30.9903 70.9696 30.4583 70.8827 30.1272 71.3372C30.1744 71.6743 30.4543 71.6277 30.6419 71.6077C32.8186 71.375 35.0086 71.2952 37.1811 71.0118C37.7632 70.9358 38.0945 70.735 37.928 70.0845C38.0246 69.7732 38.2176 69.7373 38.4757 69.8899C39.241 70.8735 39.1926 72.0832 39.3916 73.2242C39.5011 74.237 39.5258 75.2495 39.3747 76.2608L39.3745 76.2604Z" fill="#372B5C"/>
<path d="M33.2945 77.1735C33.7379 77.5183 34.2695 77.2534 34.7441 77.3863C33.3137 77.7087 31.8491 77.6409 30.4004 77.7423C29.8723 77.7792 29.3562 77.5704 29.2627 76.9002C29.4605 76.7881 29.4613 76.5815 29.5026 76.3943C29.8608 76.3962 30.115 76.6745 30.4471 76.748C31.0267 76.8828 31.6142 76.7902 32.1961 76.8255C32.5898 76.8494 33.0141 76.7841 33.2945 77.1735Z" fill="#413566"/>
<path d="M18.6373 64.6737C18.7955 64.2343 18.4719 63.617 19.1174 63.3578C18.8437 65.2433 18.8297 67.1177 19.3799 68.9634C19.5261 69.4539 19.6208 69.9707 19.9949 70.3611C19.5749 70.9558 19.4794 70.3553 19.4103 70.1546C19.0314 69.0553 18.7197 67.9353 18.6405 66.7649C18.262 66.0684 18.2639 65.3714 18.6373 64.6737Z" fill="#413466"/>
<path d="M38.4755 69.8893C38.3184 69.9587 38.1611 70.0282 38.004 70.0975C37.3414 70.6684 36.5784 70.4182 35.8392 70.3689C35.3055 70.1111 34.6171 70.3766 34.1558 69.8706C35.5968 69.6298 37.0374 69.4602 38.4755 69.889V69.8893Z" fill="#422F68"/>
<path d="M22.7756 64.9381C22.8503 64.9587 22.9148 64.9411 22.969 64.8854C23.1681 65.6318 23.3671 66.378 23.5664 67.1245C22.8975 66.5088 22.7911 65.737 22.7756 64.9383V64.9381Z" fill="#38295E"/>
<path d="M26.0962 75.8257C25.9639 75.0512 25.4575 74.3134 25.8704 73.4855C25.9706 74.263 26.3405 75.0144 26.0962 75.8257Z" fill="#3B2D62"/>
<path d="M39.3745 76.2604C39.3801 75.248 39.3858 74.2359 39.3914 73.2235C39.6518 74.2374 39.7271 75.2501 39.3745 76.2604Z" fill="#4A376F"/>
<path d="M34.1557 69.8708C34.6719 70.0463 35.2583 69.7144 35.7463 70.0935C35.111 70.596 34.4593 70.557 33.7962 70.1539C33.6297 70.0771 33.4632 70.0003 33.2968 69.9235C33.583 69.9058 33.8695 69.8882 34.1557 69.8708Z" fill="#29214E"/>
<path d="M18.229 63.3299C18.2945 63.4573 18.3598 63.5845 18.4253 63.7119C18.3654 64.8882 18.5225 66.064 18.4284 67.2403C18.5374 67.968 18.646 68.6956 18.755 69.4233C18.6786 69.5039 18.5987 69.5077 18.515 69.4346C17.9536 67.4219 17.5488 65.4016 18.229 63.3299Z" fill="#2F2553"/>
<path d="M18.5151 69.4346C18.595 69.4309 18.6752 69.4273 18.7551 69.4235C19.03 70.1179 19.3052 70.8122 19.6034 71.5649C18.8592 71.4927 19.025 70.8786 18.7757 70.5648C18.6891 70.1886 18.6021 69.8116 18.5151 69.4349V69.4346Z" fill="#423768"/>
<path d="M18.4285 67.2403C18.1141 66.0647 18.1485 64.8886 18.4254 63.7123C18.517 64.028 18.3555 64.4004 18.6374 64.6737C18.6384 65.3707 18.6395 66.0678 18.6405 66.7649C18.5698 66.9234 18.499 67.0819 18.4285 67.2405V67.2403Z" fill="#A2D3E7"/>
<path d="M45.2358 88.6675C44.3297 90.1219 41.3955 90.287 40.2518 89.4101C39.9013 89.1414 40.2436 89.0929 40.4452 89.0379C41.7875 89.604 43.1121 89.51 44.4019 88.883C44.6773 88.7491 44.9335 88.6467 45.2358 88.6675Z" fill="#38295E"/>
<path d="M30.1101 76.9344C29.6737 77.0209 29.6941 76.587 29.5028 76.3943C29.5026 76.3198 29.5086 76.2445 29.5011 76.1708C29.049 71.7446 28.8114 72.8067 32.7013 72.186C34.4582 71.9056 36.2408 71.7975 38.0259 71.9362C39.3351 73.7857 38.4465 76.0874 36.187 76.6204C34.9955 76.9014 33.7875 77.1086 32.5488 77.0169C31.7377 76.9569 30.9188 77.1013 30.1103 76.9346L30.1101 76.9344Z" fill="white"/>
<path d="M33.7965 70.154C34.4466 70.1338 35.0967 70.1137 35.7466 70.0935C36.4992 70.0948 37.2517 70.0962 38.0043 70.0975C38.4278 70.2627 38.5561 70.6183 38.4697 71.0095C38.3783 71.4239 37.9771 71.2488 37.7149 71.274C35.3358 71.5015 32.9559 71.7234 30.5733 71.9056C30.2264 71.932 29.6382 72.24 29.5312 71.6959C29.4131 71.0954 29.9178 70.7534 30.4845 70.6575C31.5854 70.4711 32.6922 70.3198 33.7965 70.154Z" fill="#A0D5E8"/>
<path d="M30.1101 76.9344C31.7007 76.7931 33.3143 77.0994 34.8907 76.6932C35.4284 76.5547 35.9756 76.4331 36.4912 76.2325C37.9992 75.6456 38.3236 75.057 38.2203 73.1486C38.1982 72.742 38.0926 72.3401 38.0257 71.936C38.3224 71.8812 38.686 71.7899 38.8001 72.1566C39.1842 73.391 39.2919 74.6612 38.9925 75.9264C38.8988 76.3217 38.4628 76.3754 38.0822 76.4613C36.5026 76.817 34.9087 77.0582 33.2949 77.1737C32.235 77.0708 31.1489 77.3235 30.1105 76.9346L30.1101 76.9344Z" fill="#A1D6E9"/>
<path opacity="0.1" d="M11.8234 57.9528L11.7731 57.9606L11.7139 57.9354C11.7502 57.9421 11.7867 57.948 11.8234 57.9528Z" fill="white"/>
<path opacity="0.1" d="M19.1138 62.57C19.0057 62.6263 18.9252 62.6668 18.9093 62.6712C18.8912 62.6765 18.7865 62.6425 18.6521 62.5935C18.8034 62.6084 18.9567 62.6024 19.1138 62.57Z" fill="white"/>
<path opacity="0.1" d="M21.4843 53.2326L21.4772 53.2536L21.0416 54.5682L20.939 55.3261L20.935 55.3553C20.9348 55.3427 20.9346 55.3299 20.9344 55.3173C20.9248 54.8066 21.0047 54.3346 21.1655 53.8988C21.1666 53.8954 21.1678 53.8921 21.1691 53.8887C21.2513 53.6597 21.3571 53.4408 21.4843 53.2326Z" fill="white"/>
<path opacity="0.1" d="M22.6949 51.9211L22.5985 52.0223L21.5845 53.0863L21.5641 53.1077C21.7099 52.8881 21.8802 52.6816 22.0719 52.4889C22.0736 52.4872 22.075 52.4857 22.0769 52.4841C22.1316 52.4274 22.1883 52.3718 22.2469 52.3168C22.3926 52.1801 22.5417 52.0481 22.6949 51.9211Z" fill="white"/>
<path opacity="0.1" d="M25.6214 49.6676L25.3883 50.1468L25.1697 50.2803C25.278 50.1708 25.3748 50.0476 25.4565 49.9067C25.5072 49.8196 25.5623 49.74 25.6214 49.6676Z" fill="white"/>
<path opacity="0.1" d="M8.16438 65.3684C8.13621 65.3392 8.10763 65.3109 8.078 65.283L8.12954 65.308L8.16438 65.3684Z" fill="white"/>
<path opacity="0.1" d="M8.85205 58.0041L7.86938 58.7282C8.1694 58.4396 8.49675 58.1982 8.85205 58.0041Z" fill="white"/>
<path opacity="0.1" d="M11.1706 57.7033L10.7565 57.5265L10.2034 57.516C10.3805 57.4797 10.5631 57.4516 10.7506 57.4316C10.8017 57.4144 10.8518 57.3981 10.901 57.3821C10.977 57.5177 11.0684 57.6224 11.1706 57.7033Z" fill="white"/>
<path opacity="0.1" d="M14.4613 71.6466C14.2001 71.5399 13.9441 71.4232 13.6934 71.296C13.9266 71.4031 14.1997 71.528 14.4613 71.6466Z" fill="white"/>
<path opacity="0.1" d="M19.9949 72.4627C19.8115 72.5097 19.6202 72.537 19.4181 72.537C19.3319 72.537 19.2459 72.5364 19.1604 72.5351L19.9949 72.4627Z" fill="white"/>
<path opacity="0.1" d="M21.2448 71.8787C20.8459 72.1161 20.4439 72.3481 19.9949 72.4627L21.2448 71.8787Z" fill="white"/>
<path opacity="0.1" d="M23.0027 71.3078C22.9407 71.2562 22.8723 71.2247 22.7944 71.2121L22.9691 71.1764L23.0027 71.3078Z" fill="white"/>
<path opacity="0.1" d="M25.1008 78.3147C25.0894 78.3147 25.0835 78.3193 25.0829 78.3277C24.848 77.9887 24.722 77.5855 24.6081 77.15C24.5188 76.8089 24.4353 76.4663 24.355 76.1229C24.7069 77.0385 25.1826 78.3147 25.1008 78.3147Z" fill="white"/>
<path opacity="0.1" d="M26.6507 79.5206L26.6426 79.6425C26.6086 79.5729 26.5685 79.5067 26.5222 79.4444L26.6507 79.5206Z" fill="white"/>
<path opacity="0.1" d="M35.2319 47.3954L32.1322 47.8799C32.1322 47.8799 31.6286 47.9592 30.9565 48.0648C32.1341 47.8528 33.3147 47.6561 34.4891 47.429C34.7391 47.3805 34.9938 47.3528 35.2319 47.3954Z" fill="white"/>
<path opacity="0.1" d="M36.5631 48.3138H36.5426L36.5321 48.3045C36.5424 48.3078 36.5528 48.3109 36.5631 48.3138Z" fill="white"/>
<path opacity="0.1" d="M42.3924 50.6122L42.3563 50.5736L41.257 49.3912L39.8187 48.6355C39.8187 48.6355 38.5191 48.399 38.4659 48.3566C38.4444 48.3394 38.1279 48.3291 37.7578 48.323C38.7175 48.251 39.5185 48.3364 40.2026 48.6003C40.8293 48.8108 41.3394 49.2124 41.7665 49.7239C41.7669 49.7243 41.7675 49.7249 41.768 49.7256C41.99 49.9833 42.1969 50.2784 42.3924 50.6122Z" fill="white"/>
<path opacity="0.1" d="M24.8313 89.7228L24.9164 90.0857C24.8267 89.8624 24.7622 89.6408 24.7192 89.4208C24.7487 89.5285 24.786 89.629 24.8313 89.7228Z" fill="white"/>
<path opacity="0.1" d="M24.917 90.0868C24.9435 90.1275 25.7469 91.3588 25.9614 91.681C25.5838 91.2952 25.2579 90.8345 24.9988 90.2765C24.9694 90.2129 24.9418 90.15 24.917 90.0868Z" fill="white"/>
<path opacity="0.1" d="M26.1144 91.8307C26.4325 92.0458 27.4002 92.6503 27.8164 92.9274C27.1903 92.6478 26.6124 92.2977 26.1144 91.8307Z" fill="white"/>
<path opacity="0.1" d="M28.5796 93.229C29.2316 93.3913 30.2864 93.6316 30.8988 93.7697C30.4114 93.7489 29.9269 93.6385 29.4725 93.5094C29.1698 93.4236 28.8713 93.3314 28.5796 93.229Z" fill="white"/>
<path opacity="0.1" d="M32.7074 94.2636L32.7525 94.3377C32.7207 94.3064 32.6882 94.2766 32.655 94.2485L32.7074 94.2636Z" fill="white"/>
<path opacity="0.1" d="M34.0658 95.3245L34.2502 95.2193C34.1974 95.2606 34.1363 95.2959 34.0658 95.3245Z" fill="white"/>
<path opacity="0.1" d="M34.5404 88.0079L33.6673 87.2179L33.2188 86.4822L33.3596 85.5586L33.631 85.105C33.4426 85.6774 33.3731 86.317 33.4977 86.8119C33.7992 87.2489 34.2582 87.556 34.5404 88.0079Z" fill="white"/>
<path opacity="0.1" d="M34.769 92.5758L34.776 92.5548C34.773 92.5713 34.7703 92.5875 34.7677 92.604C34.7686 92.5856 34.769 92.5758 34.769 92.5758Z" fill="white"/>
<path opacity="0.1" d="M34.5291 83.6613H34.7847C34.7146 83.6842 34.6456 83.7119 34.5775 83.7446C34.5198 83.7723 34.463 83.8078 34.4077 83.8502L34.5291 83.6613Z" fill="white"/>
<path opacity="0.1" d="M34.7937 88.5247C35.0929 89.1842 35.3424 89.8784 35.2139 90.5788L35.1452 89.4628L34.7937 88.5247Z" fill="white"/>
<path opacity="0.1" d="M37.086 84.3598L37.12 84.4123C36.7344 84.0452 36.3126 83.7864 35.8884 83.6613H36.351L37.086 84.3598Z" fill="white"/>
<path opacity="0.1" d="M39.1475 87.8969L39.1634 88.0121C39.1429 87.942 39.1216 87.8721 39.0997 87.8026L39.1475 87.8969Z" fill="white"/>
<path opacity="0.1" d="M41.2108 97.9992C41.0554 97.8959 40.9146 97.7872 40.7871 97.6728C41.0035 97.8202 41.2044 97.965 41.2108 97.9992Z" fill="white"/>
<path opacity="0.1" d="M43.5371 53.9521L42.8098 51.4467L42.7898 51.3773C42.8059 51.4121 42.8217 51.4472 42.8378 51.4824C43.1937 52.271 43.4107 53.098 43.5371 53.9521Z" fill="white"/>
<path opacity="0.1" d="M44.2247 78.309L44.1815 78.186L44.1683 78.0987C44.1869 78.1688 44.2057 78.2389 44.2247 78.309Z" fill="white"/>
<path opacity="0.1" d="M44.2716 59.0601L44.0216 58.9138C44.0216 58.9138 43.9814 58.562 43.9507 58.2186C43.9584 58.2624 43.9674 58.3061 43.978 58.3493C44.0485 58.6356 44.1397 58.8716 44.2716 59.0601Z" fill="white"/>
<path opacity="0.1" d="M49.1984 60.9143L48.7836 60.7099L48.4104 60.5197C48.6793 60.6402 48.9414 60.7724 49.1984 60.9143Z" fill="white"/>
<path d="M35.3508 71.2327L35.2302 71.1879L34.9692 70.7171C34.9692 70.7171 35.0998 70.0673 35.2108 69.9756C35.3218 69.8836 36.2073 69.2961 36.3281 69.2665C36.3919 69.2508 36.9218 68.8366 37.4063 68.451C37.2166 68.6217 36.9763 68.8167 36.6771 69.0591C36.2978 69.3666 35.8672 69.6042 35.4887 69.9038C35.0089 70.2831 34.9847 70.9338 35.3508 71.2329V71.2327Z" fill="#FFFEFF"/>
<path d="M38.9095 73.6675L38.3385 73.2162L37.4614 72.7765L36.6162 71.8697L36.1514 71.529L35.7957 71.3974C36.5392 71.5271 37.0103 71.8579 37.3124 72.5529C37.424 72.81 37.746 72.8178 38.0007 72.8709C38.3456 72.9427 38.6919 73.0774 38.8004 73.4194C38.8302 73.5134 38.8672 73.5955 38.9099 73.6675H38.9095Z" fill="#FFFEFF"/>
<path d="M45.021 72.2551L44.2442 72.8709L41.7899 74.2728L40.89 74.8173L39.5477 74.1721L39.4742 74.114C39.8884 74.2724 40.3822 74.2922 40.7123 74.5904C40.8285 74.6956 41.0014 74.5837 41.1264 74.5033C42.388 73.6921 43.812 73.1728 45.021 72.2553V72.2551Z" fill="#FFFEFF"/>
<path d="M50.0441 68.3887C51.4041 67.0554 52.7014 65.6258 53 63.6027C52.9107 63.3252 52.5898 63.3261 52.4335 63.1309C50.5068 61.5705 48.2755 61.2945 45.9171 61.5843C45.5801 61.6257 45.273 61.7791 45.1558 62.1534C45.4149 62.7264 45.8979 62.4976 46.2984 62.4451C47.838 62.2436 49.3036 62.4531 50.6952 63.1548C52.3294 64.1982 52.3232 64.2274 51.27 65.8119C50.0706 67.616 48.3894 68.947 46.8271 70.3848C45.499 71.6075 45.447 71.5502 44.4084 70.2245C44.2499 70.1325 44.0896 70.099 43.9246 70.2104C43.7462 70.6854 44.0271 71.0897 44.1272 71.5219C44.3292 72.0286 44.1675 72.3776 43.6901 72.6222C42.9298 73.012 42.1681 73.4101 41.3885 73.7458C40.6132 74.0793 39.8471 73.6259 39.342 73.1322C38.9698 72.7685 38.7551 72.3642 38.1561 72.3075C37.5035 72.2456 37.4849 71.8296 37.8208 71.3537C38.0678 71.0034 38.5681 70.8198 38.5197 70.2761C38.3574 69.9682 38.1025 69.9692 37.8191 70.0673C37.1277 70.2589 36.6431 71.0649 35.7831 70.761C35.5256 70.3072 35.9318 70.1699 36.178 69.9927C36.7524 69.5797 37.2761 69.1044 37.8375 68.6773C38.554 68.1324 38.9775 67.5161 38.5684 66.5726C38.303 65.9605 38.6245 65.8157 39.1488 65.9606C39.793 66.1383 40.4237 66.3762 41.107 66.1973C42.2787 66.1501 42.8817 67.0029 43.4859 67.7903C44.012 68.4756 44.2574 69.3225 44.5929 70.1155C44.7335 70.4482 44.8841 70.9432 45.3252 70.8174C45.7602 70.6932 45.6097 70.2037 45.5789 69.8414C45.0711 68.3337 44.3826 66.9381 43.0928 65.9421C42.4122 65.4165 42.3532 64.9293 42.9803 64.2954C43.4752 63.7948 43.8994 63.2186 44.302 62.6349C44.3851 62.5127 44.4698 62.3916 44.5505 62.2684L43.3692 62.7314C42.6449 63.5786 41.8904 64.401 41.1579 65.2414C40.8022 65.6495 40.3634 65.7574 40.0015 65.3678C40.0015 65.3678 39.0397 64.7786 37.9706 65.0345C37.9706 65.0345 37.4342 65.1556 37.3927 65.9469C37.3927 65.9475 37.3927 65.9477 37.3927 65.9484C37.381 66.2932 37.3758 66.5758 37.6337 66.8012C38.1849 67.2829 37.8557 67.6343 37.4682 67.9909C36.8342 68.5747 36.226 69.1792 35.4115 69.5329C34.8607 69.7721 34.7042 70.2835 34.805 70.8552C34.8912 71.3435 35.1908 71.8004 35.6777 71.7257C36.4981 71.5997 36.5874 72.1757 36.9892 72.626C37.5773 73.2848 38.6341 73.398 39.1506 74.3293C39.2704 74.5451 40.1465 74.5274 40.5858 74.9219C40.7359 75.0562 41.0442 75.0346 41.219 74.8658C42.2161 73.9009 43.6532 73.7535 44.7258 72.902C46.5484 71.4549 48.3833 70.0179 50.0441 68.3895V68.3887Z" fill="#36285D"/>
<path d="M45.3624 69.9604C44.7287 68.2422 43.8381 66.7042 42.2867 65.656C41.875 65.3779 41.8373 65.1392 42.1669 64.7698C42.8631 63.99 43.5351 63.1882 44.217 62.3954C44.4857 62.0524 44.778 61.8282 45.1886 62.2C46.1687 62.1863 47.1508 62.1303 48.1286 62.1712C49.0541 62.2098 49.9609 62.4009 50.7608 62.9252C51.2602 63.3055 50.969 63.7417 50.8165 64.1376C49.9089 66.4927 48.1307 68.1639 46.3413 69.8169C46.0907 70.0484 45.7475 70.3328 45.3621 69.9604H45.3624Z" fill="white"/>
<path d="M35.5407 71.0695C35.0422 70.5549 35.1409 70.1361 35.7658 69.846C36.4877 69.5108 37.0706 69.0014 37.6548 68.4729C38.3382 67.8543 38.9285 67.2722 38.0547 66.3671C37.8964 66.203 37.815 65.9797 38.0418 65.7802C38.3512 65.5082 38.7067 65.4931 39.0916 65.567C39.7296 65.6894 40.2541 66.3107 40.9887 66.0051C41.6296 66.0825 41.7915 66.6324 42.0477 67.09C42.5303 67.7605 43.0836 68.3734 43.5887 69.0249C43.8668 69.3836 44.1497 69.743 43.9835 70.2478C44.1059 70.6374 44.2282 71.0271 44.3507 71.4167C43.7047 73.1117 41.6559 74.0283 40.1671 73.0586C39.308 72.499 38.549 71.5836 38.4463 70.3874C38.2869 70.0778 38.0647 70.2503 37.8573 70.3095C36.9865 70.2585 36.3821 71.0295 35.5409 71.0693L35.5407 71.0695Z" fill="white"/>
<path d="M41.7 67.127C41.5805 66.6776 41.2921 66.3363 40.9888 66.0051C41.39 65.4027 41.7699 65.8168 42.1166 66.055C43.3647 66.9127 44.1769 68.1072 44.6922 69.5211C44.8539 69.9646 45.0206 70.4061 45.2005 70.8895C45.5921 70.5398 45.2743 70.2339 45.3626 69.96C46.6868 69.6261 47.3369 68.4256 48.1785 67.5539C49.4109 66.2775 50.6335 64.8775 50.7603 62.9246C52.7997 63.9476 52.8506 64.122 51.592 65.9064C50.1123 68.004 48.1708 69.6355 46.21 71.2389C45.1683 72.0909 45.1431 72.0555 44.5733 70.7992C44.4972 70.6311 44.3828 70.4806 44.2862 70.3217C43.605 69.1087 42.84 67.9641 41.7002 67.1268L41.7 67.127Z" fill="#A1D7EA"/>
<path d="M38.4461 70.3876C39.3191 71.1585 39.42 72.5899 40.7634 72.987C42.0543 73.3688 42.9952 72.9114 43.8254 71.9881C43.9983 71.7958 44.1752 71.6073 44.3503 71.4169C44.7625 71.9354 44.6981 72.3405 44.1091 72.6885C43.1529 73.2538 42.0674 73.5816 41.2009 74.315C40.9921 74.4918 40.719 74.513 40.5296 74.2271C40.5095 74.1969 40.4999 74.1582 40.4918 74.1221C40.2932 73.2405 39.0908 74.4506 39.0589 73.4828C39.0255 72.474 38.4249 72.5934 37.8015 72.6241C37.4635 72.6407 37.3759 72.4268 37.2891 72.1591C37.1645 71.7752 37.1399 71.4285 37.4871 71.1487C37.8048 70.8926 38.1263 70.6411 38.4461 70.3878V70.3876Z" fill="#A1D7EA"/>
<path d="M41.6999 67.127C41.8773 66.932 42.0717 66.8862 42.2501 67.1083C43.0481 68.1024 44.0635 68.9586 44.2859 70.3219C44.185 70.2973 44.084 70.2726 43.983 70.248C43.3646 69.102 42.5048 68.1349 41.6997 67.127H41.6999Z" fill="#453667"/>
<path d="M35.5406 71.0696C36.2437 70.6034 36.8598 69.8685 37.8571 70.3097C37.1102 70.6409 36.5408 71.5196 35.5406 71.0696Z" fill="#9FCDE2"/>
<path opacity="0.1" d="M35.7952 71.3974C35.7645 71.3919 35.733 71.3867 35.7009 71.3819C35.5601 71.3611 35.4428 71.308 35.3506 71.2326L35.795 71.3974H35.7952Z" fill="white"/>
<path opacity="0.1" d="M39.4742 74.1139C39.2497 74.0281 39.0486 73.9015 38.9097 73.6679L39.4742 74.1139Z" fill="white"/>
<path opacity="0.1" d="M45.2653 72.0613C45.1849 72.1279 45.1034 72.1923 45.0208 72.2551L45.2636 72.0624L45.2653 72.0613Z" fill="white"/>
<path d="M43.8278 54.5539C43.8278 54.5539 43.8622 55.5291 43.9763 56.1246L43.5806 56.0824L43.4823 55.0237L43.8278 54.5539Z" fill="#38295E"/>
<path d="M38.162 52.6673C38.162 52.6673 38.1607 52.6654 38.1598 52.6648C38.1598 52.6648 38.1607 52.6654 38.162 52.6673Z" fill="#F8F7FA"/>
<path d="M31.5564 52.966L31.236 52.9816C31.294 52.5452 31.43 52.1291 31.4502 52.0687C31.4502 52.0687 31.4509 52.0687 31.4511 52.0689L31.3962 52.3317V52.6247L31.5564 52.966Z" fill="#36255E"/>
<path d="M31.4525 52.0616L31.451 52.0688C31.451 52.0688 31.4504 52.0686 31.4502 52.0686C31.4515 52.0647 31.4523 52.0624 31.4525 52.0616Z" fill="#69519D"/>
<path d="M24.5233 53.8673C24.3971 54.0279 24.2917 54.2565 24.208 54.4876C24.1678 54.48 24.086 54.497 24.086 54.497C24.0789 54.4991 24.072 54.5014 24.0651 54.5037L23.9587 54.0688L23.8861 53.7714L24.2909 53.7437L24.5233 53.8673Z" fill="#FFFEFF"/>
<path d="M25.8705 73.3302L25.9414 73.8828L25.7117 74.0399C25.7117 74.0399 25.6896 73.6093 25.4557 73.169L25.8707 73.3302H25.8705Z" fill="#38295E"/>
<path d="M26.1557 75.5602C26.1557 75.5602 26.2694 76.5555 26.4254 77.0198L26.2137 77.0387C26.2137 77.0387 26.1467 76.061 26.0962 75.8257L26.1557 75.5602Z" fill="#38295E"/>
<path d="M45.4493 75.7243C45.4493 75.7243 45.0625 76.23 44.3502 76.2193C44.3502 76.2193 43.9861 76.3122 44.2559 76.9338C44.2559 76.9338 44.8784 79.6346 45.1903 80.7458L44.9942 80.7418C44.8749 80.4721 44.7453 80.2065 44.6375 79.9324C44.1363 78.659 43.351 78.4041 42.2816 79.1677L42.0654 78.9782C42.4902 78.6352 42.89 78.2526 43.3462 77.9591C43.91 77.5968 43.9458 77.1934 43.5897 76.6838C43.4589 76.0028 43.3279 75.3219 43.1971 74.641C43.205 74.5919 43.2129 74.543 43.2204 74.4939L43.4094 74.3047C43.4172 74.3205 43.4249 74.3364 43.4328 74.3522C43.4821 74.4515 43.5323 74.5503 43.5803 74.6505C43.7645 75.0354 43.4898 75.7957 44.2308 75.7191C45.0124 75.6382 45.1937 75.0127 45.1069 74.2898C45.0451 73.7752 44.9832 73.2603 44.9218 72.7454L45.3362 72.4167C45.3362 72.4167 45.7902 75.0902 45.4493 75.7243Z" fill="#36285D"/>
<path d="M45.0175 80.0955L45.4583 81.2917L45.1581 80.8925L44.9309 80.1637L45.0175 80.0955Z" fill="#36285D"/>
<path d="M43.3694 62.731C43.3694 62.731 43.9129 61.7968 45.8104 61.6016L45.1887 62.1998C45.1887 62.1998 44.4278 62.196 43.9291 62.731H43.3694Z" fill="#36285D"/>
<path d="M35.4443 75.3372L35.4059 75.3511L35.3829 75.3582C35.4028 75.3517 35.4232 75.3448 35.4443 75.3372Z" fill="#38295E"/>
<path d="M36.5333 73.3012C36.5333 73.3012 36.5333 73.2993 36.5333 73.2985C36.5327 73.2664 36.5306 73.2489 36.5306 73.2489C36.5306 73.2496 36.5302 73.25 36.53 73.2506C36.5275 73.2252 36.5239 73.2 36.5193 73.1753C36.5193 73.1753 36.4941 73.4563 36.2613 73.8146C36.2606 73.8157 36.2598 73.8165 36.2596 73.8173C36.2596 73.8173 36.2592 73.8178 36.2592 73.818V73.8184C36.0653 74.0499 35.7559 74.2772 35.3209 74.1836C35.3209 74.1836 35.2102 74.1572 35.1215 74.1039C34.955 73.5755 34.4261 73.2334 33.8651 73.3207C33.6763 73.3501 33.5058 73.4248 33.3627 73.5317C33.3335 73.5355 33.2982 73.5407 33.2594 73.5478L33.2407 73.5516L33.2192 73.556L33.1831 73.5648C33.1831 73.5648 33.1313 73.5774 33.1059 73.5865C33.0825 73.5934 33.0581 73.6014 33.0329 73.61H33.0324C33.0324 73.61 33.0316 73.6104 33.031 73.6106C32.6911 73.7281 32.1929 74.0044 31.8507 74.6492V74.6496C31.7783 74.776 31.7245 74.8977 31.6847 75.0117C31.6847 75.0117 31.6749 75.0383 31.6611 75.0833C31.6594 75.0887 31.6575 75.0946 31.6559 75.1009C31.6396 75.1538 31.6269 75.204 31.6164 75.2518C31.6125 75.2703 31.6085 75.2894 31.6045 75.3091C31.592 75.3723 31.5816 75.4416 31.5762 75.5125C31.572 75.566 31.5707 75.6204 31.5735 75.6739C31.5735 75.6748 31.5735 75.6756 31.5735 75.6767C31.5747 75.7088 31.577 75.7262 31.577 75.7262C31.577 75.7256 31.577 75.7251 31.5774 75.7243C31.5803 75.7499 31.5841 75.7751 31.5891 75.7997C31.5891 75.7997 31.611 75.5182 31.8397 75.1574C31.8403 75.1563 31.8411 75.1555 31.8413 75.1544C31.8413 75.1544 31.8416 75.154 31.8418 75.1538V75.1532C32.006 74.9525 32.2551 74.7539 32.5981 74.7575C32.6548 74.7581 32.7139 74.764 32.7756 74.7764C32.7756 74.7764 32.8643 74.7967 32.9467 74.8383C32.9471 74.8383 32.9473 74.8383 32.9475 74.8385C32.964 74.8446 32.9742 74.8486 32.9742 74.8486C32.9749 74.8503 32.9755 74.8517 32.9761 74.8534C33.1612 75.349 33.6719 75.6632 34.2125 75.5793C34.3637 75.5558 34.5037 75.5029 34.627 75.4277H34.6316C34.6329 75.4275 34.6343 75.4277 34.636 75.4275C34.6604 75.4264 34.7313 75.422 34.8225 75.4059L34.8411 75.4023L34.8628 75.3983L34.8991 75.3899C34.8991 75.3899 34.9508 75.3778 34.9765 75.3694C35.3155 75.2715 35.8678 75.0113 36.2441 74.3217C36.2441 74.3217 36.2442 74.3216 36.2444 74.3213C36.3182 74.1958 36.3733 74.0745 36.4148 73.9613C36.4148 73.9613 36.4248 73.9349 36.4392 73.89C36.4411 73.8843 36.443 73.8786 36.4449 73.8726C36.4615 73.8201 36.4749 73.7695 36.4862 73.7218C36.4903 73.7036 36.4945 73.6845 36.4987 73.665C36.5218 73.5541 36.5392 73.4248 36.5339 73.3004L36.5333 73.3012ZM34.4772 73.8778C34.1382 73.5657 33.7001 73.7718 33.7001 73.7718C34.1931 73.3497 34.4772 73.8778 34.4772 73.8778ZM34.148 75.1953C33.9125 75.155 33.7355 75.0283 33.708 75.0077C33.7057 75.0058 33.7042 75.005 33.7042 75.005C33.5534 74.9145 33.4426 74.7598 33.4134 74.5717C33.3631 74.2447 33.5799 73.938 33.9001 73.8761C33.9074 73.8749 33.9147 73.8734 33.9223 73.8723C34.0725 73.849 34.2185 73.883 34.3381 73.9584C34.3385 73.9588 34.3393 73.959 34.3399 73.9599C34.4837 74.0512 34.5888 74.2021 34.617 74.3845C34.6629 74.6834 34.4858 74.9651 34.2104 75.0585C34.1895 75.0656 34.1682 75.0715 34.1461 75.0763C34.1447 75.0768 34.144 75.0768 34.144 75.0768C34.1455 75.0774 34.1467 75.0778 34.1482 75.0782C34.3458 75.1504 34.5317 75.116 34.6571 75.0717C34.751 75.0386 34.8106 74.9999 34.816 74.9964C34.5876 75.2014 34.3468 75.2289 34.148 75.1951V75.1953Z" fill="#38295E"/>
<path d="M35.9504 73.5888C35.9224 73.6713 35.8918 73.7487 35.8584 73.8218C35.8058 73.8541 35.7543 73.8774 35.7048 73.894C35.5386 73.9502 35.3969 73.9292 35.3174 73.9072C35.283 73.8111 35.2371 73.721 35.1826 73.6379H35.182C35.1755 73.6272 35.1689 73.6169 35.1626 73.6072C35.8726 73.5248 36.0539 72.6455 36.0539 72.6455C36.1152 72.919 35.9504 73.5888 35.9504 73.5888Z" fill="#38295E"/>
<path d="M32.9409 75.3324C32.2595 75.4388 32.0843 76.2896 32.0843 76.2896C32.0229 76.0163 32.1875 75.3465 32.1875 75.3465L32.2603 75.1131C32.2651 75.1087 32.3463 75.0352 32.4961 75.0197C32.4961 75.0197 32.4973 75.0197 32.5001 75.0192C32.503 75.0188 32.5059 75.0186 32.5088 75.0184C32.5145 75.018 32.5224 75.0173 32.5318 75.0169C32.58 75.0146 32.6699 75.0165 32.759 75.0476L32.7609 75.0518C32.8013 75.1372 32.8501 75.2172 32.9067 75.2906C32.9177 75.3055 32.9282 75.3192 32.9367 75.3284C32.9369 75.3288 32.9374 75.3291 32.9376 75.3295C32.9384 75.3305 32.9396 75.3316 32.9405 75.3324H32.9409Z" fill="#38295E"/>
<path d="M33.2879 75.0094V75.0098C33.2773 75.0053 33.2664 75.0011 33.2555 74.997C33.2738 75.0014 33.2853 75.0043 33.2853 75.0043C33.2861 75.0059 33.2871 75.0076 33.2879 75.0092V75.0094Z" fill="#38295E"/>
<path d="M32.8028 75.2445C32.7995 75.2449 32.796 75.2456 32.793 75.2467C32.7954 75.246 32.7987 75.2454 32.8028 75.2445Z" fill="#38295E"/>
<path d="M34.5897 75.0978C34.5879 75.0976 34.5867 75.0971 34.585 75.0969C34.5867 75.0969 34.5879 75.0974 34.5897 75.0978Z" fill="#38295E"/>
<path d="M34.6545 75.068C34.6328 75.0785 34.6105 75.0879 34.5872 75.0959C34.5943 75.0927 34.6187 75.0829 34.6545 75.068Z" fill="#38295E"/>
<path d="M36.9736 66.3264C36.9736 66.3264 37.0337 66.2343 36.9158 66.1279L36.1966 65.3374C36.1966 65.3374 36.0316 65.0693 36.1353 64.7345C36.1353 64.7345 36.3112 64.2146 36.708 64.0754C36.708 64.0754 37.3072 63.9495 37.6642 64.1934C37.6642 64.1934 38.7683 64.9073 39.2262 65.0597L36.9736 66.3266V66.3264Z" fill="#36255E"/>
<path d="M38.1921 67.2118L36.3852 65.1352C36.3852 65.1352 36.2456 64.6963 36.637 64.3834C36.637 64.3834 37.068 63.9825 37.6215 64.4491L40.0266 65.9776C40.0266 65.9776 40.5211 66.1463 40.7502 66.0823L38.3305 67.8428C38.3305 67.8428 38.4341 67.635 38.1923 67.2118H38.1921Z" fill="white"/>
<path d="M40.5887 65.6023C40.5808 65.6035 40.1809 65.7089 39.226 65.0597L39.6455 64.7668L40.5887 65.6023Z" fill="#FEFEFF"/>
<path d="M36.4309 65.1879L38.3397 67.1373C38.3397 67.1373 38.546 67.4412 38.3524 67.7082L38.0345 67.6732L37.9944 67.03L37.0543 66.0328L36.2659 65.1879H36.4311H36.4309Z" fill="#36255E"/>
<path d="M36.4309 65.1879C36.4309 65.1879 36.303 65.0935 36.4309 64.7452C36.4309 64.7452 36.5266 64.413 36.8942 64.3005C36.8942 64.3005 37.2675 64.2058 38.0636 64.7301L37.4909 64.2631L37.0968 64.1344L36.6067 64.2524L36.2871 64.7937L36.3608 65.1881H36.4309V65.1879Z" fill="#36255E"/>
<path d="M36.4856 65.2437C36.4856 65.2437 38.0053 66.3512 38.4352 67.3444L37.8922 66.8585L36.6349 65.6938L36.4854 65.2437H36.4856Z" fill="#36255E"/>
<path d="M36.5112 64.5847C36.5112 64.5847 36.2195 65.0846 36.6687 65.3837L36.5433 65.4175L36.2076 65.1363L36.2871 64.7933L36.4857 64.457L36.5114 64.5844L36.5112 64.5847Z" fill="#36255E"/>
</g>
</g>
<defs>
<radialGradient id="paint0_radial_2_289" cx="0" cy="0" r="1" gradientUnits="userSpaceOnUse" gradientTransform="translate(24.3843 112.893) rotate(13.3357) scale(124.636 93.4508)">
<stop stop-color="#A366FF" stop-opacity="0.12"/>
<stop offset="1" stop-color="#1E1E1E" stop-opacity="0"/>
</radialGradient>
<clipPath id="clip0_2_289">
<rect width="300" height="113" rx="8" fill="white"/>
</clipPath>
<clipPath id="clip1_2_289">
<rect width="141" height="30" fill="white" transform="translate(79 45)"/>
</clipPath>
<clipPath id="clip2_2_289">
<rect width="47" height="53" fill="white" transform="translate(6 47)"/>
</clipPath>
</defs>
</svg>
