<svg xmlns="http://www.w3.org/2000/svg" viewBox="0 0 124.15 69.99"><defs><style>.cls-1{fill:#fff;}</style></defs><g id="Calque_2" data-name="Calque 2"><g id="Calque_2-2" data-name="Calque 2"><path class="cls-1" d="M78.51,59.34l-.88.06h-.52C77.56,59.4,78,59.37,78.51,59.34Z"/><path class="cls-1" d="M124.14,13.93s-1.59,6.41-8.29,13.86a.23.23,0,0,0,0,.05h0c-3.89,3.4-9.21,6.52-15.6,6.52a21,21,0,0,1-7.54-1.44,19.43,19.43,0,0,1-4.36-2.57A26.76,26.76,0,0,0,49.4,10.81c-.69,0-1.53,0-2.46,0l-.44,0-.52,0-.87.07s-1.25.11-1.87.22-1.17.17-1.79.28h0c-8.33,1.5-20.92,6.09-31.19,19.77h0A51.47,51.47,0,0,0,5.06,39s-.32.58-.8,1.57L4.07,41c-.56,1.16-1,2.28-1.45,3.35-.16.41-.32.84-.48,1.28A39.71,39.71,0,0,0,.75,50.2a27.54,27.54,0,0,0-.64,3.72s0,0,0,.06C0,54.73,0,55.14,0,55.14l0,0a17.81,17.81,0,0,0,0,1.79s1.52-6.43,8.13-14l0-.06h0c3.9-3.48,9.26-6.7,15.74-6.7a19.49,19.49,0,0,1,3.27.27,22.56,22.56,0,0,1,4.07,1.08,20.3,20.3,0,0,1,3.76,2h0l.58.33,0,.12A26.76,26.76,0,0,0,72,59.23h.11l.1,0a37.23,37.23,0,0,0,4.42.17l.44,0h.52l.87-.06s1.25-.1,1.87-.2c8.24-1,22-5.07,33.25-19.66h0a50.83,50.83,0,0,0,5.25-7.72s.33-.57.82-1.56c.07-.12.13-.25.2-.38.57-1.16,1.07-2.27,1.49-3.34.17-.41.33-.83.5-1.27A35.9,35.9,0,0,0,124,16.89v-.06c.1-.75.12-1.16.12-1.16l0,0C124.15,15.12,124.16,14.52,124.14,13.93Zm-50,8.88C67.5,14.62,57,17.42,56.42,17.57,69.08,9.79,73.88,22.21,74.1,22.81Zm3.18,27.56c-.44.26-.87.5-1.3.72s-.89.43-1.32.61l-.54.22a18.05,18.05,0,0,1-4,1l-1.1.12a18.92,18.92,0,0,1-7.26-1,26.08,26.08,0,0,1-9.56-5.92l-.08-.08a14.35,14.35,0,0,1,8.6-25.4h.53a14.28,14.28,0,0,1,9.37,3.48l0,0a14.33,14.33,0,0,1-6.95,24.94,13,13,0,0,1-1.56.18h0l.09,0A17.84,17.84,0,0,0,74,51.1c.43-.08.84-.17,1.21-.27a9.85,9.85,0,0,0,1-.28l.29-.09.52-.17.61-.22.2-.09L78,50Z"/><path class="cls-1" d="M109.42,21.44a55.26,55.26,0,0,1-3,5.06,17.75,17.75,0,0,1-3.83,1.12,15.65,15.65,0,0,1-9.07-1.09,30.08,30.08,0,0,0-2.17-6.71h0c-.12-.27-.23-.54-.34-.78,16.81.64,24.18-19,24.18-19C115.66,6.55,109.42,21.44,109.42,21.44Z"/><path class="cls-1" d="M33.16,50.94C16.92,51,9.8,70,9.8,70c-.45-6.54,5.78-21.44,5.78-21.44l2.53-5.13h0a10.14,10.14,0,0,1,5.82-1.3h.3l.54.05A14.83,14.83,0,0,1,30,43.7l0,.11a29.8,29.8,0,0,0,2.54,6,10.6,10.6,0,0,0,.56,1l0,0Z"/><path class="cls-1" d="M35.68,40h0l-.61-.46.58.33Z"/><path class="cls-1" d="M24.23,42h0Z"/><path class="cls-1" d="M62.16,49.41l-.09,0h0Z"/><path class="cls-1" d="M63.69,49.18a13.54,13.54,0,0,1-1.56.18Z"/></g></g></svg>